<svg version="1.1" viewBox="0.0 0.0 580.488188976378 375.3569553805774" fill="none" stroke="none" stroke-linecap="square" stroke-miterlimit="10" xmlns:xlink="http://www.w3.org/1999/xlink" xmlns="http://www.w3.org/2000/svg"><clipPath id="p.0"><path d="m0 0l580.48816 0l0 375.35696l-580.48816 0l0 -375.35696z" clip-rule="nonzero"/></clipPath><g clip-path="url(#p.0)"><path fill="#000000" fill-opacity="0.0" d="m0 0l580.48816 0l0 375.35696l-580.48816 0z" fill-rule="evenodd"/><path fill="#000000" fill-opacity="0.0" d="m89.220474 332.99475l240.50392 0l0 77.5748l-240.50392 0z" fill-rule="evenodd"/><path fill="#000000" d="m99.45485 357.35474l0 -11.453125l4.328125 0q1.140625 0 1.734375 0.109375q0.84375 0.140625 1.40625 0.53125q0.578125 0.390625 0.921875 1.109375q0.359375 0.703125 0.359375 1.5625q0 1.453125 -0.9375 2.46875q-0.921875 1.015625 -3.359375 1.015625l-2.9375 0l0 4.65625l-1.515625 0zm1.515625 -6.015625l2.96875 0q1.46875 0 2.078125 -0.546875q0.625 -0.546875 0.625 -1.53125q0 -0.71875 -0.375 -1.234375q-0.359375 -0.515625 -0.953125 -0.671875q-0.375 -0.109375 -1.40625 -0.109375l-2.9375 0l0 4.09375zm8.984375 -3.828125l0 -1.609375l1.40625 0l0 1.609375l-1.40625 0zm0 9.84375l0 -8.296875l1.40625 0l0 8.296875l-1.40625 0zm3.5546875 3.1875l0 -11.484375l1.28125 0l0 1.078125q0.453125 -0.640625 1.015625 -0.953125q0.578125 -0.3125 1.390625 -0.3125q1.0625 0 1.875 0.546875q0.8125 0.546875 1.21875 1.546875q0.421875 0.984375 0.421875 2.171875q0 1.28125 -0.46875 2.296875q-0.453125 1.015625 -1.328125 1.5625q-0.859375 0.546875 -1.828125 0.546875q-0.703125 0 -1.265625 -0.296875q-0.546875 -0.296875 -0.90625 -0.75l0 4.046875l-1.40625 0zm1.265625 -7.296875q0 1.609375 0.640625 2.375q0.65625 0.765625 1.578125 0.765625q0.9375 0 1.609375 -0.796875q0.671875 -0.796875 0.671875 -2.453125q0 -1.59375 -0.65625 -2.375q-0.65625 -0.796875 -1.5625 -0.796875q-0.890625 0 -1.59375 0.84375q-0.6875 0.84375 -0.6875 2.4375zm13.3046875 1.4375l1.453125 0.171875q-0.34375 1.28125 -1.28125 1.984375q-0.921875 0.703125 -2.359375 0.703125q-1.828125 0 -2.890625 -1.125q-1.0625 -1.125 -1.0625 -3.140625q0 -2.09375 1.078125 -3.25q1.078125 -1.15625 2.796875 -1.15625q1.65625 0 2.703125 1.140625q1.0625 1.125 1.0625 3.171875q0 0.125 0 0.375l-6.1875 0q0.078125 1.375 0.765625 2.109375q0.703125 0.71875 1.734375 0.71875q0.78125 0 1.328125 -0.40625q0.546875 -0.40625 0.859375 -1.296875zm-4.609375 -2.28125l4.625 0q-0.09375 -1.046875 -0.53125 -1.5625q-0.671875 -0.8125 -1.734375 -0.8125q-0.96875 0 -1.640625 0.65625q-0.65625 0.640625 -0.71875 1.71875zm7.8046875 4.953125l0 -11.453125l1.40625 0l0 11.453125l-1.40625 0zm3.5859375 -9.84375l0 -1.609375l1.40625 0l0 1.609375l-1.40625 0zm0 9.84375l0 -8.296875l1.40625 0l0 8.296875l-1.40625 0zm3.5546875 0l0 -8.296875l1.265625 0l0 1.171875q0.90625 -1.359375 2.640625 -1.359375q0.75 0 1.375 0.265625q0.625 0.265625 0.9375 0.703125q0.3125 0.4375 0.4375 1.046875q0.078125 0.390625 0.078125 1.359375l0 5.109375l-1.40625 0l0 -5.046875q0 -0.859375 -0.171875 -1.28125q-0.15625 -0.4375 -0.578125 -0.6875q-0.40625 -0.25 -0.96875 -0.25q-0.90625 0 -1.5625 0.578125q-0.640625 0.5625 -0.640625 2.15625l0 4.53125l-1.40625 0zm14.5703125 -2.671875l1.453125 0.171875q-0.34375 1.28125 -1.28125 1.984375q-0.921875 0.703125 -2.359375 0.703125q-1.828125 0 -2.890625 -1.125q-1.0625 -1.125 -1.0625 -3.140625q0 -2.09375 1.078125 -3.25q1.078125 -1.15625 2.796875 -1.15625q1.65625 0 2.703125 1.140625q1.0625 1.125 1.0625 3.171875q0 0.125 0 0.375l-6.1875 0q0.078125 1.375 0.765625 2.109375q0.703125 0.71875 1.734375 0.71875q0.78125 0 1.328125 -0.40625q0.546875 -0.40625 0.859375 -1.296875zm-4.609375 -2.28125l4.625 0q-0.09375 -1.046875 -0.53125 -1.5625q-0.671875 -0.8125 -1.734375 -0.8125q-0.96875 0 -1.640625 0.65625q-0.65625 0.640625 -0.71875 1.71875zm6.5234375 8.140625l0 -1.015625l9.328125 0l0 1.015625l-9.328125 0zm10.2109375 0l0 -11.484375l1.28125 0l0 1.078125q0.453125 -0.640625 1.015625 -0.953125q0.578125 -0.3125 1.390625 -0.3125q1.0625 0 1.875 0.546875q0.8125 0.546875 1.21875 1.546875q0.421875 0.984375 0.421875 2.171875q0 1.28125 -0.46875 2.296875q-0.453125 1.015625 -1.328125 1.5625q-0.859375 0.546875 -1.828125 0.546875q-0.703125 0 -1.265625 -0.296875q-0.546875 -0.296875 -0.90625 -0.75l0 4.046875l-1.40625 0zm1.265625 -7.296875q0 1.609375 0.640625 2.375q0.65625 0.765625 1.578125 0.765625q0.9375 0 1.609375 -0.796875q0.671875 -0.796875 0.671875 -2.453125q0 -1.59375 -0.65625 -2.375q-0.65625 -0.796875 -1.5625 -0.796875q-0.890625 0 -1.59375 0.84375q-0.6875 0.84375 -0.6875 2.4375zm7.6171875 4.109375l0 -8.296875l1.265625 0l0 1.25q0.484375 -0.875 0.890625 -1.15625q0.40625 -0.28125 0.90625 -0.28125q0.703125 0 1.4375 0.453125l-0.484375 1.296875q-0.515625 -0.296875 -1.03125 -0.296875q-0.453125 0 -0.828125 0.28125q-0.359375 0.265625 -0.515625 0.765625q-0.234375 0.75 -0.234375 1.640625l0 4.34375l-1.40625 0zm11.015625 -2.671875l1.453125 0.171875q-0.34375 1.28125 -1.28125 1.984375q-0.921875 0.703125 -2.359375 0.703125q-1.828125 0 -2.890625 -1.125q-1.0625 -1.125 -1.0625 -3.140625q0 -2.09375 1.078125 -3.25q1.078125 -1.15625 2.796875 -1.15625q1.65625 0 2.703125 1.140625q1.0625 1.125 1.0625 3.171875q0 0.125 0 0.375l-6.1875 0q0.078125 1.375 0.765625 2.109375q0.703125 0.71875 1.734375 0.71875q0.78125 0 1.328125 -0.40625q0.546875 -0.40625 0.859375 -1.296875zm-4.609375 -2.28125l4.625 0q-0.09375 -1.046875 -0.53125 -1.5625q-0.671875 -0.8125 -1.734375 -0.8125q-0.96875 0 -1.640625 0.65625q-0.65625 0.640625 -0.71875 1.71875zm7.8359375 8.140625l0 -11.484375l1.28125 0l0 1.078125q0.453125 -0.640625 1.015625 -0.953125q0.578125 -0.3125 1.390625 -0.3125q1.0625 0 1.875 0.546875q0.8125 0.546875 1.21875 1.546875q0.421875 0.984375 0.421875 2.171875q0 1.28125 -0.46875 2.296875q-0.453125 1.015625 -1.328125 1.5625q-0.859375 0.546875 -1.828125 0.546875q-0.703125 0 -1.265625 -0.296875q-0.546875 -0.296875 -0.90625 -0.75l0 4.046875l-1.40625 0zm1.265625 -7.296875q0 1.609375 0.640625 2.375q0.65625 0.765625 1.578125 0.765625q0.9375 0 1.609375 -0.796875q0.671875 -0.796875 0.671875 -2.453125q0 -1.59375 -0.65625 -2.375q-0.65625 -0.796875 -1.5625 -0.796875q-0.890625 0 -1.59375 0.84375q-0.6875 0.84375 -0.6875 2.4375zm7.6171875 4.109375l0 -8.296875l1.265625 0l0 1.25q0.484375 -0.875 0.890625 -1.15625q0.40625 -0.28125 0.90625 -0.28125q0.703125 0 1.4375 0.453125l-0.484375 1.296875q-0.515625 -0.296875 -1.03125 -0.296875q-0.453125 0 -0.828125 0.28125q-0.359375 0.265625 -0.515625 0.765625q-0.234375 0.75 -0.234375 1.640625l0 4.34375l-1.40625 0zm4.8125 -4.15625q0 -2.296875 1.28125 -3.40625q1.078125 -0.921875 2.609375 -0.921875q1.71875 0 2.796875 1.125q1.09375 1.109375 1.09375 3.09375q0 1.59375 -0.484375 2.515625q-0.484375 0.921875 -1.40625 1.4375q-0.90625 0.5 -2.0 0.5q-1.734375 0 -2.8125 -1.109375q-1.078125 -1.125 -1.078125 -3.234375zm1.453125 0q0 1.59375 0.6875 2.390625q0.703125 0.796875 1.75 0.796875q1.046875 0 1.734375 -0.796875q0.703125 -0.796875 0.703125 -2.4375q0 -1.53125 -0.703125 -2.328125q-0.6875 -0.796875 -1.734375 -0.796875q-1.046875 0 -1.75 0.796875q-0.6875 0.78125 -0.6875 2.375zm13.3828125 1.109375l1.390625 0.1875q-0.234375 1.421875 -1.171875 2.234375q-0.921875 0.8125 -2.28125 0.8125q-1.703125 0 -2.75 -1.109375q-1.03125 -1.125 -1.03125 -3.203125q0 -1.34375 0.4375 -2.34375q0.453125 -1.015625 1.359375 -1.515625q0.921875 -0.5 1.984375 -0.5q1.359375 0 2.21875 0.6875q0.859375 0.671875 1.09375 1.9375l-1.359375 0.203125q-0.203125 -0.828125 -0.703125 -1.25q-0.484375 -0.421875 -1.1875 -0.421875q-1.0625 0 -1.734375 0.765625q-0.65625 0.75 -0.65625 2.40625q0 1.671875 0.640625 2.4375q0.640625 0.75 1.671875 0.75q0.828125 0 1.375 -0.5q0.5625 -0.515625 0.703125 -1.578125zm8.265625 0.375l1.453125 0.171875q-0.34375 1.28125 -1.28125 1.984375q-0.921875 0.703125 -2.359375 0.703125q-1.828125 0 -2.890625 -1.125q-1.0625 -1.125 -1.0625 -3.140625q0 -2.09375 1.078125 -3.25q1.078125 -1.15625 2.796875 -1.15625q1.65625 0 2.703125 1.140625q1.0625 1.125 1.0625 3.171875q0 0.125 0 0.375l-6.1875 0q0.078125 1.375 0.765625 2.109375q0.703125 0.71875 1.734375 0.71875q0.78125 0 1.328125 -0.40625q0.546875 -0.40625 0.859375 -1.296875zm-4.609375 -2.28125l4.625 0q-0.09375 -1.046875 -0.53125 -1.5625q-0.671875 -0.8125 -1.734375 -0.8125q-0.96875 0 -1.640625 0.65625q-0.65625 0.640625 -0.71875 1.71875zm7.2734375 2.46875l1.390625 -0.21875q0.109375 0.84375 0.640625 1.296875q0.546875 0.4375 1.5 0.4375q0.96875 0 1.4375 -0.390625q0.46875 -0.40625 0.46875 -0.9375q0 -0.46875 -0.40625 -0.75q-0.296875 -0.1875 -1.4375 -0.46875q-1.546875 -0.390625 -2.15625 -0.671875q-0.59375 -0.296875 -0.90625 -0.796875q-0.296875 -0.5 -0.296875 -1.109375q0 -0.5625 0.25 -1.03125q0.25 -0.46875 0.6875 -0.78125q0.328125 -0.25 0.890625 -0.40625q0.578125 -0.171875 1.21875 -0.171875q0.984375 0 1.71875 0.28125q0.734375 0.28125 1.078125 0.765625q0.359375 0.46875 0.5 1.28125l-1.375 0.1875q-0.09375 -0.640625 -0.546875 -1.0q-0.453125 -0.359375 -1.265625 -0.359375q-0.96875 0 -1.390625 0.328125q-0.40625 0.3125 -0.40625 0.734375q0 0.28125 0.171875 0.5q0.171875 0.21875 0.53125 0.375q0.21875 0.078125 1.25 0.359375q1.484375 0.390625 2.078125 0.65625q0.59375 0.25 0.921875 0.734375q0.34375 0.484375 0.34375 1.203125q0 0.703125 -0.421875 1.328125q-0.40625 0.609375 -1.1875 0.953125q-0.765625 0.34375 -1.734375 0.34375q-1.625 0 -2.46875 -0.671875q-0.84375 -0.671875 -1.078125 -2.0zm8.0 0l1.390625 -0.21875q0.109375 0.84375 0.640625 1.296875q0.546875 0.4375 1.5 0.4375q0.96875 0 1.4375 -0.390625q0.46875 -0.40625 0.46875 -0.9375q0 -0.46875 -0.40625 -0.75q-0.296875 -0.1875 -1.4375 -0.46875q-1.546875 -0.390625 -2.15625 -0.671875q-0.59375 -0.296875 -0.90625 -0.796875q-0.296875 -0.5 -0.296875 -1.109375q0 -0.5625 0.25 -1.03125q0.25 -0.46875 0.6875 -0.78125q0.328125 -0.25 0.890625 -0.40625q0.578125 -0.171875 1.21875 -0.171875q0.984375 0 1.71875 0.28125q0.734375 0.28125 1.078125 0.765625q0.359375 0.46875 0.5 1.28125l-1.375 0.1875q-0.09375 -0.640625 -0.546875 -1.0q-0.453125 -0.359375 -1.265625 -0.359375q-0.96875 0 -1.390625 0.328125q-0.40625 0.3125 -0.40625 0.734375q0 0.28125 0.171875 0.5q0.171875 0.21875 0.53125 0.375q0.21875 0.078125 1.25 0.359375q1.484375 0.390625 2.078125 0.65625q0.59375 0.25 0.921875 0.734375q0.34375 0.484375 0.34375 1.203125q0 0.703125 -0.421875 1.328125q-0.40625 0.609375 -1.1875 0.953125q-0.765625 0.34375 -1.734375 0.34375q-1.625 0 -2.46875 -0.671875q-0.84375 -0.671875 -1.078125 -2.0z" fill-rule="nonzero"/><path fill="#000000" fill-opacity="0.0" d="m45.041996 349.12878l37.25984 0.03149414" fill-rule="evenodd"/><path stroke="#08a87d" stroke-width="2.0" stroke-linejoin="round" stroke-linecap="butt" d="m45.041996 349.12878l25.259846 0.021362305" fill-rule="evenodd"/><path fill="#08a87d" stroke="#08a87d" stroke-width="2.0" stroke-linecap="butt" d="m70.29905 352.45358l9.078987 -3.2957764l-9.073402 -3.3111572z" fill-rule="evenodd"/><path fill="#283282" d="m23.08924 132.2874l165.16536 0l0 62.493195l-12.498932 12.498932l-152.66643 0z" fill-rule="evenodd"/><path fill="#1f2767" d="m175.75566 207.27953l2.4997864 -9.9991455l9.9991455 -2.4997864z" fill-rule="evenodd"/><path fill="#000000" fill-opacity="0.0" d="m175.75566 207.27953l2.4997864 -9.9991455l9.9991455 -2.4997864l-12.498932 12.498932l-152.66643 0l0 -74.99213l165.16536 0l0 62.493195" fill-rule="evenodd"/><path fill="#ffffff" d="m61.663998 138.47087l0 -2.203125l2.3750038 0l0 2.203125l-2.3750038 0zm0 10.203125l0 -8.984375l2.3750038 0l0 8.984375l-2.3750038 0zm12.986195 0l-2.375 0l0 -4.578125q0 -1.46875 -0.15625 -1.890625q-0.15625 -0.421875 -0.5 -0.65625q-0.34375 -0.25 -0.828125 -0.25q-0.609375 0 -1.109375 0.34375q-0.484375 0.34375 -0.671875 0.90625q-0.171875 0.546875 -0.171875 2.0625l0 4.0625l-2.375 0l0 -8.984375l2.203125 0l0 1.3125q1.171875 -1.515625 2.953125 -1.515625q0.796875 0 1.4375 0.28125q0.65625 0.28125 0.984375 0.734375q0.34375 0.4375 0.46875 1.0q0.140625 0.546875 0.140625 1.59375l0 5.578125zm2.4128418 -10.203125l0 -2.203125l2.375 0l0 2.203125l-2.375 0zm0 10.203125l0 -8.984375l2.375 0l0 8.984375l-2.375 0zm8.923691 -8.984375l0 1.890625l-1.625 0l0 3.625q0 1.09375 0.046875 1.28125q0.046875 0.1875 0.203125 0.3125q0.171875 0.109375 0.421875 0.109375q0.328125 0 0.953125 -0.234375l0.203125 1.84375q-0.828125 0.359375 -1.875 0.359375q-0.65625 0 -1.171875 -0.21875q-0.515625 -0.21875 -0.765625 -0.546875q-0.234375 -0.34375 -0.3125 -0.9375q-0.078125 -0.40625 -0.078125 -1.671875l0 -3.921875l-1.09375 0l0 -1.890625l1.09375 0l0 -1.78125l2.375 -1.390625l0 3.171875l1.625 0zm1.661026 -1.21875l0 -2.203125l2.375 0l0 2.203125l-2.375 0zm0 10.203125l0 -8.984375l2.375 0l0 8.984375l-2.375 0zm6.579941 -6.25l-2.15625 -0.390625q0.375 -1.296875 1.25 -1.921875q0.890625 -0.625 2.640625 -0.625q1.59375 0 2.375 0.375q0.78125 0.375 1.09375 0.953125q0.3125 0.578125 0.3125 2.125l-0.015625 2.78125q0 1.1875 0.109375 1.75q0.109375 0.5625 0.421875 1.203125l-2.34375 0q-0.09375 -0.234375 -0.234375 -0.703125q-0.0625 -0.203125 -0.078125 -0.28125q-0.609375 0.59375 -1.3125 0.890625q-0.6875 0.296875 -1.46875 0.296875q-1.390625 0 -2.1875 -0.75q-0.796875 -0.75 -0.796875 -1.90625q0 -0.765625 0.359375 -1.359375q0.359375 -0.59375 1.015625 -0.90625q0.65625 -0.328125 1.890625 -0.5625q1.671875 -0.3125 2.3125 -0.578125l0 -0.234375q0 -0.6875 -0.34375 -0.984375q-0.328125 -0.296875 -1.28125 -0.296875q-0.625 0 -0.984375 0.25q-0.359375 0.25 -0.578125 0.875zm3.1875 1.9375q-0.453125 0.15625 -1.453125 0.375q-0.984375 0.203125 -1.296875 0.40625q-0.453125 0.328125 -0.453125 0.828125q0 0.5 0.359375 0.875q0.375 0.359375 0.953125 0.359375q0.640625 0 1.234375 -0.421875q0.421875 -0.328125 0.5625 -0.796875q0.09375 -0.296875 0.09375 -1.15625l0 -0.46875zm4.68396 4.3125l0 -12.40625l2.375 0l0 12.40625l-2.375 0zm3.4080658 3.421875l0 -1.53125l9.875 0l0 1.53125l-9.875 0zm19.27771 -3.421875l-2.203125 0l0 -1.3125q-0.5625 0.765625 -1.3125 1.140625q-0.734375 0.375 -1.5 0.375q-1.546875 0 -2.65625 -1.25q-1.109375 -1.25 -1.109375 -3.484375q0 -2.28125 1.078125 -3.46875q1.078125 -1.1875 2.71875 -1.1875q1.5 0 2.609375 1.25l0 -4.46875l2.375 0l0 12.40625zm-6.34375 -4.6875q0 1.4375 0.390625 2.078125q0.578125 0.9375 1.609375 0.9375q0.828125 0 1.390625 -0.703125q0.578125 -0.703125 0.578125 -2.078125q0 -1.546875 -0.5625 -2.234375q-0.546875 -0.6875 -1.421875 -0.6875q-0.84375 0 -1.421875 0.671875q-0.5625 0.671875 -0.5625 2.015625zm10.459717 -1.5625l-2.15625 -0.390625q0.375 -1.296875 1.25 -1.921875q0.890625 -0.625 2.640625 -0.625q1.59375 0 2.375 0.375q0.78125 0.375 1.09375 0.953125q0.3125 0.578125 0.3125 2.125l-0.015625 2.78125q0 1.1875 0.109375 1.75q0.109375 0.5625 0.421875 1.203125l-2.34375 0q-0.09375 -0.234375 -0.234375 -0.703125q-0.0625 -0.203125 -0.078125 -0.28125q-0.609375 0.59375 -1.3125 0.890625q-0.6875 0.296875 -1.46875 0.296875q-1.390625 0 -2.1875 -0.75q-0.796875 -0.75 -0.796875 -1.90625q0 -0.765625 0.359375 -1.359375q0.359375 -0.59375 1.015625 -0.90625q0.65625 -0.328125 1.890625 -0.5625q1.671875 -0.3125 2.3125 -0.578125l0 -0.234375q0 -0.6875 -0.34375 -0.984375q-0.328125 -0.296875 -1.28125 -0.296875q-0.625 0 -0.984375 0.25q-0.359375 0.25 -0.578125 0.875zm3.1875 1.9375q-0.453125 0.15625 -1.453125 0.375q-0.984375 0.203125 -1.296875 0.40625q-0.453125 0.328125 -0.453125 0.828125q0 0.5 0.359375 0.875q0.375 0.359375 0.953125 0.359375q0.640625 0 1.234375 -0.421875q0.421875 -0.328125 0.5625 -0.796875q0.09375 -0.296875 0.09375 -1.15625l0 -0.46875zm8.793335 -4.671875l0 1.890625l-1.625 0l0 3.625q0 1.09375 0.046875 1.28125q0.046875 0.1875 0.203125 0.3125q0.171875 0.109375 0.421875 0.109375q0.328125 0 0.953125 -0.234375l0.203125 1.84375q-0.828125 0.359375 -1.875 0.359375q-0.65625 0 -1.171875 -0.21875q-0.515625 -0.21875 -0.765625 -0.546875q-0.234375 -0.34375 -0.3125 -0.9375q-0.078125 -0.40625 -0.078125 -1.671875l0 -3.921875l-1.09375 0l0 -1.890625l1.09375 0l0 -1.78125l2.375 -1.390625l0 3.171875l1.625 0zm3.426651 2.734375l-2.15625 -0.390625q0.375 -1.296875 1.25 -1.921875q0.890625 -0.625 2.640625 -0.625q1.59375 0 2.375 0.375q0.78125 0.375 1.09375 0.953125q0.3125 0.578125 0.3125 2.125l-0.015625 2.78125q0 1.1875 0.109375 1.75q0.109375 0.5625 0.421875 1.203125l-2.34375 0q-0.09375 -0.234375 -0.234375 -0.703125q-0.0625 -0.203125 -0.078125 -0.28125q-0.609375 0.59375 -1.3125 0.890625q-0.6875 0.296875 -1.46875 0.296875q-1.390625 0 -2.1875 -0.75q-0.796875 -0.75 -0.796875 -1.90625q0 -0.765625 0.359375 -1.359375q0.359375 -0.59375 1.015625 -0.90625q0.65625 -0.328125 1.890625 -0.5625q1.671875 -0.3125 2.3125 -0.578125l0 -0.234375q0 -0.6875 -0.34375 -0.984375q-0.328125 -0.296875 -1.28125 -0.296875q-0.625 0 -0.984375 0.25q-0.359375 0.25 -0.578125 0.875zm3.1875 1.9375q-0.453125 0.15625 -1.453125 0.375q-0.984375 0.203125 -1.296875 0.40625q-0.453125 0.328125 -0.453125 0.828125q0 0.5 0.359375 0.875q0.375 0.359375 0.953125 0.359375q0.640625 0 1.234375 -0.421875q0.421875 -0.328125 0.5625 -0.796875q0.09375 -0.296875 0.09375 -1.15625l0 -0.46875z" fill-rule="nonzero"/><path fill="#d9d9d9" d="m85.74641 165.1115l0 -2.09375l5.390625 0l0 4.953125q-0.78125 0.75 -2.28125 1.34375q-1.484375 0.578125 -3.015625 0.578125q-1.953125 0 -3.40625 -0.8125q-1.4375 -0.828125 -2.171875 -2.34375q-0.71875 -1.515625 -0.71875 -3.3125q0 -1.9375 0.8125 -3.4375q0.8125 -1.5 2.375 -2.3125q1.203125 -0.609375 2.96875 -0.609375q2.3125 0 3.609375 0.96875q1.296875 0.96875 1.671875 2.671875l-2.484375 0.46875q-0.265625 -0.921875 -0.984375 -1.4375q-0.71875 -0.53125 -1.8125 -0.53125q-1.640625 0 -2.609375 1.046875q-0.96875 1.03125 -0.96875 3.078125q0 2.203125 0.984375 3.3125q0.984375 1.109375 2.578125 1.109375q0.78125 0 1.5625 -0.3125q0.796875 -0.3125 1.375 -0.75l0 -1.578125l-2.875 0zm7.6971283 4.5625l0 -12.40625l2.375 0l0 12.40625l-2.375 0zm4.251816 -4.625q0 -1.171875 0.578125 -2.28125q0.59375 -1.109375 1.65625 -1.6875q1.078125 -0.59375 2.40625 -0.59375q2.03125 0 3.328125 1.328125q1.3125 1.3125 1.3125 3.34375q0 2.03125 -1.328125 3.375q-1.3125 1.34375 -3.296875 1.34375q-1.234375 0 -2.359375 -0.546875q-1.125 -0.5625 -1.71875 -1.640625q-0.578125 -1.09375 -0.578125 -2.640625zm2.4375 0.125q0 1.34375 0.640625 2.0625q0.640625 0.703125 1.5625 0.703125q0.9375 0 1.5625 -0.703125q0.625 -0.71875 0.625 -2.078125q0 -1.3125 -0.625 -2.015625q-0.625 -0.71875 -1.5625 -0.71875q-0.921875 0 -1.5625 0.71875q-0.640625 0.703125 -0.640625 2.03125zm8.600342 4.5l0 -12.40625l2.375 0l0 4.46875q1.109375 -1.25 2.609375 -1.25q1.640625 0 2.71875 1.1875q1.078125 1.1875 1.078125 3.421875q0 2.296875 -1.109375 3.546875q-1.09375 1.234375 -2.65625 1.234375q-0.765625 0 -1.515625 -0.375q-0.75 -0.390625 -1.296875 -1.140625l0 1.3125l-2.203125 0zm2.359375 -4.6875q0 1.390625 0.4375 2.0625q0.625 0.953125 1.640625 0.953125q0.796875 0 1.34375 -0.671875q0.5625 -0.671875 0.5625 -2.125q0 -1.53125 -0.5625 -2.21875q-0.5625 -0.6875 -1.4375 -0.6875q-0.84375 0 -1.421875 0.671875q-0.5625 0.65625 -0.5625 2.015625zm10.100342 -1.5625l-2.15625 -0.390625q0.375 -1.296875 1.25 -1.921875q0.890625 -0.625 2.640625 -0.625q1.59375 0 2.375 0.375q0.78125 0.375 1.09375 0.953125q0.3125 0.578125 0.3125 2.125l-0.015625 2.78125q0 1.1875 0.109375 1.75q0.109375 0.5625 0.421875 1.203125l-2.34375 0q-0.09375 -0.234375 -0.234375 -0.703125q-0.0625 -0.203125 -0.078125 -0.28125q-0.609375 0.59375 -1.3125 0.890625q-0.6875 0.296875 -1.46875 0.296875q-1.390625 0 -2.1875 -0.75q-0.796875 -0.75 -0.796875 -1.90625q0 -0.765625 0.359375 -1.359375q0.359375 -0.59375 1.015625 -0.90625q0.65625 -0.328125 1.890625 -0.5625q1.671875 -0.3125 2.3125 -0.578125l0 -0.234375q0 -0.6875 -0.34375 -0.984375q-0.328125 -0.296875 -1.28125 -0.296875q-0.625 0 -0.984375 0.25q-0.359375 0.25 -0.578125 0.875zm3.1875 1.9375q-0.453125 0.15625 -1.453125 0.375q-0.984375 0.203125 -1.296875 0.40625q-0.453125 0.328125 -0.453125 0.828125q0 0.5 0.359375 0.875q0.375 0.359375 0.953125 0.359375q0.640625 0 1.234375 -0.421875q0.421875 -0.328125 0.5625 -0.796875q0.09375 -0.296875 0.09375 -1.15625l0 -0.46875zm4.6839523 4.3125l0 -12.40625l2.375 0l0 12.40625l-2.375 0z" fill-rule="nonzero"/><path fill="#d9d9d9" d="m97.06041 186.1115l2.421875 0.765625q-0.5625 2.03125 -1.859375 3.03125q-1.296875 0.984375 -3.296875 0.984375q-2.46875 0 -4.0625 -1.6875q-1.578125 -1.703125 -1.578125 -4.625q0 -3.09375 1.59375 -4.796875q1.59375 -1.71875 4.203125 -1.71875q2.28125 0 3.703125 1.34375q0.84375 0.796875 1.265625 2.28125l-2.484375 0.59375q-0.21875 -0.96875 -0.921875 -1.515625q-0.6875 -0.5625 -1.6875 -0.5625q-1.375 0 -2.234375 0.984375q-0.859375 0.984375 -0.859375 3.203125q0 2.359375 0.84375 3.359375q0.84375 1.0 2.203125 1.0q1.0 0 1.71875 -0.640625q0.71875 -0.640625 1.03125 -2.0zm3.9356995 0.53125l2.4375 -0.234375q0.21875 1.21875 0.890625 1.796875q0.671875 0.578125 1.8125 0.578125q1.21875 0 1.828125 -0.515625q0.609375 -0.515625 0.609375 -1.203125q0 -0.4375 -0.265625 -0.734375q-0.25 -0.3125 -0.890625 -0.546875q-0.4375 -0.15625 -2.0 -0.546875q-2.015625 -0.5 -2.828125 -1.21875q-1.140625 -1.03125 -1.140625 -2.5q0 -0.953125 0.53125 -1.765625q0.546875 -0.828125 1.546875 -1.25q1.015625 -0.4375 2.4375 -0.4375q2.34375 0 3.515625 1.03125q1.1875 1.015625 1.25 2.71875l-2.5 0.109375q-0.171875 -0.953125 -0.703125 -1.375q-0.515625 -0.421875 -1.578125 -0.421875q-1.09375 0 -1.71875 0.453125q-0.390625 0.28125 -0.390625 0.765625q0 0.4375 0.375 0.75q0.46875 0.40625 2.296875 0.84375q1.828125 0.421875 2.703125 0.890625q0.875 0.453125 1.375 1.265625q0.5 0.796875 0.5 1.96875q0 1.0625 -0.59375 2.0q-0.59375 0.921875 -1.6875 1.375q-1.078125 0.453125 -2.6875 0.453125q-2.359375 0 -3.625 -1.078125q-1.25 -1.09375 -1.5 -3.171875zm15.354599 4.03125l-4.4375 -12.40625l2.71875 0l3.140625 9.1875l3.046875 -9.1875l2.65625 0l-4.453125 12.40625l-2.671875 0z" fill-rule="nonzero"/><path fill="#283282" d="m220.55643 248.33727l165.16534 0l0 53.858047l-10.771851 10.771881l-154.3935 0z" fill-rule="evenodd"/><path fill="#1f2767" d="m374.94992 312.9672l2.154358 -8.617493l8.617493 -2.1543884z" fill-rule="evenodd"/><path fill="#000000" fill-opacity="0.0" d="m374.94992 312.9672l2.154358 -8.617493l8.617493 -2.1543884l-10.771851 10.771881l-154.3935 0l0 -64.62993l165.16534 0l0 53.858047" fill-rule="evenodd"/><path fill="#ffffff" d="m291.43713 270.90628l-2.203125 0l0 -1.3125q-0.5625 0.765625 -1.3125 1.140625q-0.734375 0.375 -1.5 0.375q-1.546875 0 -2.65625 -1.25q-1.109375 -1.25 -1.109375 -3.484375q0 -2.28125 1.078125 -3.46875q1.078125 -1.1875 2.71875 -1.1875q1.5 0 2.609375 1.25l0 -4.46875l2.375 0l0 12.40625zm-6.34375 -4.6875q0 1.4375 0.390625 2.078125q0.578125 0.9375 1.609375 0.9375q0.828125 0 1.390625 -0.703125q0.578125 -0.703125 0.578125 -2.078125q0 -1.546875 -0.5625 -2.234375q-0.546875 -0.6875 -1.421875 -0.6875q-0.84375 0 -1.421875 0.671875q-0.5625 0.671875 -0.5625 2.015625zm10.459717 -1.5625l-2.15625 -0.390625q0.375 -1.296875 1.25 -1.921875q0.890625 -0.625 2.640625 -0.625q1.59375 0 2.375 0.375q0.78125 0.375 1.09375 0.953125q0.3125 0.578125 0.3125 2.125l-0.015625 2.78125q0 1.1875 0.109375 1.75q0.109375 0.5625 0.421875 1.203125l-2.34375 0q-0.09375 -0.234375 -0.234375 -0.703125q-0.0625 -0.203125 -0.078125 -0.28125q-0.609375 0.59375 -1.3125 0.890625q-0.6875 0.296875 -1.46875 0.296875q-1.390625 0 -2.1875 -0.75q-0.796875 -0.75 -0.796875 -1.90625q0 -0.765625 0.359375 -1.359375q0.359375 -0.59375 1.015625 -0.90625q0.65625 -0.328125 1.890625 -0.5625q1.671875 -0.3125 2.3125 -0.578125l0 -0.234375q0 -0.6875 -0.34375 -0.984375q-0.328125 -0.296875 -1.28125 -0.296875q-0.625 0 -0.984375 0.25q-0.359375 0.25 -0.578125 0.875zm3.1875 1.9375q-0.453125 0.15625 -1.453125 0.375q-0.984375 0.203125 -1.296875 0.40625q-0.453125 0.328125 -0.453125 0.828125q0 0.5 0.359375 0.875q0.375 0.359375 0.953125 0.359375q0.640625 0 1.234375 -0.421875q0.421875 -0.328125 0.5625 -0.796875q0.09375 -0.296875 0.09375 -1.15625l0 -0.46875zm8.793335 -4.671875l0 1.890625l-1.625 0l0 3.625q0 1.09375 0.046875 1.28125q0.046875 0.1875 0.203125 0.3125q0.171875 0.109375 0.421875 0.109375q0.328125 0 0.953125 -0.234375l0.203125 1.84375q-0.828125 0.359375 -1.875 0.359375q-0.65625 0 -1.171875 -0.21875q-0.515625 -0.21875 -0.765625 -0.546875q-0.234375 -0.34375 -0.3125 -0.9375q-0.078125 -0.40625 -0.078125 -1.671875l0 -3.921875l-1.09375 0l0 -1.890625l1.09375 0l0 -1.78125l2.375 -1.390625l0 3.171875l1.625 0zm6.8641357 6.125l2.359375 0.390625q-0.453125 1.3125 -1.4375 2.0q-0.984375 0.671875 -2.46875 0.671875q-2.34375 0 -3.46875 -1.53125q-0.890625 -1.234375 -0.890625 -3.09375q0 -2.234375 1.171875 -3.5q1.171875 -1.265625 2.953125 -1.265625q2.0 0 3.15625 1.328125q1.171875 1.3125 1.109375 4.046875l-5.953125 0q0.03125 1.0625 0.578125 1.65625q0.546875 0.578125 1.375 0.578125q0.546875 0 0.921875 -0.296875q0.390625 -0.3125 0.59375 -0.984375zm0.125 -2.40625q-0.015625 -1.03125 -0.53125 -1.5625q-0.5 -0.546875 -1.234375 -0.546875q-0.78125 0 -1.28125 0.578125q-0.515625 0.5625 -0.5 1.53125l3.546875 0zm5.137085 -1.4375l-1.28125 -0.984375q0.609375 -0.6875 1.265625 -1.3125q0.265625 -0.25 0.328125 -0.328125q-0.203125 -0.03125 -1.203125 -0.28125q-0.71875 -0.171875 -0.953125 -0.25l0.5 -1.5q1.109375 0.453125 1.984375 1.0q-0.203125 -1.390625 -0.203125 -2.25l1.5 0q0 0.609375 -0.21875 2.265625q0.15625 -0.078125 0.71875 -0.328125q0.765625 -0.359375 1.40625 -0.59375l0.453125 1.53125q-0.9375 0.203125 -2.171875 0.40625l1.015625 1.140625q0.296875 0.359375 0.46875 0.578125l-1.28125 0.84375l-1.15625 -1.875q-0.515625 0.90625 -1.171875 1.9375z" fill-rule="nonzero"/><path fill="#d9d9d9" d="m267.16605 287.87503l2.4375 -0.234375q0.21875 1.21875 0.890625 1.796875q0.671875 0.578125 1.8125 0.578125q1.21875 0 1.828125 -0.515625q0.609375 -0.515625 0.609375 -1.203125q0 -0.4375 -0.265625 -0.734375q-0.25 -0.3125 -0.890625 -0.546875q-0.4375 -0.15625 -2.0 -0.546875q-2.015625 -0.5 -2.828125 -1.21875q-1.140625 -1.03125 -1.140625 -2.5q0 -0.953125 0.53125 -1.765625q0.546875 -0.828125 1.546875 -1.25q1.015625 -0.4375 2.4375 -0.4375q2.34375 0 3.515625 1.03125q1.1875 1.015625 1.25 2.71875l-2.5 0.109375q-0.171875 -0.953125 -0.703125 -1.375q-0.515625 -0.421875 -1.578125 -0.421875q-1.09375 0 -1.71875 0.453125q-0.390625 0.28125 -0.390625 0.765625q0 0.4375 0.375 0.75q0.46875 0.40625 2.296875 0.84375q1.828125 0.421875 2.703125 0.890625q0.875 0.453125 1.375 1.265625q0.5 0.796875 0.5 1.96875q0 1.0625 -0.59375 2.0q-0.59375 0.921875 -1.6875 1.375q-1.078125 0.453125 -2.6875 0.453125q-2.359375 0 -3.625 -1.078125q-1.25 -1.09375 -1.5 -3.171875zm20.010834 -2.296875l-2.34375 0.421875q-0.125 -0.703125 -0.546875 -1.046875q-0.40625 -0.359375 -1.078125 -0.359375q-0.890625 0 -1.421875 0.609375q-0.515625 0.609375 -0.515625 2.046875q0 1.609375 0.53125 2.265625q0.53125 0.65625 1.4375 0.65625q0.6875 0 1.109375 -0.375q0.4375 -0.390625 0.609375 -1.328125l2.34375 0.390625q-0.375 1.609375 -1.40625 2.4375q-1.03125 0.8125 -2.765625 0.8125q-1.96875 0 -3.140625 -1.234375q-1.171875 -1.25 -1.171875 -3.453125q0 -2.21875 1.171875 -3.453125q1.1875 -1.25 3.1875 -1.25q1.640625 0 2.609375 0.703125q0.96875 0.703125 1.390625 2.15625zm7.012085 3.46875l2.359375 0.390625q-0.453125 1.3125 -1.4375 2.0q-0.984375 0.671875 -2.46875 0.671875q-2.34375 0 -3.46875 -1.53125q-0.890625 -1.234375 -0.890625 -3.09375q0 -2.234375 1.171875 -3.5q1.171875 -1.265625 2.953125 -1.265625q2.0 0 3.15625 1.328125q1.171875 1.3125 1.109375 4.046875l-5.953125 0q0.03125 1.0625 0.578125 1.65625q0.546875 0.578125 1.375 0.578125q0.546875 0 0.921875 -0.296875q0.390625 -0.3125 0.59375 -0.984375zm0.125 -2.40625q-0.015625 -1.03125 -0.53125 -1.5625q-0.5 -0.546875 -1.234375 -0.546875q-0.78125 0 -1.28125 0.578125q-0.515625 0.5625 -0.5 1.53125l3.546875 0zm12.480835 5.265625l-2.375 0l0 -4.578125q0 -1.46875 -0.15625 -1.890625q-0.15625 -0.421875 -0.5 -0.65625q-0.34375 -0.25 -0.828125 -0.25q-0.609375 0 -1.109375 0.34375q-0.484375 0.34375 -0.671875 0.90625q-0.171875 0.546875 -0.171875 2.0625l0 4.0625l-2.375 0l0 -8.984375l2.203125 0l0 1.3125q1.171875 -1.515625 2.953125 -1.515625q0.796875 0 1.4375 0.28125q0.65625 0.28125 0.984375 0.734375q0.34375 0.4375 0.46875 1.0q0.140625 0.546875 0.140625 1.59375l0 5.578125zm4.178467 -6.25l-2.15625 -0.390625q0.375 -1.296875 1.25 -1.921875q0.890625 -0.625 2.640625 -0.625q1.59375 0 2.375 0.375q0.78125 0.375 1.09375 0.953125q0.3125 0.578125 0.3125 2.125l-0.015625 2.78125q0 1.1875 0.109375 1.75q0.109375 0.5625 0.421875 1.203125l-2.34375 0q-0.09375 -0.234375 -0.234375 -0.703125q-0.0625 -0.203125 -0.078125 -0.28125q-0.609375 0.59375 -1.3125 0.890625q-0.6875 0.296875 -1.46875 0.296875q-1.390625 0 -2.1875 -0.75q-0.796875 -0.75 -0.796875 -1.90625q0 -0.765625 0.359375 -1.359375q0.359375 -0.59375 1.015625 -0.90625q0.65625 -0.328125 1.890625 -0.5625q1.671875 -0.3125 2.3125 -0.578125l0 -0.234375q0 -0.6875 -0.34375 -0.984375q-0.328125 -0.296875 -1.28125 -0.296875q-0.625 0 -0.984375 0.25q-0.359375 0.25 -0.578125 0.875zm3.1875 1.9375q-0.453125 0.15625 -1.453125 0.375q-0.984375 0.203125 -1.296875 0.40625q-0.453125 0.328125 -0.453125 0.828125q0 0.5 0.359375 0.875q0.375 0.359375 0.953125 0.359375q0.640625 0 1.234375 -0.421875q0.421875 -0.328125 0.5625 -0.796875q0.09375 -0.296875 0.09375 -1.15625l0 -0.46875zm6.949585 4.3125l-2.375 0l0 -8.984375l2.203125 0l0 1.28125q0.578125 -0.90625 1.03125 -1.1875q0.453125 -0.296875 1.015625 -0.296875q0.8125 0 1.578125 0.453125l-0.734375 2.0625q-0.609375 -0.390625 -1.125 -0.390625q-0.5 0 -0.84375 0.28125q-0.34375 0.28125 -0.546875 1.0q-0.203125 0.71875 -0.203125 3.0l0 2.78125zm4.4778137 -10.203125l0 -2.203125l2.375 0l0 2.203125l-2.375 0zm0 10.203125l0 -8.984375l2.375 0l0 8.984375l-2.375 0zm4.2518005 -4.625q0 -1.171875 0.578125 -2.28125q0.59375 -1.109375 1.65625 -1.6875q1.078125 -0.59375 2.40625 -0.59375q2.03125 0 3.328125 1.328125q1.3125 1.3125 1.3125 3.34375q0 2.03125 -1.328125 3.375q-1.3125 1.34375 -3.296875 1.34375q-1.234375 0 -2.359375 -0.546875q-1.125 -0.5625 -1.71875 -1.640625q-0.578125 -1.09375 -0.578125 -2.640625zm2.4375 0.125q0 1.34375 0.640625 2.0625q0.640625 0.703125 1.5625 0.703125q0.9375 0 1.5625 -0.703125q0.625 -0.71875 0.625 -2.078125q0 -1.3125 -0.625 -2.015625q-0.625 -0.71875 -1.5625 -0.71875q-0.921875 0 -1.5625 0.71875q-0.640625 0.703125 -0.640625 2.03125z" fill-rule="nonzero"/><path fill="#283282" d="m405.9449 6.4278216l152.72443 0l0 62.49319l-12.498962 12.498932l-140.22546 0z" fill-rule="evenodd"/><path fill="#1f2767" d="m546.17035 81.419945l2.499817 -9.9991455l9.9991455 -2.4997864z" fill-rule="evenodd"/><path fill="#000000" fill-opacity="0.0" d="m546.17035 81.419945l2.499817 -9.9991455l9.9991455 -2.4997864l-12.498962 12.498932l-140.22546 0l0 -74.99213l152.72443 0l0 62.49319" fill-rule="evenodd"/><path fill="#ffffff" d="m442.06662 24.33004l1.3125 0l0 -0.671875q0 -1.140625 0.234375 -1.6875q0.25 -0.5625 0.890625 -0.90625q0.65625 -0.359375 1.65625 -0.359375q1.015625 0 1.984375 0.296875l-0.328125 1.65625q-0.5625 -0.125 -1.09375 -0.125q-0.515625 0 -0.734375 0.234375q-0.21875 0.234375 -0.21875 0.921875l0 0.640625l1.765625 0l0 1.875l-1.765625 0l0 7.109375l-2.390625 0l0 -7.109375l-1.3125 0l0 -1.875zm6.8172607 -1.21875l0 -2.203125l2.375 0l0 2.203125l-2.375 0zm0 10.203125l0 -8.984375l2.375 0l0 8.984375l-2.375 0zm12.986206 0l-2.375 0l0 -4.578125q0 -1.46875 -0.15625 -1.890625q-0.15625 -0.421875 -0.5 -0.65625q-0.34375 -0.25 -0.828125 -0.25q-0.609375 0 -1.109375 0.34375q-0.484375 0.34375 -0.671875 0.90625q-0.171875 0.546875 -0.171875 2.0625l0 4.0625l-2.375 0l0 -8.984375l2.203125 0l0 1.3125q1.171875 -1.515625 2.953125 -1.515625q0.796875 0 1.4375 0.28125q0.65625 0.28125 0.984375 0.734375q0.34375 0.4375 0.46875 1.0q0.140625 0.546875 0.140625 1.59375l0 5.578125zm4.178467 -6.25l-2.15625 -0.390625q0.375 -1.296875 1.25 -1.921875q0.890625 -0.625 2.640625 -0.625q1.59375 0 2.375 0.375q0.78125 0.375 1.09375 0.953125q0.3125 0.578125 0.3125 2.125l-0.015625 2.78125q0 1.1875 0.109375 1.75q0.109375 0.5625 0.421875 1.203125l-2.34375 0q-0.09375 -0.234375 -0.234375 -0.703125q-0.0625 -0.203125 -0.078125 -0.28125q-0.609375 0.59375 -1.3125 0.890625q-0.6875 0.296875 -1.46875 0.296875q-1.390625 0 -2.1875 -0.75q-0.796875 -0.75 -0.796875 -1.90625q0 -0.765625 0.359375 -1.359375q0.359375 -0.59375 1.015625 -0.90625q0.65625 -0.328125 1.890625 -0.5625q1.671875 -0.3125 2.3125 -0.578125l0 -0.234375q0 -0.6875 -0.34375 -0.984375q-0.328125 -0.296875 -1.28125 -0.296875q-0.625 0 -0.984375 0.25q-0.359375 0.25 -0.578125 0.875zm3.1875 1.9375q-0.453125 0.15625 -1.453125 0.375q-0.984375 0.203125 -1.296875 0.40625q-0.453125 0.328125 -0.453125 0.828125q0 0.5 0.359375 0.875q0.375 0.359375 0.953125 0.359375q0.640625 0 1.234375 -0.421875q0.421875 -0.328125 0.5625 -0.796875q0.09375 -0.296875 0.09375 -1.15625l0 -0.46875zm4.68396 4.3125l0 -12.40625l2.375 0l0 12.40625l-2.375 0zm3.4080505 3.421875l0 -1.53125l9.875 0l0 1.53125l-9.875 0zm19.27771 -3.421875l-2.203125 0l0 -1.3125q-0.5625 0.765625 -1.3125 1.140625q-0.734375 0.375 -1.5 0.375q-1.546875 0 -2.65625 -1.25q-1.109375 -1.25 -1.109375 -3.484375q0 -2.28125 1.078125 -3.46875q1.078125 -1.1875 2.71875 -1.1875q1.5 0 2.609375 1.25l0 -4.46875l2.375 0l0 12.40625zm-6.34375 -4.6875q0 1.4375 0.390625 2.078125q0.578125 0.9375 1.609375 0.9375q0.828125 0 1.390625 -0.703125q0.578125 -0.703125 0.578125 -2.078125q0 -1.546875 -0.5625 -2.234375q-0.546875 -0.6875 -1.421875 -0.6875q-0.84375 0 -1.421875 0.671875q-0.5625 0.671875 -0.5625 2.015625zm10.459717 -1.5625l-2.15625 -0.390625q0.375 -1.296875 1.25 -1.921875q0.890625 -0.625 2.640625 -0.625q1.59375 0 2.375 0.375q0.78125 0.375 1.09375 0.953125q0.3125 0.578125 0.3125 2.125l-0.015625 2.78125q0 1.1875 0.109375 1.75q0.109375 0.5625 0.421875 1.203125l-2.34375 0q-0.09375 -0.234375 -0.234375 -0.703125q-0.0625 -0.203125 -0.078125 -0.28125q-0.609375 0.59375 -1.3125 0.890625q-0.6875 0.296875 -1.46875 0.296875q-1.390625 0 -2.1875 -0.75q-0.796875 -0.75 -0.796875 -1.90625q0 -0.765625 0.359375 -1.359375q0.359375 -0.59375 1.015625 -0.90625q0.65625 -0.328125 1.890625 -0.5625q1.671875 -0.3125 2.3125 -0.578125l0 -0.234375q0 -0.6875 -0.34375 -0.984375q-0.328125 -0.296875 -1.28125 -0.296875q-0.625 0 -0.984375 0.25q-0.359375 0.25 -0.578125 0.875zm3.1875 1.9375q-0.453125 0.15625 -1.453125 0.375q-0.984375 0.203125 -1.296875 0.40625q-0.453125 0.328125 -0.453125 0.828125q0 0.5 0.359375 0.875q0.375 0.359375 0.953125 0.359375q0.640625 0 1.234375 -0.421875q0.421875 -0.328125 0.5625 -0.796875q0.09375 -0.296875 0.09375 -1.15625l0 -0.46875zm8.793335 -4.671875l0 1.890625l-1.625 0l0 3.625q0 1.09375 0.046875 1.28125q0.046875 0.1875 0.203125 0.3125q0.171875 0.109375 0.421875 0.109375q0.328125 0 0.953125 -0.234375l0.203125 1.84375q-0.828125 0.359375 -1.875 0.359375q-0.65625 0 -1.171875 -0.21875q-0.515625 -0.21875 -0.765625 -0.546875q-0.234375 -0.34375 -0.3125 -0.9375q-0.078125 -0.40625 -0.078125 -1.671875l0 -3.921875l-1.09375 0l0 -1.890625l1.09375 0l0 -1.78125l2.375 -1.390625l0 3.171875l1.625 0zm3.4266357 2.734375l-2.15625 -0.390625q0.375 -1.296875 1.25 -1.921875q0.890625 -0.625 2.640625 -0.625q1.59375 0 2.375 0.375q0.78125 0.375 1.09375 0.953125q0.3125 0.578125 0.3125 2.125l-0.015625 2.78125q0 1.1875 0.109375 1.75q0.109375 0.5625 0.421875 1.203125l-2.34375 0q-0.09375 -0.234375 -0.234375 -0.703125q-0.0625 -0.203125 -0.078125 -0.28125q-0.609375 0.59375 -1.3125 0.890625q-0.6875 0.296875 -1.46875 0.296875q-1.390625 0 -2.1875 -0.75q-0.796875 -0.75 -0.796875 -1.90625q0 -0.765625 0.359375 -1.359375q0.359375 -0.59375 1.015625 -0.90625q0.65625 -0.328125 1.890625 -0.5625q1.671875 -0.3125 2.3125 -0.578125l0 -0.234375q0 -0.6875 -0.34375 -0.984375q-0.328125 -0.296875 -1.28125 -0.296875q-0.625 0 -0.984375 0.25q-0.359375 0.25 -0.578125 0.875zm3.1875 1.9375q-0.453125 0.15625 -1.453125 0.375q-0.984375 0.203125 -1.296875 0.40625q-0.453125 0.328125 -0.453125 0.828125q0 0.5 0.359375 0.875q0.375 0.359375 0.953125 0.359375q0.640625 0 1.234375 -0.421875q0.421875 -0.328125 0.5625 -0.796875q0.09375 -0.296875 0.09375 -1.15625l0 -0.46875z" fill-rule="nonzero"/><path fill="#d9d9d9" d="m446.334 50.283165l2.4375 -0.234375q0.21875 1.21875 0.890625 1.796875q0.671875 0.578125 1.8125 0.578125q1.21875 0 1.828125 -0.515625q0.609375 -0.515625 0.609375 -1.203125q0 -0.4375 -0.265625 -0.734375q-0.25 -0.3125 -0.890625 -0.546875q-0.4375 -0.15625 -2.0 -0.546875q-2.015625 -0.5 -2.828125 -1.21875q-1.140625 -1.03125 -1.140625 -2.5q0 -0.953125 0.53125 -1.765625q0.546875 -0.828125 1.546875 -1.25q1.015625 -0.4375 2.4375 -0.4375q2.34375 0 3.515625 1.03125q1.1875 1.015625 1.25 2.71875l-2.5 0.109375q-0.171875 -0.953125 -0.703125 -1.375q-0.515625 -0.421875 -1.578125 -0.421875q-1.09375 0 -1.71875 0.453125q-0.390625 0.28125 -0.390625 0.765625q0 0.4375 0.375 0.75q0.46875 0.40625 2.296875 0.84375q1.828125 0.421875 2.703125 0.890625q0.875 0.453125 1.375 1.265625q0.5 0.796875 0.5 1.96875q0 1.0625 -0.59375 2.0q-0.59375 0.921875 -1.6875 1.375q-1.078125 0.453125 -2.6875 0.453125q-2.359375 0 -3.625 -1.078125q-1.25 -1.09375 -1.5 -3.171875zm20.010834 -2.296875l-2.34375 0.421875q-0.125 -0.703125 -0.546875 -1.046875q-0.40625 -0.359375 -1.078125 -0.359375q-0.890625 0 -1.421875 0.609375q-0.515625 0.609375 -0.515625 2.046875q0 1.609375 0.53125 2.265625q0.53125 0.65625 1.4375 0.65625q0.6875 0 1.109375 -0.375q0.4375 -0.390625 0.609375 -1.328125l2.34375 0.390625q-0.375 1.609375 -1.40625 2.4375q-1.03125 0.8125 -2.765625 0.8125q-1.96875 0 -3.140625 -1.234375q-1.171875 -1.25 -1.171875 -3.453125q0 -2.21875 1.171875 -3.453125q1.1875 -1.25 3.1875 -1.25q1.640625 0 2.609375 0.703125q0.96875 0.703125 1.390625 2.15625zm7.012085 3.46875l2.359375 0.390625q-0.453125 1.3125 -1.4375 2.0q-0.984375 0.671875 -2.46875 0.671875q-2.34375 0 -3.46875 -1.53125q-0.890625 -1.234375 -0.890625 -3.09375q0 -2.234375 1.171875 -3.5q1.171875 -1.265625 2.953125 -1.265625q2.0 0 3.15625 1.328125q1.171875 1.3125 1.109375 4.046875l-5.953125 0q0.03125 1.0625 0.578125 1.65625q0.546875 0.578125 1.375 0.578125q0.546875 0 0.921875 -0.296875q0.390625 -0.3125 0.59375 -0.984375zm0.125 -2.40625q-0.015625 -1.03125 -0.53125 -1.5625q-0.5 -0.546875 -1.234375 -0.546875q-0.78125 0 -1.28125 0.578125q-0.515625 0.5625 -0.5 1.53125l3.546875 0zm12.480835 5.265625l-2.375 0l0 -4.578125q0 -1.46875 -0.15625 -1.890625q-0.15625 -0.421875 -0.5 -0.65625q-0.34375 -0.25 -0.828125 -0.25q-0.609375 0 -1.109375 0.34375q-0.484375 0.34375 -0.671875 0.90625q-0.171875 0.546875 -0.171875 2.0625l0 4.0625l-2.375 0l0 -8.984375l2.203125 0l0 1.3125q1.171875 -1.515625 2.953125 -1.515625q0.796875 0 1.4375 0.28125q0.65625 0.28125 0.984375 0.734375q0.34375 0.4375 0.46875 1.0q0.140625 0.546875 0.140625 1.59375l0 5.578125zm4.178467 -6.25l-2.15625 -0.390625q0.375 -1.296875 1.25 -1.921875q0.890625 -0.625 2.640625 -0.625q1.59375 0 2.375 0.375q0.78125 0.375 1.09375 0.953125q0.3125 0.578125 0.3125 2.125l-0.015625 2.78125q0 1.1875 0.109375 1.75q0.109375 0.5625 0.421875 1.203125l-2.34375 0q-0.09375 -0.234375 -0.234375 -0.703125q-0.0625 -0.203125 -0.078125 -0.28125q-0.609375 0.59375 -1.3125 0.890625q-0.6875 0.296875 -1.46875 0.296875q-1.390625 0 -2.1875 -0.75q-0.796875 -0.75 -0.796875 -1.90625q0 -0.765625 0.359375 -1.359375q0.359375 -0.59375 1.015625 -0.90625q0.65625 -0.328125 1.890625 -0.5625q1.671875 -0.3125 2.3125 -0.578125l0 -0.234375q0 -0.6875 -0.34375 -0.984375q-0.328125 -0.296875 -1.28125 -0.296875q-0.625 0 -0.984375 0.25q-0.359375 0.25 -0.578125 0.875zm3.1875 1.9375q-0.453125 0.15625 -1.453125 0.375q-0.984375 0.203125 -1.296875 0.40625q-0.453125 0.328125 -0.453125 0.828125q0 0.5 0.359375 0.875q0.375 0.359375 0.953125 0.359375q0.640625 0 1.234375 -0.421875q0.421875 -0.328125 0.5625 -0.796875q0.09375 -0.296875 0.09375 -1.15625l0 -0.46875zm6.949585 4.3125l-2.375 0l0 -8.984375l2.203125 0l0 1.28125q0.578125 -0.90625 1.03125 -1.1875q0.453125 -0.296875 1.015625 -0.296875q0.8125 0 1.578125 0.453125l-0.734375 2.0625q-0.609375 -0.390625 -1.125 -0.390625q-0.5 0 -0.84375 0.28125q-0.34375 0.28125 -0.546875 1.0q-0.203125 0.71875 -0.203125 3.0l0 2.78125zm4.4778137 -10.203125l0 -2.203125l2.375 0l0 2.203125l-2.375 0zm0 10.203125l0 -8.984375l2.375 0l0 8.984375l-2.375 0zm4.2518005 -4.625q0 -1.171875 0.578125 -2.28125q0.59375 -1.109375 1.65625 -1.6875q1.078125 -0.59375 2.40625 -0.59375q2.03125 0 3.328125 1.328125q1.3125 1.3125 1.3125 3.34375q0 2.03125 -1.328125 3.375q-1.3125 1.34375 -3.296875 1.34375q-1.234375 0 -2.359375 -0.546875q-1.125 -0.5625 -1.71875 -1.640625q-0.578125 -1.09375 -0.578125 -2.640625zm2.4375 0.125q0 1.34375 0.640625 2.0625q0.640625 0.703125 1.5625 0.703125q0.9375 0 1.5625 -0.703125q0.625 -0.71875 0.625 -2.078125q0 -1.3125 -0.625 -2.015625q-0.625 -0.71875 -1.5625 -0.71875q-0.921875 0 -1.5625 0.71875q-0.640625 0.703125 -0.640625 2.03125z" fill-rule="nonzero"/><path fill="#000000" fill-opacity="0.0" d="m188.2546 169.78346l69.19685 -39.08661" fill-rule="evenodd"/><path stroke="#08a87d" stroke-width="2.0" stroke-linejoin="round" stroke-linecap="butt" d="m188.2546 169.78346l58.748505 -33.184753" fill-rule="evenodd"/><path fill="#08a87d" stroke="#08a87d" stroke-width="2.0" stroke-linecap="butt" d="m248.6278 139.47502l6.277893 -7.3401794l-9.5273285 1.5875549z" fill-rule="evenodd"/><path fill="#ff462b" d="m220.55643 109.654854l82.58267 -42.960625l82.58267 42.960625l-82.58267 42.960625z" fill-rule="evenodd"/><path fill="#000000" d="m264.62878 107.141106l1.875 0l0 1.109375q0.359375 -0.578125 0.984375 -0.921875q0.625 -0.359375 1.375 -0.359375q1.328125 0 2.25 1.03125q0.921875 1.03125 0.921875 2.890625q0 1.90625 -0.9375 2.96875q-0.921875 1.046875 -2.25 1.046875q-0.625 0 -1.140625 -0.25q-0.5 -0.25 -1.078125 -0.859375l0 3.828125l-2.0 0l0 -10.484375zm1.984375 3.671875q0 1.28125 0.5 1.890625q0.515625 0.609375 1.25 0.609375q0.703125 0 1.15625 -0.5625q0.46875 -0.5625 0.46875 -1.84375q0 -1.203125 -0.484375 -1.78125q-0.46875 -0.578125 -1.1875 -0.578125q-0.734375 0 -1.21875 0.578125q-0.484375 0.5625 -0.484375 1.6875zm8.952606 3.921875l-2.015625 0l0 -7.59375l1.859375 0l0 1.078125q0.484375 -0.765625 0.859375 -1.0q0.390625 -0.25 0.875 -0.25q0.6875 0 1.328125 0.375l-0.625 1.75q-0.5 -0.328125 -0.9375 -0.328125q-0.421875 0 -0.71875 0.234375q-0.296875 0.234375 -0.46875 0.84375q-0.15625 0.609375 -0.15625 2.546875l0 2.34375zm8.172394 -2.421875l2.0 0.34375q-0.375 1.09375 -1.21875 1.671875q-0.828125 0.578125 -2.078125 0.578125q-1.984375 0 -2.9375 -1.296875q-0.75 -1.03125 -0.75 -2.625q0 -1.875 0.984375 -2.9375q0.984375 -1.078125 2.5 -1.078125q1.6875 0 2.671875 1.125q0.984375 1.109375 0.9375 3.421875l-5.03125 0q0.015625 0.890625 0.484375 1.390625q0.46875 0.5 1.15625 0.5q0.46875 0 0.78125 -0.25q0.328125 -0.265625 0.5 -0.84375zm0.109375 -2.03125q-0.015625 -0.875 -0.453125 -1.328125q-0.421875 -0.453125 -1.03125 -0.453125q-0.671875 0 -1.09375 0.484375q-0.421875 0.46875 -0.421875 1.296875l3.0 0zm3.5885925 -3.140625l1.875 0l0 1.109375q0.359375 -0.578125 0.984375 -0.921875q0.625 -0.359375 1.375 -0.359375q1.328125 0 2.25 1.03125q0.921875 1.03125 0.921875 2.890625q0 1.90625 -0.9375 2.96875q-0.921875 1.046875 -2.25 1.046875q-0.625 0 -1.140625 -0.25q-0.5 -0.25 -1.078125 -0.859375l0 3.828125l-2.0 0l0 -10.484375zm1.984375 3.671875q0 1.28125 0.5 1.890625q0.515625 0.609375 1.25 0.609375q0.703125 0 1.15625 -0.5625q0.46875 -0.5625 0.46875 -1.84375q0 -1.203125 -0.484375 -1.78125q-0.46875 -0.578125 -1.1875 -0.578125q-0.734375 0 -1.21875 0.578125q-0.484375 0.5625 -0.484375 1.6875zm8.952637 3.921875l-2.015625 0l0 -7.59375l1.859375 0l0 1.078125q0.484375 -0.765625 0.859375 -1.0q0.390625 -0.25 0.875 -0.25q0.6875 0 1.328125 0.375l-0.625 1.75q-0.5 -0.328125 -0.9375 -0.328125q-0.421875 0 -0.71875 0.234375q-0.296875 0.234375 -0.46875 0.84375q-0.15625 0.609375 -0.15625 2.546875l0 2.34375zm3.3129883 -3.90625q0 -1.0 0.484375 -1.9375q0.5 -0.9375 1.40625 -1.421875q0.90625 -0.5 2.015625 -0.5q1.71875 0 2.828125 1.125q1.109375 1.109375 1.109375 2.8125q0 1.734375 -1.125 2.875q-1.109375 1.125 -2.796875 1.125q-1.046875 0 -2.0 -0.46875q-0.9375 -0.46875 -1.4375 -1.375q-0.484375 -0.921875 -0.484375 -2.234375zm2.046875 0.109375q0 1.125 0.53125 1.734375q0.546875 0.59375 1.34375 0.59375q0.78125 0 1.3125 -0.59375q0.53125 -0.609375 0.53125 -1.75q0 -1.125 -0.53125 -1.71875q-0.53125 -0.609375 -1.3125 -0.609375q-0.796875 0 -1.34375 0.609375q-0.53125 0.59375 -0.53125 1.734375zm13.983887 -1.5625l-1.96875 0.359375q-0.109375 -0.59375 -0.46875 -0.890625q-0.34375 -0.296875 -0.90625 -0.296875q-0.75 0 -1.203125 0.515625q-0.453125 0.515625 -0.453125 1.734375q0 1.359375 0.453125 1.921875q0.453125 0.546875 1.21875 0.546875q0.578125 0 0.9375 -0.328125q0.375 -0.328125 0.515625 -1.109375l1.984375 0.328125q-0.3125 1.359375 -1.1875 2.0625q-0.875 0.6875 -2.328125 0.6875q-1.671875 0 -2.671875 -1.046875q-0.984375 -1.0625 -0.984375 -2.921875q0 -1.875 0.984375 -2.921875q1.0 -1.046875 2.703125 -1.046875q1.390625 0 2.203125 0.59375q0.828125 0.59375 1.171875 1.8125zm5.9323425 2.9375l2.0 0.34375q-0.375 1.09375 -1.21875 1.671875q-0.828125 0.578125 -2.078125 0.578125q-1.984375 0 -2.9375 -1.296875q-0.75 -1.03125 -0.75 -2.625q0 -1.875 0.984375 -2.9375q0.984375 -1.078125 2.5 -1.078125q1.6875 0 2.671875 1.125q0.984375 1.109375 0.9375 3.421875l-5.03125 0q0.015625 0.890625 0.484375 1.390625q0.46875 0.5 1.15625 0.5q0.46875 0 0.78125 -0.25q0.328125 -0.265625 0.5 -0.84375zm0.109375 -2.03125q-0.015625 -0.875 -0.453125 -1.328125q-0.421875 -0.453125 -1.03125 -0.453125q-0.671875 0 -1.09375 0.484375q-0.421875 0.46875 -0.421875 1.296875l3.0 0zm2.932373 2.28125l2.015625 -0.296875q0.125 0.578125 0.515625 0.890625q0.40625 0.296875 1.109375 0.296875q0.78125 0 1.171875 -0.28125q0.265625 -0.203125 0.265625 -0.546875q0 -0.21875 -0.140625 -0.375q-0.15625 -0.140625 -0.671875 -0.265625q-2.4375 -0.53125 -3.078125 -0.984375q-0.90625 -0.609375 -0.90625 -1.703125q0 -0.984375 0.78125 -1.65625q0.78125 -0.671875 2.421875 -0.671875q1.546875 0 2.3125 0.515625q0.765625 0.5 1.046875 1.484375l-1.90625 0.359375q-0.109375 -0.453125 -0.453125 -0.6875q-0.34375 -0.234375 -0.96875 -0.234375q-0.796875 0 -1.140625 0.21875q-0.234375 0.15625 -0.234375 0.40625q0 0.21875 0.203125 0.375q0.28125 0.203125 1.875 0.5625q1.609375 0.359375 2.25 0.890625q0.625 0.546875 0.625 1.5q0 1.046875 -0.875 1.796875q-0.859375 0.75 -2.578125 0.75q-1.546875 0 -2.453125 -0.625q-0.90625 -0.640625 -1.1875 -1.71875zm8.151093 0l2.015625 -0.296875q0.125 0.578125 0.515625 0.890625q0.40625 0.296875 1.109375 0.296875q0.78125 0 1.171875 -0.28125q0.265625 -0.203125 0.265625 -0.546875q0 -0.21875 -0.140625 -0.375q-0.15625 -0.140625 -0.671875 -0.265625q-2.4375 -0.53125 -3.078125 -0.984375q-0.90625 -0.609375 -0.90625 -1.703125q0 -0.984375 0.78125 -1.65625q0.78125 -0.671875 2.421875 -0.671875q1.546875 0 2.3125 0.515625q0.765625 0.5 1.046875 1.484375l-1.90625 0.359375q-0.109375 -0.453125 -0.453125 -0.6875q-0.34375 -0.234375 -0.96875 -0.234375q-0.796875 0 -1.140625 0.21875q-0.234375 0.15625 -0.234375 0.40625q0 0.21875 0.203125 0.375q0.28125 0.203125 1.875 0.5625q1.609375 0.359375 2.25 0.890625q0.625 0.546875 0.625 1.5q0 1.046875 -0.875 1.796875q-0.859375 0.75 -2.578125 0.75q-1.546875 0 -2.453125 -0.625q-0.90625 -0.640625 -1.1875 -1.71875z" fill-rule="nonzero"/><path fill="#283282" d="m399.7257 137.47005l165.16534 0l0 53.858063l-10.771851 10.771866l-154.3935 0z" fill-rule="evenodd"/><path fill="#1f2767" d="m554.1192 202.09998l2.154358 -8.617493l8.617493 -2.1543732z" fill-rule="evenodd"/><path fill="#000000" fill-opacity="0.0" d="m554.1192 202.09998l2.154358 -8.617493l8.617493 -2.1543732l-10.771851 10.771866l-154.3935 0l0 -64.62993l165.16534 0l0 53.858063" fill-rule="evenodd"/><path fill="#ffffff" d="m446.2596 151.0547l0 1.890625l-1.625 0l0 3.625q0 1.09375 0.046875 1.28125q0.046875 0.1875 0.203125 0.3125q0.171875 0.109375 0.421875 0.109375q0.328125 0 0.953125 -0.234375l0.203125 1.84375q-0.828125 0.359375 -1.875 0.359375q-0.65625 0 -1.171875 -0.21875q-0.515625 -0.21875 -0.765625 -0.546875q-0.234375 -0.34375 -0.3125 -0.9375q-0.078125 -0.40625 -0.078125 -1.671875l0 -3.921875l-1.09375 0l0 -1.890625l1.09375 0l0 -1.78125l2.375 -1.390625l0 3.171875l1.625 0zm3.9266663 8.984375l-2.375 0l0 -8.984375l2.203125 0l0 1.28125q0.578125 -0.90625 1.03125 -1.1875q0.453125 -0.296875 1.015625 -0.296875q0.8125 0 1.578125 0.453125l-0.734375 2.0625q-0.609375 -0.390625 -1.125 -0.390625q-0.5 0 -0.84375 0.28125q-0.34375 0.28125 -0.546875 1.0q-0.203125 0.71875 -0.203125 3.0l0 2.78125zm6.243408 -6.25l-2.15625 -0.390625q0.375 -1.296875 1.25 -1.921875q0.890625 -0.625 2.640625 -0.625q1.59375 0 2.375 0.375q0.78125 0.375 1.09375 0.953125q0.3125 0.578125 0.3125 2.125l-0.015625 2.78125q0 1.1875 0.109375 1.75q0.109375 0.5625 0.421875 1.203125l-2.34375 0q-0.09375 -0.234375 -0.234375 -0.703125q-0.0625 -0.203125 -0.078125 -0.28125q-0.609375 0.59375 -1.3125 0.890625q-0.6875 0.296875 -1.46875 0.296875q-1.390625 0 -2.1875 -0.75q-0.796875 -0.75 -0.796875 -1.90625q0 -0.765625 0.359375 -1.359375q0.359375 -0.59375 1.015625 -0.90625q0.65625 -0.328125 1.890625 -0.5625q1.671875 -0.3125 2.3125 -0.578125l0 -0.234375q0 -0.6875 -0.34375 -0.984375q-0.328125 -0.296875 -1.28125 -0.296875q-0.625 0 -0.984375 0.25q-0.359375 0.25 -0.578125 0.875zm3.1875 1.9375q-0.453125 0.15625 -1.453125 0.375q-0.984375 0.203125 -1.296875 0.40625q-0.453125 0.328125 -0.453125 0.828125q0 0.5 0.359375 0.875q0.375 0.359375 0.953125 0.359375q0.640625 0 1.234375 -0.421875q0.421875 -0.328125 0.5625 -0.796875q0.09375 -0.296875 0.09375 -1.15625l0 -0.46875zm4.68396 -5.890625l0 -2.203125l2.375 0l0 2.203125l-2.375 0zm0 10.203125l0 -8.984375l2.375 0l0 8.984375l-2.375 0zm12.986206 0l-2.375 0l0 -4.578125q0 -1.46875 -0.15625 -1.890625q-0.15625 -0.421875 -0.5 -0.65625q-0.34375 -0.25 -0.828125 -0.25q-0.609375 0 -1.109375 0.34375q-0.484375 0.34375 -0.671875 0.90625q-0.171875 0.546875 -0.171875 2.0625l0 4.0625l-2.375 0l0 -8.984375l2.203125 0l0 1.3125q1.171875 -1.515625 2.953125 -1.515625q0.796875 0 1.4375 0.28125q0.65625 0.28125 0.984375 0.734375q0.34375 0.4375 0.46875 1.0q0.140625 0.546875 0.140625 1.59375l0 5.578125zm1.0065918 3.421875l0 -1.53125l9.875 0l0 1.53125l-9.875 0zm19.27771 -3.421875l-2.203125 0l0 -1.3125q-0.5625 0.765625 -1.3125 1.140625q-0.734375 0.375 -1.5 0.375q-1.546875 0 -2.65625 -1.25q-1.109375 -1.25 -1.109375 -3.484375q0 -2.28125 1.078125 -3.46875q1.078125 -1.1875 2.71875 -1.1875q1.5 0 2.609375 1.25l0 -4.46875l2.375 0l0 12.40625zm-6.34375 -4.6875q0 1.4375 0.390625 2.078125q0.578125 0.9375 1.609375 0.9375q0.828125 0 1.390625 -0.703125q0.578125 -0.703125 0.578125 -2.078125q0 -1.546875 -0.5625 -2.234375q-0.546875 -0.6875 -1.421875 -0.6875q-0.84375 0 -1.421875 0.671875q-0.5625 0.671875 -0.5625 2.015625zm10.459717 -1.5625l-2.15625 -0.390625q0.375 -1.296875 1.25 -1.921875q0.890625 -0.625 2.640625 -0.625q1.59375 0 2.375 0.375q0.78125 0.375 1.09375 0.953125q0.3125 0.578125 0.3125 2.125l-0.015625 2.78125q0 1.1875 0.109375 1.75q0.109375 0.5625 0.421875 1.203125l-2.34375 0q-0.09375 -0.234375 -0.234375 -0.703125q-0.0625 -0.203125 -0.078125 -0.28125q-0.609375 0.59375 -1.3125 0.890625q-0.6875 0.296875 -1.46875 0.296875q-1.390625 0 -2.1875 -0.75q-0.796875 -0.75 -0.796875 -1.90625q0 -0.765625 0.359375 -1.359375q0.359375 -0.59375 1.015625 -0.90625q0.65625 -0.328125 1.890625 -0.5625q1.671875 -0.3125 2.3125 -0.578125l0 -0.234375q0 -0.6875 -0.34375 -0.984375q-0.328125 -0.296875 -1.28125 -0.296875q-0.625 0 -0.984375 0.25q-0.359375 0.25 -0.578125 0.875zm3.1875 1.9375q-0.453125 0.15625 -1.453125 0.375q-0.984375 0.203125 -1.296875 0.40625q-0.453125 0.328125 -0.453125 0.828125q0 0.5 0.359375 0.875q0.375 0.359375 0.953125 0.359375q0.640625 0 1.234375 -0.421875q0.421875 -0.328125 0.5625 -0.796875q0.09375 -0.296875 0.09375 -1.15625l0 -0.46875zm8.793335 -4.671875l0 1.890625l-1.625 0l0 3.625q0 1.09375 0.046875 1.28125q0.046875 0.1875 0.203125 0.3125q0.171875 0.109375 0.421875 0.109375q0.328125 0 0.953125 -0.234375l0.203125 1.84375q-0.828125 0.359375 -1.875 0.359375q-0.65625 0 -1.171875 -0.21875q-0.515625 -0.21875 -0.765625 -0.546875q-0.234375 -0.34375 -0.3125 -0.9375q-0.078125 -0.40625 -0.078125 -1.671875l0 -3.921875l-1.09375 0l0 -1.890625l1.09375 0l0 -1.78125l2.375 -1.390625l0 3.171875l1.625 0zm3.4266357 2.734375l-2.15625 -0.390625q0.375 -1.296875 1.25 -1.921875q0.890625 -0.625 2.640625 -0.625q1.59375 0 2.375 0.375q0.78125 0.375 1.09375 0.953125q0.3125 0.578125 0.3125 2.125l-0.015625 2.78125q0 1.1875 0.109375 1.75q0.109375 0.5625 0.421875 1.203125l-2.34375 0q-0.09375 -0.234375 -0.234375 -0.703125q-0.0625 -0.203125 -0.078125 -0.28125q-0.609375 0.59375 -1.3125 0.890625q-0.6875 0.296875 -1.46875 0.296875q-1.390625 0 -2.1875 -0.75q-0.796875 -0.75 -0.796875 -1.90625q0 -0.765625 0.359375 -1.359375q0.359375 -0.59375 1.015625 -0.90625q0.65625 -0.328125 1.890625 -0.5625q1.671875 -0.3125 2.3125 -0.578125l0 -0.234375q0 -0.6875 -0.34375 -0.984375q-0.328125 -0.296875 -1.28125 -0.296875q-0.625 0 -0.984375 0.25q-0.359375 0.25 -0.578125 0.875zm3.1875 1.9375q-0.453125 0.15625 -1.453125 0.375q-0.984375 0.203125 -1.296875 0.40625q-0.453125 0.328125 -0.453125 0.828125q0 0.5 0.359375 0.875q0.375 0.359375 0.953125 0.359375q0.640625 0 1.234375 -0.421875q0.421875 -0.328125 0.5625 -0.796875q0.09375 -0.296875 0.09375 -1.15625l0 -0.46875z" fill-rule="nonzero"/><path fill="#d9d9d9" d="m446.33533 177.00783l2.4375 -0.234375q0.21875 1.21875 0.890625 1.796875q0.671875 0.578125 1.8125 0.578125q1.21875 0 1.828125 -0.515625q0.609375 -0.515625 0.609375 -1.203125q0 -0.4375 -0.265625 -0.734375q-0.25 -0.3125 -0.890625 -0.546875q-0.4375 -0.15625 -2.0 -0.546875q-2.015625 -0.5 -2.828125 -1.21875q-1.140625 -1.03125 -1.140625 -2.5q0 -0.953125 0.53125 -1.765625q0.546875 -0.828125 1.546875 -1.25q1.015625 -0.4375 2.4375 -0.4375q2.34375 0 3.515625 1.03125q1.1875 1.015625 1.25 2.71875l-2.5 0.109375q-0.171875 -0.953125 -0.703125 -1.375q-0.515625 -0.421875 -1.578125 -0.421875q-1.09375 0 -1.71875 0.453125q-0.390625 0.28125 -0.390625 0.765625q0 0.4375 0.375 0.75q0.46875 0.40625 2.296875 0.84375q1.828125 0.421875 2.703125 0.890625q0.875 0.453125 1.375 1.265625q0.5 0.796875 0.5 1.96875q0 1.0625 -0.59375 2.0q-0.59375 0.921875 -1.6875 1.375q-1.078125 0.453125 -2.6875 0.453125q-2.359375 0 -3.625 -1.078125q-1.25 -1.09375 -1.5 -3.171875zm20.010834 -2.296875l-2.34375 0.421875q-0.125 -0.703125 -0.546875 -1.046875q-0.40625 -0.359375 -1.078125 -0.359375q-0.890625 0 -1.421875 0.609375q-0.515625 0.609375 -0.515625 2.046875q0 1.609375 0.53125 2.265625q0.53125 0.65625 1.4375 0.65625q0.6875 0 1.109375 -0.375q0.4375 -0.390625 0.609375 -1.328125l2.34375 0.390625q-0.375 1.609375 -1.40625 2.4375q-1.03125 0.8125 -2.765625 0.8125q-1.96875 0 -3.140625 -1.234375q-1.171875 -1.25 -1.171875 -3.453125q0 -2.21875 1.171875 -3.453125q1.1875 -1.25 3.1875 -1.25q1.640625 0 2.609375 0.703125q0.96875 0.703125 1.390625 2.15625zm7.012085 3.46875l2.359375 0.390625q-0.453125 1.3125 -1.4375 2.0q-0.984375 0.671875 -2.46875 0.671875q-2.34375 0 -3.46875 -1.53125q-0.890625 -1.234375 -0.890625 -3.09375q0 -2.234375 1.171875 -3.5q1.171875 -1.265625 2.953125 -1.265625q2.0 0 3.15625 1.328125q1.171875 1.3125 1.109375 4.046875l-5.953125 0q0.03125 1.0625 0.578125 1.65625q0.546875 0.578125 1.375 0.578125q0.546875 0 0.921875 -0.296875q0.390625 -0.3125 0.59375 -0.984375zm0.125 -2.40625q-0.015625 -1.03125 -0.53125 -1.5625q-0.5 -0.546875 -1.234375 -0.546875q-0.78125 0 -1.28125 0.578125q-0.515625 0.5625 -0.5 1.53125l3.546875 0zm12.480835 5.265625l-2.375 0l0 -4.578125q0 -1.46875 -0.15625 -1.890625q-0.15625 -0.421875 -0.5 -0.65625q-0.34375 -0.25 -0.828125 -0.25q-0.609375 0 -1.109375 0.34375q-0.484375 0.34375 -0.671875 0.90625q-0.171875 0.546875 -0.171875 2.0625l0 4.0625l-2.375 0l0 -8.984375l2.203125 0l0 1.3125q1.171875 -1.515625 2.953125 -1.515625q0.796875 0 1.4375 0.28125q0.65625 0.28125 0.984375 0.734375q0.34375 0.4375 0.46875 1.0q0.140625 0.546875 0.140625 1.59375l0 5.578125zm4.178467 -6.25l-2.15625 -0.390625q0.375 -1.296875 1.25 -1.921875q0.890625 -0.625 2.640625 -0.625q1.59375 0 2.375 0.375q0.78125 0.375 1.09375 0.953125q0.3125 0.578125 0.3125 2.125l-0.015625 2.78125q0 1.1875 0.109375 1.75q0.109375 0.5625 0.421875 1.203125l-2.34375 0q-0.09375 -0.234375 -0.234375 -0.703125q-0.0625 -0.203125 -0.078125 -0.28125q-0.609375 0.59375 -1.3125 0.890625q-0.6875 0.296875 -1.46875 0.296875q-1.390625 0 -2.1875 -0.75q-0.796875 -0.75 -0.796875 -1.90625q0 -0.765625 0.359375 -1.359375q0.359375 -0.59375 1.015625 -0.90625q0.65625 -0.328125 1.890625 -0.5625q1.671875 -0.3125 2.3125 -0.578125l0 -0.234375q0 -0.6875 -0.34375 -0.984375q-0.328125 -0.296875 -1.28125 -0.296875q-0.625 0 -0.984375 0.25q-0.359375 0.25 -0.578125 0.875zm3.1875 1.9375q-0.453125 0.15625 -1.453125 0.375q-0.984375 0.203125 -1.296875 0.40625q-0.453125 0.328125 -0.453125 0.828125q0 0.5 0.359375 0.875q0.375 0.359375 0.953125 0.359375q0.640625 0 1.234375 -0.421875q0.421875 -0.328125 0.5625 -0.796875q0.09375 -0.296875 0.09375 -1.15625l0 -0.46875zm6.949585 4.3125l-2.375 0l0 -8.984375l2.203125 0l0 1.28125q0.578125 -0.90625 1.03125 -1.1875q0.453125 -0.296875 1.015625 -0.296875q0.8125 0 1.578125 0.453125l-0.734375 2.0625q-0.609375 -0.390625 -1.125 -0.390625q-0.5 0 -0.84375 0.28125q-0.34375 0.28125 -0.546875 1.0q-0.203125 0.71875 -0.203125 3.0l0 2.78125zm4.4778137 -10.203125l0 -2.203125l2.375 0l0 2.203125l-2.375 0zm0 10.203125l0 -8.984375l2.375 0l0 8.984375l-2.375 0zm4.2518005 -4.625q0 -1.171875 0.578125 -2.28125q0.59375 -1.109375 1.65625 -1.6875q1.0781555 -0.59375 2.4062805 -0.59375q2.03125 0 3.328125 1.328125q1.3125 1.3125 1.3125 3.34375q0 2.03125 -1.328125 3.375q-1.3125 1.34375 -3.296875 1.34375q-1.234375 0 -2.3594055 -0.546875q-1.125 -0.5625 -1.71875 -1.640625q-0.578125 -1.09375 -0.578125 -2.640625zm2.4375 0.125q0 1.34375 0.6406555 2.0625q0.640625 0.703125 1.5625 0.703125q0.9375 0 1.5625 -0.703125q0.625 -0.71875 0.625 -2.078125q0 -1.3125 -0.625 -2.015625q-0.625 -0.71875 -1.5625 -0.71875q-0.921875 0 -1.5625 0.71875q-0.6406555 0.703125 -0.6406555 2.03125z" fill-rule="nonzero"/><path fill="#283282" d="m23.089237 9.009187l165.16536 0l0 62.493187l-12.498932 12.4989395l-152.66643 0z" fill-rule="evenodd"/><path fill="#1f2767" d="m175.75566 84.00131l2.4997864 -9.999153l9.9991455 -2.4997864z" fill-rule="evenodd"/><path fill="#000000" fill-opacity="0.0" d="m175.75566 84.00131l2.4997864 -9.999153l9.9991455 -2.4997864l-12.498932 12.4989395l-152.66643 0l0 -74.99213l165.16536 0l0 62.493187" fill-rule="evenodd"/><path fill="#ffffff" d="m82.97897 29.567654l-2.34375 0.421875q-0.125 -0.703125 -0.546875 -1.046875q-0.40625 -0.359375 -1.078125 -0.359375q-0.890625 0 -1.421875 0.609375q-0.515625 0.609375 -0.515625 2.046875q0 1.609375 0.53125 2.265625q0.53125 0.65625 1.4375 0.65625q0.6875 0 1.109375 -0.375q0.4375 -0.390625 0.609375 -1.328125l2.34375 0.390625q-0.375 1.609375 -1.40625 2.4375q-1.03125 0.8125 -2.765625 0.8125q-1.96875 0 -3.140625 -1.234375q-1.171875 -1.25 -1.171875 -3.453125q0 -2.21875 1.171875 -3.453125q1.1875 -1.25 3.1875 -1.25q1.640625 0 2.609375 0.703125q0.96875 0.703125 1.390625 2.15625zm1.24646 1.703125q0 -1.171875 0.578125 -2.28125q0.59375 -1.109375 1.65625 -1.6875q1.078125 -0.59375 2.40625 -0.59375q2.03125 0 3.328125 1.328125q1.3125 1.3125 1.3125 3.34375q0 2.03125 -1.328125 3.375q-1.3125 1.34375 -3.296875 1.34375q-1.234375 0 -2.359375 -0.546875q-1.125 -0.5625 -1.71875 -1.640625q-0.578125 -1.09375 -0.578125 -2.640625zm2.4375 0.125q0 1.34375 0.640625 2.0625q0.640625 0.703125 1.5625 0.703125q0.9375 0 1.5625 -0.703125q0.625 -0.71875 0.625 -2.078125q0 -1.3125 -0.625 -2.015625q-0.625 -0.71875 -1.5625 -0.71875q-0.921875 0 -1.5625 0.71875q-0.640625 0.703125 -0.640625 2.03125zm14.615967 4.5l0 -1.34375q-0.484375 0.71875 -1.296875 1.140625q-0.796875 0.40625 -1.671875 0.40625q-0.90625 0 -1.625 -0.390625q-0.71875 -0.40625 -1.046875 -1.125q-0.328125 -0.71875 -0.328125 -1.984375l0 -5.6875l2.390625 0l0 4.125q0 1.890625 0.125 2.328125q0.125 0.421875 0.46875 0.671875q0.359375 0.25 0.890625 0.25q0.609375 0 1.09375 -0.328125q0.484375 -0.34375 0.65625 -0.828125q0.171875 -0.5 0.171875 -2.421875l0 -3.796875l2.375 0l0 8.984375l-2.203125 0zm12.850342 0l-2.375 0l0 -4.578125q0 -1.46875 -0.15625 -1.890625q-0.15625 -0.421875 -0.5 -0.65625q-0.34375 -0.25 -0.828125 -0.25q-0.609375 0 -1.109375 0.34375q-0.484375 0.34375 -0.671875 0.90625q-0.171875 0.546875 -0.171875 2.0625l0 4.0625l-2.375 0l0 -8.984375l2.203125 0l0 1.3125q1.171875 -1.515625 2.953125 -1.515625q0.796875 0 1.4375 0.28125q0.65625 0.28125 0.984375 0.734375q0.34375 0.4375 0.46875 1.0q0.140625 0.546875 0.140625 1.59375l0 5.578125zm6.522217 -8.984375l0 1.890625l-1.625 0l0 3.625q0 1.09375 0.046875 1.28125q0.046875 0.1875 0.203125 0.3125q0.171875 0.109375 0.421875 0.109375q0.328125 0 0.953125 -0.234375l0.203125 1.84375q-0.828125 0.359375 -1.875 0.359375q-0.65625 0 -1.171875 -0.21875q-0.515625 -0.21875 -0.765625 -0.546875q-0.234375 -0.34375 -0.3125 -0.9375q-0.078125 -0.40625 -0.078125 -1.671875l0 -3.921875l-1.09375 0l0 -1.890625l1.09375 0l0 -1.78125l2.375 -1.390625l0 3.171875l1.625 0zm3.926651 8.984375l-2.375 0l0 -8.984375l2.203125 0l0 1.28125q0.578125 -0.90625 1.03125 -1.1875q0.453125 -0.296875 1.015625 -0.296875q0.8125 0 1.578125 0.453125l-0.734375 2.0625q-0.609375 -0.390625 -1.125 -0.390625q-0.5 0 -0.84375 0.28125q-0.34375 0.28125 -0.546875 1.0q-0.203125 0.71875 -0.203125 3.0l0 2.78125zm3.3527985 -8.984375l2.515625 0l2.15625 6.375l2.09375 -6.375l2.46875 0l-3.171875 8.640625l-0.5625 1.578125q-0.3125 0.78125 -0.609375 1.1875q-0.28125 0.421875 -0.65625 0.671875q-0.359375 0.265625 -0.90625 0.40625q-0.53125 0.140625 -1.203125 0.140625q-0.6875 0 -1.34375 -0.140625l-0.21875 -1.859375q0.5625 0.109375 1.015625 0.109375q0.828125 0 1.21875 -0.484375q0.40625 -0.484375 0.609375 -1.234375l-3.40625 -9.015625z" fill-rule="nonzero"/><path fill="#d9d9d9" d="m69.698845 52.86453l2.4375 -0.234375q0.21875 1.21875 0.890625 1.796875q0.671875 0.578125 1.8125 0.578125q1.21875 0 1.828125 -0.515625q0.609375 -0.515625 0.609375 -1.203125q0 -0.4375 -0.265625 -0.734375q-0.25 -0.3125 -0.890625 -0.546875q-0.4375 -0.15625 -2.0 -0.546875q-2.015625 -0.5 -2.828125 -1.21875q-1.140625 -1.03125 -1.140625 -2.5q0 -0.953125 0.53125 -1.765625q0.546875 -0.828125 1.546875 -1.25q1.015625 -0.4375 2.4375 -0.4375q2.34375 0 3.515625 1.03125q1.1875 1.015625 1.25 2.71875l-2.5 0.109375q-0.171875 -0.953125 -0.703125 -1.375q-0.515625 -0.421875 -1.578125 -0.421875q-1.09375 0 -1.71875 0.453125q-0.390625 0.28125 -0.390625 0.765625q0 0.4375 0.375 0.75q0.46875 0.40625 2.296875 0.84375q1.828125 0.421875 2.703125 0.890625q0.875 0.453125 1.375 1.265625q0.5 0.796875 0.5 1.96875q0 1.0625 -0.59375 2.0q-0.59375 0.921875 -1.6875 1.375q-1.078125 0.453125 -2.6875 0.453125q-2.359375 0 -3.625 -1.078125q-1.25 -1.09375 -1.5 -3.171875zm20.010849 -2.296875l-2.34375 0.421875q-0.125 -0.703125 -0.546875 -1.046875q-0.40625 -0.359375 -1.078125 -0.359375q-0.890625 0 -1.421875 0.609375q-0.515625 0.609375 -0.515625 2.046875q0 1.609375 0.53125 2.265625q0.53125 0.65625 1.4375 0.65625q0.6875 0 1.109375 -0.375q0.4375 -0.390625 0.609375 -1.328125l2.34375 0.390625q-0.375 1.609375 -1.40625 2.4375q-1.03125 0.8125 -2.765625 0.8125q-1.96875 0 -3.140625 -1.234375q-1.171875 -1.25 -1.171875 -3.453125q0 -2.21875 1.171875 -3.453125q1.1875 -1.25 3.1875 -1.25q1.640625 0 2.609375 0.703125q0.96875 0.703125 1.390625 2.15625zm7.012085 3.46875l2.359375 0.390625q-0.453125 1.3125 -1.4375 2.0q-0.984375 0.671875 -2.46875 0.671875q-2.34375 0 -3.46875 -1.53125q-0.890625 -1.234375 -0.890625 -3.09375q0 -2.234375 1.171875 -3.5q1.171875 -1.265625 2.953125 -1.265625q2.0 0 3.15625 1.328125q1.171875 1.3125 1.109375 4.046875l-5.953125 0q0.03125 1.0625 0.578125 1.65625q0.546875 0.578125 1.375 0.578125q0.546875 0 0.921875 -0.296875q0.390625 -0.3125 0.59375 -0.984375zm0.125 -2.40625q-0.015625 -1.03125 -0.53125 -1.5625q-0.5 -0.546875 -1.234375 -0.546875q-0.78125 0 -1.28125 0.578125q-0.515625 0.5625 -0.5 1.53125l3.546875 0zm12.480835 5.265625l-2.375 0l0 -4.578125q0 -1.46875 -0.15625 -1.890625q-0.15625 -0.421875 -0.5 -0.65625q-0.34375 -0.25 -0.828125 -0.25q-0.609375 0 -1.109375 0.34375q-0.484375 0.34375 -0.671875 0.90625q-0.171875 0.546875 -0.171875 2.0625l0 4.0625l-2.375 0l0 -8.984375l2.203125 0l0 1.3125q1.171875 -1.515625 2.953125 -1.515625q0.796875 0 1.4375 0.28125q0.65625 0.28125 0.984375 0.734375q0.34375 0.4375 0.46875 1.0q0.140625 0.546875 0.140625 1.59375l0 5.578125zm4.178467 -6.25l-2.15625 -0.390625q0.375 -1.296875 1.25 -1.921875q0.890625 -0.625 2.640625 -0.625q1.59375 0 2.375 0.375q0.78125 0.375 1.09375 0.953125q0.3125 0.578125 0.3125 2.125l-0.015625 2.78125q0 1.1875 0.109375 1.75q0.109375 0.5625 0.421875 1.203125l-2.34375 0q-0.09375 -0.234375 -0.234375 -0.703125q-0.0625 -0.203125 -0.078125 -0.28125q-0.609375 0.59375 -1.3125 0.890625q-0.6875 0.296875 -1.46875 0.296875q-1.390625 0 -2.1875 -0.75q-0.796875 -0.75 -0.796875 -1.90625q0 -0.765625 0.359375 -1.359375q0.359375 -0.59375 1.015625 -0.90625q0.65625 -0.328125 1.890625 -0.5625q1.671875 -0.3125 2.3125 -0.578125l0 -0.234375q0 -0.6875 -0.34375 -0.984375q-0.328125 -0.296875 -1.28125 -0.296875q-0.625 0 -0.984375 0.25q-0.359375 0.25 -0.578125 0.875zm3.1875 1.9375q-0.453125 0.15625 -1.453125 0.375q-0.984375 0.203125 -1.296875 0.40625q-0.453125 0.328125 -0.453125 0.828125q0 0.5 0.359375 0.875q0.375 0.359375 0.953125 0.359375q0.640625 0 1.234375 -0.421875q0.421875 -0.328125 0.5625 -0.796875q0.09375 -0.296875 0.09375 -1.15625l0 -0.46875zm6.949585 4.3125l-2.375 0l0 -8.984375l2.203125 0l0 1.28125q0.578125 -0.90625 1.03125 -1.1875q0.453125 -0.296875 1.015625 -0.296875q0.8125 0 1.578125 0.453125l-0.734375 2.0625q-0.609375 -0.390625 -1.125 -0.390625q-0.5 0 -0.84375 0.28125q-0.34375 0.28125 -0.546875 1.0q-0.203125 0.71875 -0.203125 3.0l0 2.78125zm4.477791 -10.203125l0 -2.203125l2.375 0l0 2.203125l-2.375 0zm0 10.203125l0 -8.984375l2.375 0l0 8.984375l-2.375 0zm4.251816 -4.625q0 -1.171875 0.578125 -2.28125q0.59375 -1.109375 1.65625 -1.6875q1.078125 -0.59375 2.40625 -0.59375q2.03125 0 3.328125 1.328125q1.3125 1.3125 1.3125 3.34375q0 2.03125 -1.328125 3.375q-1.3125 1.34375 -3.296875 1.34375q-1.234375 0 -2.359375 -0.546875q-1.125 -0.5625 -1.71875 -1.640625q-0.578125 -1.09375 -0.578125 -2.640625zm2.4375 0.125q0 1.34375 0.640625 2.0625q0.640625 0.703125 1.5625 0.703125q0.9375 0 1.5625 -0.703125q0.625 -0.71875 0.625 -2.078125q0 -1.3125 -0.625 -2.015625q-0.625 -0.71875 -1.5625 -0.71875q-0.921875 0 -1.5625 0.71875q-0.640625 0.703125 -0.640625 2.03125z" fill-rule="nonzero"/><path fill="#000000" fill-opacity="0.0" d="m188.2546 46.50525l70.45668 39.55906" fill-rule="evenodd"/><path stroke="#08a87d" stroke-width="2.0" stroke-linejoin="round" stroke-linecap="butt" d="m188.2546 46.50525l59.99318 33.684135" fill-rule="evenodd"/><path fill="#08a87d" stroke="#08a87d" stroke-width="2.0" stroke-linecap="butt" d="m246.63046 83.06988l9.531372 1.5630035l-6.296768 -7.3239822z" fill-rule="evenodd"/><path fill="#000000" fill-opacity="0.0" d="m341.521 132.9976l58.204712 36.7874" fill-rule="evenodd"/><path stroke="#08a87d" stroke-width="2.0" stroke-linejoin="round" stroke-linecap="butt" d="m341.521 132.9976l48.060944 30.37619" fill-rule="evenodd"/><path fill="#08a87d" stroke="#08a87d" stroke-width="2.0" stroke-linecap="butt" d="m387.81702 166.16626l9.437164 2.056656l-5.9072876 -7.6415863z" fill-rule="evenodd"/><path fill="#000000" fill-opacity="0.0" d="m339.01575 80.333336l66.92914 -36.40945" fill-rule="evenodd"/><path stroke="#08a87d" stroke-width="2.0" stroke-linejoin="round" stroke-linecap="butt" d="m339.01575 80.333336l56.38797 -30.675045" fill-rule="evenodd"/><path fill="#08a87d" stroke="#08a87d" stroke-width="2.0" stroke-linecap="butt" d="m396.9823 52.560158l6.394226 -7.2390823l-9.551453 1.4353447z" fill-rule="evenodd"/><path fill="#000000" fill-opacity="0.0" d="m303.1391 248.33727l0 -95.71654" fill-rule="evenodd"/><path stroke="#08a87d" stroke-width="2.0" stroke-linejoin="round" stroke-linecap="butt" d="m303.1391 248.33727l0 -83.71654" fill-rule="evenodd"/><path fill="#08a87d" stroke="#08a87d" stroke-width="2.0" stroke-linecap="butt" d="m306.44257 164.62073l-3.3034668 -9.076187l-3.3034668 9.076187z" fill-rule="evenodd"/></g></svg>