<svg version="1.1" viewBox="0.0 0.0 625.0839895013123 306.16272965879267" fill="none" stroke="none" stroke-linecap="square" stroke-miterlimit="10" xmlns:xlink="http://www.w3.org/1999/xlink" xmlns="http://www.w3.org/2000/svg"><clipPath id="p.0"><path d="m0 0l625.084 0l0 306.16272l-625.084 0l0 -306.16272z" clip-rule="nonzero"/></clipPath><g clip-path="url(#p.0)"><path fill="#000000" fill-opacity="0.0" d="m0 0l625.084 0l0 306.16272l-625.084 0z" fill-rule="evenodd"/><path fill="#000000" fill-opacity="0.0" d="m85.37533 249.28871l240.50394 0l0 58.173233l-240.50394 0z" fill-rule="evenodd"/><path fill="#000000" d="m95.6097 273.6487l0 -11.453125l4.328125 0q1.140625 0 1.734375 0.109375q0.84375 0.140625 1.40625 0.53125q0.578125 0.390625 0.921875 1.109375q0.359375 0.703125 0.359375 1.5625q0 1.453125 -0.9375 2.46875q-0.921875 1.015625 -3.359375 1.015625l-2.9375 0l0 4.65625l-1.515625 0zm1.515625 -6.015625l2.96875 0q1.46875 0 2.078125 -0.546875q0.625 -0.546875 0.625 -1.53125q0 -0.71875 -0.375 -1.234375q-0.359375 -0.515625 -0.953125 -0.671875q-0.375 -0.109375 -1.40625 -0.109375l-2.9375 0l0 4.09375zm8.984375 -3.828125l0 -1.609375l1.40625 0l0 1.609375l-1.40625 0zm0 9.84375l0 -8.296875l1.40625 0l0 8.296875l-1.40625 0zm3.5546875 3.1875l0 -11.484375l1.28125 0l0 1.078125q0.453125 -0.640625 1.015625 -0.953125q0.578125 -0.3125 1.390625 -0.3125q1.0625 0 1.875 0.546875q0.8125 0.546875 1.21875 1.546875q0.421875 0.984375 0.421875 2.171875q0 1.28125 -0.46875 2.296875q-0.453125 1.015625 -1.328125 1.5625q-0.859375 0.546875 -1.828125 0.546875q-0.703125 0 -1.265625 -0.296875q-0.546875 -0.296875 -0.90625 -0.75l0 4.046875l-1.40625 0zm1.265625 -7.296875q0 1.609375 0.640625 2.375q0.65625 0.765625 1.578125 0.765625q0.9375 0 1.609375 -0.796875q0.671875 -0.796875 0.671875 -2.453125q0 -1.59375 -0.65625 -2.375q-0.65625 -0.796875 -1.5625 -0.796875q-0.890625 0 -1.59375 0.84375q-0.6875 0.84375 -0.6875 2.4375zm13.3046875 1.4375l1.453125 0.171875q-0.34375 1.28125 -1.28125 1.984375q-0.921875 0.703125 -2.359375 0.703125q-1.828125 0 -2.890625 -1.125q-1.0625 -1.125 -1.0625 -3.140625q0 -2.09375 1.078125 -3.25q1.078125 -1.15625 2.796875 -1.15625q1.65625 0 2.703125 1.140625q1.0625 1.125 1.0625 3.171875q0 0.125 0 0.375l-6.1875 0q0.078125 1.375 0.765625 2.109375q0.703125 0.71875 1.734375 0.71875q0.78125 0 1.328125 -0.40625q0.546875 -0.40625 0.859375 -1.296875zm-4.609375 -2.28125l4.625 0q-0.09375 -1.046875 -0.53125 -1.5625q-0.671875 -0.8125 -1.734375 -0.8125q-0.96875 0 -1.640625 0.65625q-0.65625 0.640625 -0.71875 1.71875zm7.8046875 4.953125l0 -11.453125l1.4062576 0l0 11.453125l-1.4062576 0zm3.5859451 -9.84375l0 -1.609375l1.40625 0l0 1.609375l-1.40625 0zm0 9.84375l0 -8.296875l1.40625 0l0 8.296875l-1.40625 0zm3.5546875 0l0 -8.296875l1.265625 0l0 1.171875q0.90625 -1.359375 2.640625 -1.359375q0.75 0 1.375 0.265625q0.625 0.265625 0.9375 0.703125q0.3125 0.4375 0.4375 1.046875q0.078125 0.390625 0.078125 1.359375l0 5.109375l-1.40625 0l0 -5.046875q0 -0.859375 -0.171875 -1.28125q-0.15625 -0.4375 -0.578125 -0.6875q-0.40625 -0.25 -0.96875 -0.25q-0.90625 0 -1.5625 0.578125q-0.640625 0.5625 -0.640625 2.15625l0 4.53125l-1.40625 0zm14.5703125 -2.671875l1.453125 0.171875q-0.34375 1.28125 -1.28125 1.984375q-0.921875 0.703125 -2.359375 0.703125q-1.828125 0 -2.890625 -1.125q-1.0625 -1.125 -1.0625 -3.140625q0 -2.09375 1.078125 -3.25q1.078125 -1.15625 2.796875 -1.15625q1.65625 0 2.703125 1.140625q1.0625 1.125 1.0625 3.171875q0 0.125 0 0.375l-6.1875 0q0.078125 1.375 0.765625 2.109375q0.703125 0.71875 1.734375 0.71875q0.78125 0 1.328125 -0.40625q0.546875 -0.40625 0.859375 -1.296875zm-4.609375 -2.28125l4.625 0q-0.09375 -1.046875 -0.53125 -1.5625q-0.671875 -0.8125 -1.734375 -0.8125q-0.96875 0 -1.640625 0.65625q-0.65625 0.640625 -0.71875 1.71875zm6.5234375 8.140625l0 -1.015625l9.328125 0l0 1.015625l-9.328125 0zm15.6171875 -4.21875q-0.78125 0.671875 -1.5 0.953125q-0.71875 0.265625 -1.546875 0.265625q-1.375 0 -2.109375 -0.671875q-0.734375 -0.671875 -0.734375 -1.703125q0 -0.609375 0.28125 -1.109375q0.28125 -0.515625 0.71875 -0.8125q0.453125 -0.3125 1.015625 -0.46875q0.421875 -0.109375 1.25 -0.203125q1.703125 -0.203125 2.515625 -0.484375q0 -0.296875 0 -0.375q0 -0.859375 -0.390625 -1.203125q-0.546875 -0.484375 -1.609375 -0.484375q-0.984375 0 -1.46875 0.359375q-0.46875 0.34375 -0.6875 1.21875l-1.375 -0.1875q0.1875 -0.875 0.609375 -1.421875q0.4375 -0.546875 1.25 -0.828125q0.8125 -0.296875 1.875 -0.296875q1.0625 0 1.71875 0.25q0.671875 0.25 0.984375 0.625q0.3125 0.375 0.4375 0.953125q0.078125 0.359375 0.078125 1.296875l0 1.875q0 1.96875 0.078125 2.484375q0.09375 0.515625 0.359375 1.0l-1.46875 0q-0.21875 -0.4375 -0.28125 -1.03125zm-0.109375 -3.140625q-0.765625 0.3125 -2.296875 0.53125q-0.875 0.125 -1.234375 0.28125q-0.359375 0.15625 -0.5625 0.46875q-0.1875 0.296875 -0.1875 0.65625q0 0.5625 0.421875 0.9375q0.4375 0.375 1.25 0.375q0.8125 0 1.4375 -0.34375q0.640625 -0.359375 0.9375 -0.984375q0.234375 -0.46875 0.234375 -1.40625l0 -0.515625zm3.5859375 4.171875l0 -8.296875l1.265625 0l0 1.25q0.484375 -0.875 0.890625 -1.15625q0.40625 -0.28125 0.90625 -0.28125q0.703125 0 1.4375 0.453125l-0.484375 1.296875q-0.515625 -0.296875 -1.03125 -0.296875q-0.453125 0 -0.828125 0.28125q-0.359375 0.265625 -0.515625 0.765625q-0.234375 0.75 -0.234375 1.640625l0 4.34375l-1.40625 0zm5.34375 -9.84375l0 -1.609375l1.40625 0l0 1.609375l-1.40625 0zm0 9.84375l0 -8.296875l1.40625 0l0 8.296875l-1.40625 0zm3.5546875 0l0 -8.296875l1.25 0l0 1.15625q0.390625 -0.609375 1.03125 -0.96875q0.65625 -0.375 1.484375 -0.375q0.921875 0 1.515625 0.390625q0.59375 0.375 0.828125 1.0625q0.984375 -1.453125 2.5625 -1.453125q1.234375 0 1.890625 0.6875q0.671875 0.671875 0.671875 2.09375l0 5.703125l-1.390625 0l0 -5.234375q0 -0.84375 -0.140625 -1.203125q-0.140625 -0.375 -0.5 -0.59375q-0.359375 -0.234375 -0.84375 -0.234375q-0.875 0 -1.453125 0.578125q-0.578125 0.578125 -0.578125 1.859375l0 4.828125l-1.40625 0l0 -5.390625q0 -0.9375 -0.34375 -1.40625q-0.34375 -0.46875 -1.125 -0.46875q-0.59375 0 -1.09375 0.3125q-0.5 0.3125 -0.734375 0.921875q-0.21875 0.59375 -0.21875 1.71875l0 4.3125l-1.40625 0zm18.734375 -1.03125q-0.78125 0.671875 -1.5 0.953125q-0.71875 0.265625 -1.546875 0.265625q-1.375 0 -2.109375 -0.671875q-0.734375 -0.671875 -0.734375 -1.703125q0 -0.609375 0.28125 -1.109375q0.28125 -0.515625 0.71875 -0.8125q0.453125 -0.3125 1.015625 -0.46875q0.421875 -0.109375 1.25 -0.203125q1.703125 -0.203125 2.515625 -0.484375q0 -0.296875 0 -0.375q0 -0.859375 -0.390625 -1.203125q-0.546875 -0.484375 -1.609375 -0.484375q-0.984375 0 -1.46875 0.359375q-0.46875 0.34375 -0.6875 1.21875l-1.375 -0.1875q0.1875 -0.875 0.609375 -1.421875q0.4375 -0.546875 1.25 -0.828125q0.8125 -0.296875 1.875 -0.296875q1.0625 0 1.71875 0.25q0.671875 0.25 0.984375 0.625q0.3125 0.375 0.4375 0.953125q0.078125 0.359375 0.078125 1.296875l0 1.875q0 1.96875 0.078125 2.484375q0.09375 0.515625 0.359375 1.0l-1.46875 0q-0.21875 -0.4375 -0.28125 -1.03125zm-0.109375 -3.140625q-0.765625 0.3125 -2.296875 0.53125q-0.875 0.125 -1.234375 0.28125q-0.359375 0.15625 -0.5625 0.46875q-0.1875 0.296875 -0.1875 0.65625q0 0.5625 0.421875 0.9375q0.4375 0.375 1.25 0.375q0.8125 0 1.4375 -0.34375q0.640625 -0.359375 0.9375 -0.984375q0.234375 -0.46875 0.234375 -1.40625l0 -0.515625z" fill-rule="nonzero"/><path fill="#000000" fill-opacity="0.0" d="m48.87664 268.03683l40.97638 0" fill-rule="evenodd"/><path stroke="#ff462b" stroke-width="2.0" stroke-linejoin="round" stroke-linecap="butt" d="m48.87664 268.03683l28.97638 0" fill-rule="evenodd"/><path fill="#ff462b" stroke="#ff462b" stroke-width="2.0" stroke-linecap="butt" d="m77.85302 271.3403l9.076195 -3.3034668l-9.076195 -3.3034668z" fill-rule="evenodd"/><path fill="#283282" d="m19.922571 56.18504l165.16534 0l0 53.85805l-10.771866 10.771873l-154.39348 0z" fill-rule="evenodd"/><path fill="#1f2767" d="m174.31606 120.814964l2.1543732 -8.6175l8.617493 -2.1543732z" fill-rule="evenodd"/><path fill="#000000" fill-opacity="0.0" d="m174.31606 120.814964l2.1543732 -8.6175l8.617493 -2.1543732l-10.771866 10.771873l-154.39348 0l0 -64.62993l165.16534 0l0 53.85805" fill-rule="evenodd"/><path fill="#ffffff" d="m81.83146 71.60031l1.84375 0l0 1.03125q1.0 -1.203125 2.375 -1.203125q0.734375 0 1.265625 0.296875q0.53125 0.296875 0.875 0.90625q0.5 -0.609375 1.078125 -0.90625q0.59375 -0.296875 1.25 -0.296875q0.828125 0 1.40625 0.34375q0.59375 0.328125 0.875 0.984375q0.203125 0.484375 0.203125 1.578125l0 4.859375l-2.015625 0l0 -4.34375q0 -1.125 -0.203125 -1.453125q-0.28125 -0.4375 -0.859375 -0.4375q-0.421875 0 -0.796875 0.265625q-0.359375 0.25 -0.53125 0.75q-0.171875 0.5 -0.171875 1.5625l0 3.65625l-2.0 0l0 -4.171875q0 -1.109375 -0.109375 -1.421875q-0.109375 -0.328125 -0.34375 -0.484375q-0.21875 -0.15625 -0.609375 -0.15625q-0.453125 0 -0.828125 0.25q-0.375 0.25 -0.546875 0.734375q-0.15625 0.46875 -0.15625 1.5625l0 3.6875l-2.0 0l0 -7.59375zm12.719254 3.6875q0 -1.0 0.484375 -1.9375q0.5 -0.9375 1.40625 -1.421875q0.90625 -0.5 2.015625 -0.5q1.71875 0 2.828125 1.125q1.109375 1.109375 1.109375 2.8125q0 1.734375 -1.125 2.875q-1.109375 1.125 -2.796875 1.125q-1.046875 0 -2.0 -0.46875q-0.9375 -0.46875 -1.4375 -1.375q-0.484375 -0.921875 -0.484375 -2.234375zm2.046875 0.109375q0 1.125 0.53125 1.734375q0.546875 0.59375 1.34375 0.59375q0.78125 0 1.3125 -0.59375q0.53125 -0.609375 0.53125 -1.75q0 -1.125 -0.53125 -1.71875q-0.53125 -0.609375 -1.3125 -0.609375q-0.796875 0 -1.34375 0.609375q-0.53125 0.59375 -0.53125 1.734375zm14.327621 3.796875l-1.859375 0l0 -1.109375q-0.46875 0.640625 -1.109375 0.96875q-0.625 0.3125 -1.265625 0.3125q-1.3125 0 -2.25 -1.046875q-0.9375 -1.0625 -0.9375 -2.953125q0 -1.9375 0.90625 -2.9375q0.921875 -1.0 2.3125 -1.0q1.265625 0 2.203125 1.046875l0 -3.765625l2.0 0l0 10.484375zm-5.359375 -3.96875q0 1.21875 0.328125 1.765625q0.5 0.78125 1.359375 0.78125q0.703125 0 1.1875 -0.578125q0.484375 -0.59375 0.484375 -1.765625q0 -1.3125 -0.46875 -1.890625q-0.46875 -0.578125 -1.203125 -0.578125q-0.71875 0 -1.203125 0.578125q-0.484375 0.5625 -0.484375 1.6875zm11.749496 1.546875l2.0 0.34375q-0.375 1.09375 -1.21875 1.671875q-0.828125 0.578125 -2.078125 0.578125q-1.984375 0 -2.9375 -1.296875q-0.75 -1.03125 -0.75 -2.625q0 -1.875 0.984375 -2.9375q0.984375 -1.078125 2.5 -1.078125q1.6875 0 2.671875 1.125q0.984375 1.109375 0.9375 3.421875l-5.03125 0q0.015625 0.890625 0.484375 1.390625q0.46875 0.5 1.15625 0.5q0.46875 0 0.78125 -0.25q0.328125 -0.265625 0.5 -0.84375zm0.109375 -2.03125q-0.015625 -0.875 -0.453125 -1.328125q-0.421875 -0.453125 -1.03125 -0.453125q-0.671875 0 -1.09375 0.484375q-0.421875 0.46875 -0.421875 1.296875l3.0 0zm3.6354828 4.453125l0 -10.484375l2.015625 0l0 10.484375l-2.015625 0z" fill-rule="nonzero"/><path fill="#ff0000" d="m72.08161 93.78781l2.0625 -0.203125q0.1875 1.03125 0.75 1.515625q0.578125 0.484375 1.53125 0.484375q1.03125 0 1.546875 -0.421875q0.515625 -0.4375 0.515625 -1.015625q0 -0.375 -0.21875 -0.625q-0.21875 -0.265625 -0.75 -0.46875q-0.375 -0.125 -1.703125 -0.453125q-1.703125 -0.421875 -2.390625 -1.03125q-0.96875 -0.875 -0.96875 -2.125q0 -0.796875 0.453125 -1.484375q0.453125 -0.703125 1.3125 -1.0625q0.859375 -0.375 2.0625 -0.375q1.984375 0 2.96875 0.875q1.0 0.859375 1.0625 2.296875l-2.125 0.09375q-0.140625 -0.796875 -0.59375 -1.15625q-0.4375 -0.359375 -1.328125 -0.359375q-0.921875 0 -1.453125 0.390625q-0.328125 0.234375 -0.328125 0.640625q0 0.375 0.3125 0.640625q0.40625 0.34375 1.9375 0.703125q1.546875 0.359375 2.28125 0.75q0.75 0.390625 1.171875 1.078125q0.421875 0.671875 0.421875 1.65625q0 0.90625 -0.5 1.703125q-0.5 0.78125 -1.421875 1.171875q-0.921875 0.375 -2.28125 0.375q-1.984375 0 -3.0625 -0.921875q-1.0625 -0.921875 -1.265625 -2.671875zm16.91623 -1.953125l-1.96875 0.359375q-0.109375 -0.59375 -0.46875 -0.890625q-0.34375 -0.296875 -0.90625 -0.296875q-0.75 0 -1.203125 0.515625q-0.453125 0.515625 -0.453125 1.734375q0 1.359375 0.453125 1.921875q0.453125 0.546875 1.21875 0.546875q0.578125 0 0.9375 -0.328125q0.375 -0.328125 0.515625 -1.109375l1.984375 0.328125q-0.3125 1.359375 -1.1875 2.0625q-0.875 0.6875 -2.328125 0.6875q-1.671875 0 -2.671875 -1.046875q-0.984375 -1.0625 -0.984375 -2.921875q0 -1.875 0.984375 -2.921875q1.0 -1.046875 2.703125 -1.046875q1.390625 0 2.203125 0.59375q0.828125 0.59375 1.171875 1.8125zm5.932358 2.9375l2.0 0.34375q-0.375 1.09375 -1.21875 1.671875q-0.828125 0.578125 -2.078125 0.578125q-1.984375 0 -2.9375 -1.296875q-0.75 -1.03125 -0.75 -2.625q0 -1.875 0.984375 -2.9375q0.984375 -1.078125 2.5 -1.078125q1.6875 0 2.671875 1.125q0.984375 1.109375 0.9375 3.421875l-5.03125 0q0.015625 0.890625 0.484375 1.390625q0.46875 0.5 1.15625 0.5q0.46875 0 0.78125 -0.25q0.328125 -0.265625 0.5 -0.84375zm0.109375 -2.03125q-0.015625 -0.875 -0.453125 -1.328125q-0.421875 -0.453125 -1.03125 -0.453125q-0.671875 0 -1.09375 0.484375q-0.421875 0.46875 -0.421875 1.296875l3.0 0zm10.557358 4.453125l-2.015625 0l0 -3.875q0 -1.234375 -0.125 -1.59375q-0.125 -0.359375 -0.421875 -0.5625q-0.296875 -0.203125 -0.703125 -0.203125q-0.515625 0 -0.9375 0.296875q-0.40625 0.28125 -0.5625 0.75q-0.15625 0.46875 -0.15625 1.75l0 3.4375l-2.015625 0l0 -7.59375l1.875 0l0 1.109375q1.0 -1.28125 2.5 -1.28125q0.671875 0 1.21875 0.234375q0.546875 0.234375 0.828125 0.609375q0.296875 0.375 0.40625 0.84375q0.109375 0.46875 0.109375 1.359375l0 4.71875zm3.5463715 -5.28125l-1.828125 -0.328125q0.296875 -1.109375 1.046875 -1.625q0.765625 -0.53125 2.234375 -0.53125q1.359375 0 2.015625 0.3125q0.65625 0.3125 0.921875 0.8125q0.265625 0.484375 0.265625 1.796875l-0.015625 2.34375q0 1.0 0.09375 1.484375q0.09375 0.46875 0.359375 1.015625l-1.984375 0q-0.078125 -0.203125 -0.203125 -0.59375q-0.046875 -0.171875 -0.0625 -0.234375q-0.515625 0.5 -1.109375 0.75q-0.578125 0.25 -1.25 0.25q-1.171875 0 -1.859375 -0.640625q-0.671875 -0.640625 -0.671875 -1.609375q0 -0.640625 0.3125 -1.140625q0.3125 -0.515625 0.859375 -0.78125q0.5625 -0.265625 1.609375 -0.46875q1.40625 -0.265625 1.953125 -0.484375l0 -0.203125q0 -0.578125 -0.296875 -0.828125q-0.28125 -0.25 -1.078125 -0.25q-0.53125 0 -0.84375 0.21875q-0.296875 0.203125 -0.46875 0.734375zm2.6875 1.625q-0.390625 0.140625 -1.234375 0.328125q-0.828125 0.171875 -1.09375 0.34375q-0.390625 0.265625 -0.390625 0.703125q0 0.421875 0.3125 0.734375q0.3125 0.296875 0.8125 0.296875q0.53125 0 1.03125 -0.359375q0.359375 -0.265625 0.484375 -0.65625q0.078125 -0.265625 0.078125 -0.984375l0 -0.40625zm5.885483 3.65625l-2.015625 0l0 -7.59375l1.859375 0l0 1.078125q0.484375 -0.765625 0.859375 -1.0q0.390625 -0.25 0.875 -0.25q0.6875 0 1.328125 0.375l-0.625 1.75q-0.5 -0.328125 -0.9375 -0.328125q-0.421875 0 -0.71875 0.234375q-0.296875 0.234375 -0.46875 0.84375q-0.15625 0.609375 -0.15625 2.546875l0 2.34375zm3.7661285 -8.625l0 -1.859375l2.015625 0l0 1.859375l-2.015625 0zm0 8.625l0 -7.59375l2.015625 0l0 7.59375l-2.015625 0zm3.6188507 -3.90625q0 -1.0 0.484375 -1.9375q0.5 -0.9375 1.40625 -1.421875q0.90625 -0.5 2.0156326 -0.5q1.71875 0 2.828125 1.125q1.109375 1.109375 1.109375 2.8125q0 1.734375 -1.125 2.875q-1.109375 1.125 -2.796875 1.125q-1.0468826 0 -2.0000076 -0.46875q-0.9375 -0.46875 -1.4375 -1.375q-0.484375 -0.921875 -0.484375 -2.234375zm2.046875 0.109375q0 1.125 0.53125 1.734375q0.5468826 0.59375 1.3437576 0.59375q0.78125 0 1.3125 -0.59375q0.53125 -0.609375 0.53125 -1.75q0 -1.125 -0.53125 -1.71875q-0.53125 -0.609375 -1.3125 -0.609375q-0.796875 0 -1.3437576 0.609375q-0.53125 0.59375 -0.53125 1.734375z" fill-rule="nonzero"/><path fill="#283282" d="m426.1706 56.186047l165.16534 0l0 53.85805l-10.771851 10.771873l-154.3935 0z" fill-rule="evenodd"/><path fill="#1f2767" d="m580.5641 120.81597l2.154358 -8.6175l8.617493 -2.1543732z" fill-rule="evenodd"/><path fill="#000000" fill-opacity="0.0" d="m580.5641 120.81597l2.154358 -8.6175l8.617493 -2.1543732l-10.771851 10.771873l-154.3935 0l0 -64.62993l165.16534 0l0 53.85805" fill-rule="evenodd"/><path fill="#ffffff" d="m470.25726 71.60132l1.875 0l0 1.109375q0.359375 -0.578125 0.984375 -0.921875q0.625 -0.359375 1.375 -0.359375q1.328125 0 2.25 1.03125q0.921875 1.03125 0.921875 2.890625q0 1.90625 -0.9375 2.96875q-0.921875 1.046875 -2.25 1.046875q-0.625 0 -1.140625 -0.25q-0.5 -0.25 -1.078125 -0.859375l0 3.828125l-2.0 0l0 -10.484375zm1.984375 3.671875q0 1.28125 0.5 1.890625q0.515625 0.609375 1.25 0.609375q0.703125 0 1.15625 -0.5625q0.46875 -0.5625 0.46875 -1.84375q0 -1.203125 -0.484375 -1.78125q-0.46875 -0.578125 -1.1875 -0.578125q-0.734375 0 -1.21875 0.578125q-0.484375 0.5625 -0.484375 1.6875zm8.952637 3.921875l-2.015625 0l0 -7.59375l1.859375 0l0 1.078125q0.484375 -0.765625 0.859375 -1.0q0.390625 -0.25 0.875 -0.25q0.6875 0 1.328125 0.375l-0.625 1.75q-0.5 -0.328125 -0.9375 -0.328125q-0.421875 0 -0.71875 0.234375q-0.296875 0.234375 -0.46875 0.84375q-0.15625 0.609375 -0.15625 2.546875l0 2.34375zm8.172363 -2.421875l2.0 0.34375q-0.375 1.09375 -1.21875 1.671875q-0.828125 0.578125 -2.078125 0.578125q-1.984375 0 -2.9375 -1.296875q-0.75 -1.03125 -0.75 -2.625q0 -1.875 0.984375 -2.9375q0.984375 -1.078125 2.5 -1.078125q1.6875 0 2.671875 1.125q0.984375 1.109375 0.9375 3.421875l-5.03125 0q0.015625 0.890625 0.484375 1.390625q0.46875 0.5 1.15625 0.5q0.46875 0 0.78125 -0.25q0.328125 -0.265625 0.5 -0.84375zm0.109375 -2.03125q-0.015625 -0.875 -0.453125 -1.328125q-0.421875 -0.453125 -1.03125 -0.453125q-0.671875 0 -1.09375 0.484375q-0.421875 0.46875 -0.421875 1.296875l3.0 0zm10.604248 4.453125l-1.859375 0l0 -1.109375q-0.46875 0.640625 -1.109375 0.96875q-0.625 0.3125 -1.265625 0.3125q-1.3125 0 -2.25 -1.046875q-0.9375 -1.0625 -0.9375 -2.953125q0 -1.9375 0.90625 -2.9375q0.921875 -1.0 2.3125 -1.0q1.265625 0 2.203125 1.046875l0 -3.765625l2.0 0l0 10.484375zm-5.359375 -3.96875q0 1.21875 0.328125 1.765625q0.5 0.78125 1.359375 0.78125q0.703125 0 1.1875 -0.578125q0.484375 -0.59375 0.484375 -1.765625q0 -1.3125 -0.46875 -1.890625q-0.46875 -0.578125 -1.203125 -0.578125q-0.71875 0 -1.203125 0.578125q-0.484375 0.5625 -0.484375 1.6875zm7.343231 -4.65625l0 -1.859375l2.015625 0l0 1.859375l-2.015625 0zm0 8.625l0 -7.59375l2.015625 0l0 7.59375l-2.015625 0zm10.696991 -5.359375l-1.96875 0.359375q-0.109375 -0.59375 -0.46875 -0.890625q-0.34375 -0.296875 -0.90625 -0.296875q-0.75 0 -1.203125 0.515625q-0.453125 0.515625 -0.453125 1.734375q0 1.359375 0.453125 1.921875q0.453125 0.546875 1.21875 0.546875q0.578125 0 0.9375 -0.328125q0.375 -0.328125 0.515625 -1.109375l1.984375 0.328125q-0.3125 1.359375 -1.1875 2.0625q-0.875 0.6875 -2.328125 0.6875q-1.671875 0 -2.671875 -1.046875q-0.984375 -1.0625 -0.984375 -2.921875q0 -1.875 0.984375 -2.921875q1.0 -1.046875 2.703125 -1.046875q1.390625 0 2.203125 0.59375q0.828125 0.59375 1.171875 1.8125zm5.010498 -2.234375l0 1.59375l-1.375 0l0 3.0625q0 0.9375 0.03125 1.09375q0.046875 0.140625 0.1875 0.25q0.140625 0.09375 0.34375 0.09375q0.28125 0 0.8125 -0.1875l0.171875 1.5625q-0.703125 0.296875 -1.59375 0.296875q-0.546875 0 -0.984375 -0.171875q-0.421875 -0.1875 -0.640625 -0.46875q-0.203125 -0.296875 -0.28125 -0.796875q-0.0625 -0.359375 -0.0625 -1.421875l0 -3.3125l-0.921875 0l0 -1.59375l0.921875 0l0 -1.515625l2.015625 -1.171875l0 2.6875l1.375 0zm1.3962402 -1.03125l0 -1.859375l2.015625 0l0 1.859375l-2.015625 0zm0 8.625l0 -7.59375l2.015625 0l0 7.59375l-2.015625 0zm3.6188354 -3.90625q0 -1.0 0.484375 -1.9375q0.5 -0.9375 1.40625 -1.421875q0.90625 -0.5 2.015625 -0.5q1.71875 0 2.828125 1.125q1.109375 1.109375 1.109375 2.8125q0 1.734375 -1.125 2.875q-1.109375 1.125 -2.796875 1.125q-1.046875 0 -2.0 -0.46875q-0.9375 -0.46875 -1.4375 -1.375q-0.484375 -0.921875 -0.484375 -2.234375zm2.046875 0.109375q0 1.125 0.53125 1.734375q0.546875 0.59375 1.34375 0.59375q0.78125 0 1.3125 -0.59375q0.53125 -0.609375 0.53125 -1.75q0 -1.125 -0.53125 -1.71875q-0.53125 -0.609375 -1.3125 -0.609375q-0.796875 0 -1.34375 0.609375q-0.53125 0.59375 -0.53125 1.734375zm14.280762 3.796875l-2.015625 0l0 -3.875q0 -1.234375 -0.125 -1.59375q-0.125 -0.359375 -0.421875 -0.5625q-0.296875 -0.203125 -0.703125 -0.203125q-0.515625 0 -0.9375 0.296875q-0.40625 0.28125 -0.5625 0.75q-0.15625 0.46875 -0.15625 1.75l0 3.4375l-2.015625 0l0 -7.59375l1.875 0l0 1.109375q1.0 -1.28125 2.5 -1.28125q0.671875 0 1.21875 0.234375q0.546875 0.234375 0.828125 0.609375q0.296875 0.375 0.40625 0.84375q0.109375 0.46875 0.109375 1.359375l0 4.71875zm1.3276367 -2.171875l2.015625 -0.296875q0.125 0.578125 0.515625 0.890625q0.40625 0.296875 1.109375 0.296875q0.78125 0 1.171875 -0.28125q0.265625 -0.203125 0.265625 -0.546875q0 -0.21875 -0.140625 -0.375q-0.15625 -0.140625 -0.671875 -0.265625q-2.4375 -0.53125 -3.078125 -0.984375q-0.90625 -0.609375 -0.90625 -1.703125q0 -0.984375 0.78125 -1.65625q0.78125 -0.671875 2.421875 -0.671875q1.546875 0 2.3125 0.515625q0.765625 0.5 1.046875 1.484375l-1.90625 0.359375q-0.109375 -0.453125 -0.453125 -0.6875q-0.34375 -0.234375 -0.96875 -0.234375q-0.796875 0 -1.140625 0.21875q-0.234375 0.15625 -0.234375 0.40625q0 0.21875 0.203125 0.375q0.28125 0.203125 1.875 0.5625q1.609375 0.359375 2.25 0.890625q0.625 0.546875 0.625 1.5q0 1.046875 -0.875 1.796875q-0.859375 0.75 -2.578125 0.75q-1.546875 0 -2.453125 -0.625q-0.90625 -0.640625 -1.1875 -1.71875z" fill-rule="nonzero"/><path fill="#ff0000" d="m478.32965 93.78882l2.0625 -0.203125q0.1875 1.03125 0.75 1.515625q0.578125 0.484375 1.53125 0.484375q1.03125 0 1.546875 -0.421875q0.515625 -0.4375 0.515625 -1.015625q0 -0.375 -0.21875 -0.625q-0.21875 -0.265625 -0.75 -0.46875q-0.375 -0.125 -1.703125 -0.453125q-1.703125 -0.421875 -2.390625 -1.03125q-0.96875 -0.875 -0.96875 -2.125q0 -0.796875 0.453125 -1.484375q0.453125 -0.703125 1.3125 -1.0625q0.859375 -0.375 2.0625 -0.375q1.984375 0 2.96875 0.875q1.0 0.859375 1.0625 2.296875l-2.125 0.09375q-0.140625 -0.796875 -0.59375 -1.15625q-0.4375 -0.359375 -1.328125 -0.359375q-0.921875 0 -1.453125 0.390625q-0.328125 0.234375 -0.328125 0.640625q0 0.375 0.3125 0.640625q0.40625 0.34375 1.9375 0.703125q1.546875 0.359375 2.28125 0.75q0.75 0.390625 1.171875 1.078125q0.421875 0.671875 0.421875 1.65625q0 0.90625 -0.5 1.703125q-0.5 0.78125 -1.421875 1.171875q-0.921875 0.375 -2.28125 0.375q-1.984375 0 -3.0625 -0.921875q-1.0625 -0.921875 -1.265625 -2.671875zm16.91623 -1.953125l-1.96875 0.359375q-0.109375 -0.59375 -0.46875 -0.890625q-0.34375 -0.296875 -0.90625 -0.296875q-0.75 0 -1.203125 0.515625q-0.453125 0.515625 -0.453125 1.734375q0 1.359375 0.453125 1.921875q0.453125 0.546875 1.21875 0.546875q0.578125 0 0.9375 -0.328125q0.375 -0.328125 0.515625 -1.109375l1.984375 0.328125q-0.3125 1.359375 -1.1875 2.0625q-0.875 0.6875 -2.328125 0.6875q-1.671875 0 -2.671875 -1.046875q-0.984375 -1.0625 -0.984375 -2.921875q0 -1.875 0.984375 -2.921875q1.0 -1.046875 2.703125 -1.046875q1.390625 0 2.203125 0.59375q0.828125 0.59375 1.171875 1.8125zm5.9323425 2.9375l2.0 0.34375q-0.375 1.09375 -1.21875 1.671875q-0.828125 0.578125 -2.078125 0.578125q-1.984375 0 -2.9375 -1.296875q-0.75 -1.03125 -0.75 -2.625q0 -1.875 0.984375 -2.9375q0.984375 -1.078125 2.5 -1.078125q1.6875 0 2.671875 1.125q0.984375 1.109375 0.9375 3.421875l-5.03125 0q0.015625 0.890625 0.484375 1.390625q0.46875 0.5 1.15625 0.5q0.46875 0 0.78125 -0.25q0.328125 -0.265625 0.5 -0.84375zm0.109375 -2.03125q-0.015625 -0.875 -0.453125 -1.328125q-0.421875 -0.453125 -1.03125 -0.453125q-0.671875 0 -1.09375 0.484375q-0.421875 0.46875 -0.421875 1.296875l3.0 0zm10.557373 4.453125l-2.015625 0l0 -3.875q0 -1.234375 -0.125 -1.59375q-0.125 -0.359375 -0.421875 -0.5625q-0.296875 -0.203125 -0.703125 -0.203125q-0.515625 0 -0.9375 0.296875q-0.40625 0.28125 -0.5625 0.75q-0.15625 0.46875 -0.15625 1.75l0 3.4375l-2.015625 0l0 -7.59375l1.875 0l0 1.109375q1.0 -1.28125 2.5 -1.28125q0.671875 0 1.21875 0.234375q0.546875 0.234375 0.828125 0.609375q0.296875 0.375 0.40625 0.84375q0.109375 0.46875 0.109375 1.359375l0 4.71875zm3.5463867 -5.28125l-1.828125 -0.328125q0.296875 -1.109375 1.046875 -1.625q0.765625 -0.53125 2.234375 -0.53125q1.359375 0 2.015625 0.3125q0.65625 0.3125 0.921875 0.8125q0.265625 0.484375 0.265625 1.796875l-0.015625 2.34375q0 1.0 0.09375 1.484375q0.09375 0.46875 0.359375 1.015625l-1.984375 0q-0.078125 -0.203125 -0.203125 -0.59375q-0.046875 -0.171875 -0.0625 -0.234375q-0.515625 0.5 -1.109375 0.75q-0.578125 0.25 -1.25 0.25q-1.171875 0 -1.859375 -0.640625q-0.671875 -0.640625 -0.671875 -1.609375q0 -0.640625 0.3125 -1.140625q0.3125 -0.515625 0.859375 -0.78125q0.5625 -0.265625 1.609375 -0.46875q1.40625 -0.265625 1.953125 -0.484375l0 -0.203125q0 -0.578125 -0.296875 -0.828125q-0.28125 -0.25 -1.078125 -0.25q-0.53125 0 -0.84375 0.21875q-0.296875 0.203125 -0.46875 0.734375zm2.6875 1.625q-0.390625 0.140625 -1.234375 0.328125q-0.828125 0.171875 -1.09375 0.34375q-0.390625 0.265625 -0.390625 0.703125q0 0.421875 0.3125 0.734375q0.3125 0.296875 0.8125 0.296875q0.53125 0 1.03125 -0.359375q0.359375 -0.265625 0.484375 -0.65625q0.078125 -0.265625 0.078125 -0.984375l0 -0.40625zm5.885437 3.65625l-2.015625 0l0 -7.59375l1.859375 0l0 1.078125q0.484375 -0.765625 0.859375 -1.0q0.390625 -0.25 0.875 -0.25q0.6875 0 1.328125 0.375l-0.625 1.75q-0.5 -0.328125 -0.9375 -0.328125q-0.421875 0 -0.71875 0.234375q-0.296875 0.234375 -0.46875 0.84375q-0.15625 0.609375 -0.15625 2.546875l0 2.34375zm3.7661743 -8.625l0 -1.859375l2.015625 0l0 1.859375l-2.015625 0zm0 8.625l0 -7.59375l2.015625 0l0 7.59375l-2.015625 0zm3.6188354 -3.90625q0 -1.0 0.484375 -1.9375q0.5 -0.9375 1.40625 -1.421875q0.90625 -0.5 2.015625 -0.5q1.71875 0 2.828125 1.125q1.109375 1.109375 1.109375 2.8125q0 1.734375 -1.125 2.875q-1.109375 1.125 -2.796875 1.125q-1.046875 0 -2.0 -0.46875q-0.9375 -0.46875 -1.4375 -1.375q-0.484375 -0.921875 -0.484375 -2.234375zm2.046875 0.109375q0 1.125 0.53125 1.734375q0.546875 0.59375 1.34375 0.59375q0.78125 0 1.3125 -0.59375q0.53125 -0.609375 0.53125 -1.75q0 -1.125 -0.53125 -1.71875q-0.53125 -0.609375 -1.3125 -0.609375q-0.796875 0 -1.34375 0.609375q-0.53125 0.59375 -0.53125 1.734375z" fill-rule="nonzero"/><path fill="#ff462b" d="m229.60458 88.501274l82.58267 -37.49606l82.5827 37.49606l-82.5827 37.496063z" fill-rule="evenodd"/><path fill="#000000" d="m283.84814 85.987526l1.109375 0l0 -0.578125q0 -0.953125 0.203125 -1.421875q0.21875 -0.484375 0.765625 -0.78125q0.546875 -0.296875 1.375 -0.296875q0.859375 0 1.6875 0.265625l-0.28125 1.390625q-0.46875 -0.109375 -0.921875 -0.109375q-0.4375 0 -0.625 0.203125q-0.1875 0.203125 -0.1875 0.78125l0 0.546875l1.5 0l0 1.578125l-1.5 0l0 6.015625l-2.015625 0l0 -6.015625l-1.109375 0l0 -1.578125zm5.3025208 3.6875q0 -1.0 0.484375 -1.9375q0.5 -0.9375 1.40625 -1.421875q0.90625 -0.5 2.015625 -0.5q1.71875 0 2.828125 1.125q1.109375 1.109375 1.109375 2.8125q0 1.734375 -1.125 2.875q-1.109375 1.125 -2.796875 1.125q-1.046875 0 -2.0 -0.46875q-0.9375 -0.46875 -1.4375 -1.375q-0.484375 -0.921875 -0.484375 -2.234375zm2.046875 0.109375q0 1.125 0.53125 1.734375q0.546875 0.59375 1.34375 0.59375q0.78125 0 1.3125 -0.59375q0.53125 -0.609375 0.53125 -1.75q0 -1.125 -0.53125 -1.71875q-0.53125 -0.609375 -1.3125 -0.609375q-0.796875 0 -1.34375 0.609375q-0.53125 0.59375 -0.53125 1.734375zm9.296387 3.796875l-2.015625 0l0 -7.59375l1.859375 0l0 1.078125q0.484375 -0.765625 0.859375 -1.0q0.390625 -0.25 0.875 -0.25q0.6875 0 1.328125 0.375l-0.625 1.75q-0.5 -0.328125 -0.9375 -0.328125q-0.421875 0 -0.71875 0.234375q-0.296875 0.234375 -0.46875 0.84375q-0.15625 0.609375 -0.15625 2.546875l0 2.34375zm8.172363 -2.421875l2.0 0.34375q-0.375 1.09375 -1.21875 1.671875q-0.828125 0.578125 -2.078125 0.578125q-1.984375 0 -2.9375 -1.296875q-0.75 -1.03125 -0.75 -2.625q0 -1.875 0.984375 -2.9375q0.984375 -1.078125 2.5 -1.078125q1.6875 0 2.671875 1.125q0.984375 1.109375 0.9375 3.421875l-5.03125 0q0.015625 0.890625 0.484375 1.390625q0.46875 0.5 1.15625 0.5q0.46875 0 0.78125 -0.25q0.328125 -0.265625 0.5 -0.84375zm0.109375 -2.03125q-0.015625 -0.875 -0.453125 -1.328125q-0.421875 -0.453125 -1.03125 -0.453125q-0.671875 0 -1.09375 0.484375q-0.421875 0.46875 -0.421875 1.296875l3.0 0zm10.260498 -0.90625l-1.96875 0.359375q-0.109375 -0.59375 -0.46875 -0.890625q-0.34375 -0.296875 -0.90625 -0.296875q-0.75 0 -1.203125 0.515625q-0.453125 0.515625 -0.453125 1.734375q0 1.359375 0.453125 1.921875q0.453125 0.546875 1.21875 0.546875q0.578125 0 0.9375 -0.328125q0.375 -0.328125 0.515625 -1.109375l1.984375 0.328125q-0.3125 1.359375 -1.1875 2.0625q-0.875 0.6875 -2.328125 0.6875q-1.671875 0 -2.671875 -1.046875q-0.984375 -1.0625 -0.984375 -2.921875q0 -1.875 0.984375 -2.921875q1.0 -1.046875 2.703125 -1.046875q1.390625 0 2.203125 0.59375q0.828125 0.59375 1.171875 1.8125zm3.0417175 0.078125l-1.828125 -0.328125q0.296875 -1.109375 1.046875 -1.625q0.765625 -0.53125 2.234375 -0.53125q1.359375 0 2.015625 0.3125q0.65625 0.3125 0.921875 0.8125q0.265625 0.484375 0.265625 1.796875l-0.015625 2.34375q0 1.0 0.09375 1.484375q0.09375 0.46875 0.359375 1.015625l-1.984375 0q-0.078125 -0.203125 -0.203125 -0.59375q-0.046875 -0.171875 -0.0625 -0.234375q-0.515625 0.5 -1.109375 0.75q-0.578125 0.25 -1.25 0.25q-1.171875 0 -1.859375 -0.640625q-0.671875 -0.640625 -0.671875 -1.609375q0 -0.640625 0.3125 -1.140625q0.3125 -0.515625 0.859375 -0.78125q0.5625 -0.265625 1.609375 -0.46875q1.40625 -0.265625 1.953125 -0.484375l0 -0.203125q0 -0.578125 -0.296875 -0.828125q-0.28125 -0.25 -1.078125 -0.25q-0.53125 0 -0.84375 0.21875q-0.296875 0.203125 -0.46875 0.734375zm2.6875 1.625q-0.390625 0.140625 -1.234375 0.328125q-0.828125 0.171875 -1.09375 0.34375q-0.390625 0.265625 -0.390625 0.703125q0 0.421875 0.3125 0.734375q0.3125 0.296875 0.8125 0.296875q0.53125 0 1.03125 -0.359375q0.359375 -0.265625 0.484375 -0.65625q0.078125 -0.265625 0.078125 -0.984375l0 -0.40625zm3.244873 1.484375l2.015625 -0.296875q0.125 0.578125 0.515625 0.890625q0.40625 0.296875 1.109375 0.296875q0.78125 0 1.171875 -0.28125q0.265625 -0.203125 0.265625 -0.546875q0 -0.21875 -0.140625 -0.375q-0.15625 -0.140625 -0.671875 -0.265625q-2.4375 -0.53125 -3.078125 -0.984375q-0.90625 -0.609375 -0.90625 -1.703125q0 -0.984375 0.78125 -1.65625q0.78125 -0.671875 2.421875 -0.671875q1.546875 0 2.3125 0.515625q0.765625 0.5 1.046875 1.484375l-1.90625 0.359375q-0.109375 -0.453125 -0.453125 -0.6875q-0.34375 -0.234375 -0.96875 -0.234375q-0.796875 0 -1.140625 0.21875q-0.234375 0.15625 -0.234375 0.40625q0 0.21875 0.203125 0.375q0.28125 0.203125 1.875 0.5625q1.609375 0.359375 2.25 0.890625q0.625 0.546875 0.625 1.5q0 1.046875 -0.875 1.796875q-0.859375 0.75 -2.578125 0.75q-1.546875 0 -2.453125 -0.625q-0.90625 -0.640625 -1.1875 -1.71875zm12.338593 -5.421875l0 1.59375l-1.375 0l0 3.0625q0 0.9375 0.03125 1.09375q0.046875 0.140625 0.1875 0.25q0.140625 0.09375 0.34375 0.09375q0.28125 0 0.8125 -0.1875l0.171875 1.5625q-0.703125 0.296875 -1.59375 0.296875q-0.546875 0 -0.984375 -0.171875q-0.421875 -0.1875 -0.640625 -0.46875q-0.203125 -0.296875 -0.28125 -0.796875q-0.0625 -0.359375 -0.0625 -1.421875l0 -3.3125l-0.921875 0l0 -1.59375l0.921875 0l0 -1.515625l2.015625 -1.171875l0 2.6875l1.375 0z" fill-rule="nonzero"/><path fill="#000000" fill-opacity="0.0" d="m185.08792 88.5l44.503937 0" fill-rule="evenodd"/><path stroke="#ff462b" stroke-width="2.0" stroke-linejoin="round" stroke-linecap="butt" d="m185.08792 88.5l32.503937 0" fill-rule="evenodd"/><path fill="#ff462b" stroke="#ff462b" stroke-width="2.0" stroke-linecap="butt" d="m217.59186 91.80347l9.076202 -3.3034668l-9.076202 -3.3034668z" fill-rule="evenodd"/><path fill="#000000" fill-opacity="0.0" d="m394.76996 88.501274l31.40155 0" fill-rule="evenodd"/><path stroke="#ff462b" stroke-width="2.0" stroke-linejoin="round" stroke-linecap="butt" d="m394.76993 88.501274l19.40158 0" fill-rule="evenodd"/><path fill="#ff462b" stroke="#ff462b" stroke-width="2.0" stroke-linecap="butt" d="m414.1715 91.80473l9.076202 -3.3034592l-9.076202 -3.3034668z" fill-rule="evenodd"/><path fill="#283282" d="m229.60367 167.0538l165.16537 0l0 53.858063l-10.771881 10.771866l-154.3935 0z" fill-rule="evenodd"/><path fill="#1f2767" d="m383.99716 231.68373l2.154358 -8.617493l8.617523 -2.1543732z" fill-rule="evenodd"/><path fill="#000000" fill-opacity="0.0" d="m383.99716 231.68373l2.154358 -8.617493l8.617523 -2.1543732l-10.771881 10.771866l-154.3935 0l0 -64.62993l165.16537 0l0 53.858063" fill-rule="evenodd"/><path fill="#ffffff" d="m305.13425 190.06284l-1.859375 0l0 -1.109375q-0.46875 0.640625 -1.109375 0.96875q-0.625 0.3125 -1.265625 0.3125q-1.3125 0 -2.25 -1.046875q-0.9375 -1.0625 -0.9375 -2.953125q0 -1.9375 0.90625 -2.9375q0.921875 -1.0 2.3125 -1.0q1.265625 0 2.203125 1.046875l0 -3.765625l2.0 0l0 10.484375zm-5.359375 -3.96875q0 1.21875 0.328125 1.765625q0.5 0.78125 1.359375 0.78125q0.703125 0 1.1875 -0.578125q0.484375 -0.59375 0.484375 -1.765625q0 -1.3125 -0.46875 -1.890625q-0.46875 -0.578125 -1.203125 -0.578125q-0.71875 0 -1.203125 0.578125q-0.484375 0.5625 -0.484375 1.6875zm8.858856 -1.3125l-1.828125 -0.328125q0.296875 -1.109375 1.046875 -1.625q0.765625 -0.53125 2.234375 -0.53125q1.359375 0 2.015625 0.3125q0.65625 0.3125 0.921875 0.8125q0.265625 0.484375 0.265625 1.796875l-0.015625 2.34375q0 1.0 0.09375 1.484375q0.09375 0.46875 0.359375 1.015625l-1.984375 0q-0.078125 -0.203125 -0.203125 -0.59375q-0.046875 -0.171875 -0.0625 -0.234375q-0.515625 0.5 -1.109375 0.75q-0.578125 0.25 -1.25 0.25q-1.171875 0 -1.859375 -0.640625q-0.671875 -0.640625 -0.671875 -1.609375q0 -0.640625 0.3125 -1.140625q0.3125 -0.515625 0.859375 -0.78125q0.5625 -0.265625 1.609375 -0.46875q1.40625 -0.265625 1.953125 -0.484375l0 -0.203125q0 -0.578125 -0.296875 -0.828125q-0.28125 -0.25 -1.078125 -0.25q-0.53125 0 -0.84375 0.21875q-0.296875 0.203125 -0.46875 0.734375zm2.6875 1.625q-0.390625 0.140625 -1.234375 0.328125q-0.828125 0.171875 -1.09375 0.34375q-0.390625 0.265625 -0.390625 0.703125q0 0.421875 0.3125 0.734375q0.3125 0.296875 0.8125 0.296875q0.53125 0 1.03125 -0.359375q0.359375 -0.265625 0.484375 -0.65625q0.078125 -0.265625 0.078125 -0.984375l0 -0.40625zm7.432373 -3.9375l0 1.59375l-1.375 0l0 3.0625q0 0.9375 0.03125 1.09375q0.046875 0.140625 0.1875 0.25q0.140625 0.09375 0.34375 0.09375q0.28125 0 0.8125 -0.1875l0.171875 1.5625q-0.703125 0.296875 -1.59375 0.296875q-0.546875 0 -0.984375 -0.171875q-0.421875 -0.1875 -0.640625 -0.46875q-0.203125 -0.296875 -0.28125 -0.796875q-0.0625 -0.359375 -0.0625 -1.421875l0 -3.3125l-0.921875 0l0 -1.59375l0.921875 0l0 -1.515625l2.015625 -1.171875l0 2.6875l1.375 0zm5.8025208 5.171875l2.0 0.34375q-0.375 1.09375 -1.21875 1.671875q-0.828125 0.578125 -2.078125 0.578125q-1.984375 0 -2.9375 -1.296875q-0.75 -1.03125 -0.75 -2.625q0 -1.875 0.984375 -2.9375q0.984375 -1.078125 2.5 -1.078125q1.6875 0 2.671875 1.125q0.984375 1.109375 0.9375 3.421875l-5.03125 0q0.015625 0.890625 0.484375 1.390625q0.46875 0.5 1.15625 0.5q0.46875 0 0.78125 -0.25q0.328125 -0.265625 0.5 -0.84375zm0.109375 -2.03125q-0.015625 -0.875 -0.453125 -1.328125q-0.421875 -0.453125 -1.03125 -0.453125q-0.671875 0 -1.09375 0.484375q-0.421875 0.46875 -0.421875 1.296875l3.0 0z" fill-rule="nonzero"/><path fill="#ff0000" d="m281.76273 204.65659l2.0625 -0.203125q0.1875 1.03125 0.75 1.515625q0.578125 0.484375 1.53125 0.484375q1.03125 0 1.546875 -0.421875q0.515625 -0.4375 0.515625 -1.015625q0 -0.375 -0.21875 -0.625q-0.21875 -0.265625 -0.75 -0.46875q-0.375 -0.125 -1.703125 -0.453125q-1.703125 -0.421875 -2.390625 -1.03125q-0.96875 -0.875 -0.96875 -2.125q0 -0.796875 0.453125 -1.484375q0.453125 -0.703125 1.3125 -1.0625q0.859375 -0.375 2.0625 -0.375q1.984375 0 2.96875 0.875q1.0 0.859375 1.0625 2.296875l-2.125 0.09375q-0.140625 -0.796875 -0.59375 -1.15625q-0.4375 -0.359375 -1.328125 -0.359375q-0.921875 0 -1.453125 0.390625q-0.328125 0.234375 -0.328125 0.640625q0 0.375 0.3125 0.640625q0.40625 0.34375 1.9375 0.703125q1.546875 0.359375 2.28125 0.75q0.75 0.390625 1.171875 1.078125q0.421875 0.671875 0.421875 1.65625q0 0.90625 -0.5 1.703125q-0.5 0.78125 -1.421875 1.171875q-0.921875 0.375 -2.28125 0.375q-1.984375 0 -3.0625 -0.921875q-1.0625 -0.921875 -1.265625 -2.671875zm16.91623 -1.953125l-1.96875 0.359375q-0.109375 -0.59375 -0.46875 -0.890625q-0.34375 -0.296875 -0.90625 -0.296875q-0.75 0 -1.203125 0.515625q-0.453125 0.515625 -0.453125 1.734375q0 1.359375 0.453125 1.921875q0.453125 0.546875 1.21875 0.546875q0.578125 0 0.9375 -0.328125q0.375 -0.328125 0.515625 -1.109375l1.984375 0.328125q-0.3125 1.359375 -1.1875 2.0625q-0.875 0.6875 -2.328125 0.6875q-1.671875 0 -2.671875 -1.046875q-0.984375 -1.0625 -0.984375 -2.921875q0 -1.875 0.984375 -2.921875q1.0 -1.046875 2.703125 -1.046875q1.390625 0 2.203125 0.59375q0.828125 0.59375 1.171875 1.8125zm5.9323425 2.9375l2.0 0.34375q-0.375 1.09375 -1.21875 1.671875q-0.828125 0.578125 -2.078125 0.578125q-1.984375 0 -2.9375 -1.296875q-0.75 -1.03125 -0.75 -2.625q0 -1.875 0.984375 -2.9375q0.984375 -1.078125 2.5 -1.078125q1.6875 0 2.671875 1.125q0.984375 1.109375 0.9375 3.421875l-5.03125 0q0.015625 0.890625 0.484375 1.390625q0.46875 0.5 1.15625 0.5q0.46875 0 0.78125 -0.25q0.328125 -0.265625 0.5 -0.84375zm0.109375 -2.03125q-0.015625 -0.875 -0.453125 -1.328125q-0.421875 -0.453125 -1.03125 -0.453125q-0.671875 0 -1.09375 0.484375q-0.421875 0.46875 -0.421875 1.296875l3.0 0zm10.557373 4.453125l-2.015625 0l0 -3.875q0 -1.234375 -0.125 -1.59375q-0.125 -0.359375 -0.421875 -0.5625q-0.296875 -0.203125 -0.703125 -0.203125q-0.515625 0 -0.9375 0.296875q-0.40625 0.28125 -0.5625 0.75q-0.15625 0.46875 -0.15625 1.75l0 3.4375l-2.015625 0l0 -7.59375l1.875 0l0 1.109375q1.0 -1.28125 2.5 -1.28125q0.671875 0 1.21875 0.234375q0.546875 0.234375 0.828125 0.609375q0.296875 0.375 0.40625 0.84375q0.109375 0.46875 0.109375 1.359375l0 4.71875zm3.5463562 -5.28125l-1.828125 -0.328125q0.296875 -1.109375 1.046875 -1.625q0.765625 -0.53125 2.234375 -0.53125q1.359375 0 2.015625 0.3125q0.65625 0.3125 0.921875 0.8125q0.265625 0.484375 0.265625 1.796875l-0.015625 2.34375q0 1.0 0.09375 1.484375q0.09375 0.46875 0.359375 1.015625l-1.984375 0q-0.078125 -0.203125 -0.203125 -0.59375q-0.046875 -0.171875 -0.0625 -0.234375q-0.515625 0.5 -1.109375 0.75q-0.578125 0.25 -1.25 0.25q-1.171875 0 -1.859375 -0.640625q-0.671875 -0.640625 -0.671875 -1.609375q0 -0.640625 0.3125 -1.140625q0.3125 -0.515625 0.859375 -0.78125q0.5625 -0.265625 1.609375 -0.46875q1.40625 -0.265625 1.953125 -0.484375l0 -0.203125q0 -0.578125 -0.296875 -0.828125q-0.28125 -0.25 -1.078125 -0.25q-0.53125 0 -0.84375 0.21875q-0.296875 0.203125 -0.46875 0.734375zm2.6875 1.625q-0.390625 0.140625 -1.234375 0.328125q-0.828125 0.171875 -1.09375 0.34375q-0.390625 0.265625 -0.390625 0.703125q0 0.421875 0.3125 0.734375q0.3125 0.296875 0.8125 0.296875q0.53125 0 1.03125 -0.359375q0.359375 -0.265625 0.484375 -0.65625q0.078125 -0.265625 0.078125 -0.984375l0 -0.40625zm5.885498 3.65625l-2.015625 0l0 -7.59375l1.859375 0l0 1.078125q0.484375 -0.765625 0.859375 -1.0q0.390625 -0.25 0.875 -0.25q0.6875 0 1.328125 0.375l-0.625 1.75q-0.5 -0.328125 -0.9375 -0.328125q-0.421875 0 -0.71875 0.234375q-0.296875 0.234375 -0.46875 0.84375q-0.15625 0.609375 -0.15625 2.546875l0 2.34375zm3.7661133 -8.625l0 -1.859375l2.015625 0l0 1.859375l-2.015625 0zm0 8.625l0 -7.59375l2.015625 0l0 7.59375l-2.015625 0zm3.618866 -3.90625q0 -1.0 0.484375 -1.9375q0.5 -0.9375 1.40625 -1.421875q0.90625 -0.5 2.015625 -0.5q1.71875 0 2.828125 1.125q1.109375 1.109375 1.109375 2.8125q0 1.734375 -1.125 2.875q-1.109375 1.125 -2.796875 1.125q-1.046875 0 -2.0 -0.46875q-0.9375 -0.46875 -1.4375 -1.375q-0.484375 -0.921875 -0.484375 -2.234375zm2.046875 0.109375q0 1.125 0.53125 1.734375q0.546875 0.59375 1.34375 0.59375q0.78125 0 1.3125 -0.59375q0.53125 -0.609375 0.53125 -1.75q0 -1.125 -0.53125 -1.71875q-0.53125 -0.609375 -1.3125 -0.609375q-0.796875 0 -1.34375 0.609375q-0.53125 0.59375 -0.53125 1.734375z" fill-rule="nonzero"/><path fill="#000000" fill-opacity="0.0" d="m312.18634 167.0538l0 -41.07086" fill-rule="evenodd"/><path stroke="#ff462b" stroke-width="2.0" stroke-linejoin="round" stroke-linecap="butt" d="m312.18634 167.0538l0 -29.070862" fill-rule="evenodd"/><path fill="#ff462b" stroke="#ff462b" stroke-width="2.0" stroke-linecap="butt" d="m315.4898 137.98294l-3.3034668 -9.076202l-3.3034668 9.076202z" fill-rule="evenodd"/></g></svg>