<svg version="1.1" viewBox="0.0 0.0 625.0839895013123 306.16272965879267" fill="none" stroke="none" stroke-linecap="square" stroke-miterlimit="10" xmlns:xlink="http://www.w3.org/1999/xlink" xmlns="http://www.w3.org/2000/svg"><clipPath id="p.0"><path d="m0 0l625.084 0l0 306.16272l-625.084 0l0 -306.16272z" clip-rule="nonzero"/></clipPath><g clip-path="url(#p.0)"><path fill="#000000" fill-opacity="0.0" d="m0 0l625.084 0l0 306.16272l-625.084 0z" fill-rule="evenodd"/><path fill="#000000" fill-opacity="0.0" d="m85.37533 249.28871l240.50394 0l0 58.173233l-240.50394 0z" fill-rule="evenodd"/><path fill="#000000" d="m95.6097 273.6487l0 -11.453125l4.328125 0q1.140625 0 1.734375 0.109375q0.84375 0.140625 1.40625 0.53125q0.578125 0.390625 0.921875 1.109375q0.359375 0.703125 0.359375 1.5625q0 1.453125 -0.9375 2.46875q-0.921875 1.015625 -3.359375 1.015625l-2.9375 0l0 4.65625l-1.515625 0zm1.515625 -6.015625l2.96875 0q1.46875 0 2.078125 -0.546875q0.625 -0.546875 0.625 -1.53125q0 -0.71875 -0.375 -1.234375q-0.359375 -0.515625 -0.953125 -0.671875q-0.375 -0.109375 -1.40625 -0.109375l-2.9375 0l0 4.09375zm8.984375 -3.828125l0 -1.609375l1.40625 0l0 1.609375l-1.40625 0zm0 9.84375l0 -8.296875l1.40625 0l0 8.296875l-1.40625 0zm3.5546875 3.1875l0 -11.484375l1.28125 0l0 1.078125q0.453125 -0.640625 1.015625 -0.953125q0.578125 -0.3125 1.390625 -0.3125q1.0625 0 1.875 0.546875q0.8125 0.546875 1.21875 1.546875q0.421875 0.984375 0.421875 2.171875q0 1.28125 -0.46875 2.296875q-0.453125 1.015625 -1.328125 1.5625q-0.859375 0.546875 -1.828125 0.546875q-0.703125 0 -1.265625 -0.296875q-0.546875 -0.296875 -0.90625 -0.75l0 4.046875l-1.40625 0zm1.265625 -7.296875q0 1.609375 0.640625 2.375q0.65625 0.765625 1.578125 0.765625q0.9375 0 1.609375 -0.796875q0.671875 -0.796875 0.671875 -2.453125q0 -1.59375 -0.65625 -2.375q-0.65625 -0.796875 -1.5625 -0.796875q-0.890625 0 -1.59375 0.84375q-0.6875 0.84375 -0.6875 2.4375zm13.3046875 1.4375l1.453125 0.171875q-0.34375 1.28125 -1.28125 1.984375q-0.921875 0.703125 -2.359375 0.703125q-1.828125 0 -2.890625 -1.125q-1.0625 -1.125 -1.0625 -3.140625q0 -2.09375 1.078125 -3.25q1.078125 -1.15625 2.796875 -1.15625q1.65625 0 2.703125 1.140625q1.0625 1.125 1.0625 3.171875q0 0.125 0 0.375l-6.1875 0q0.078125 1.375 0.765625 2.109375q0.703125 0.71875 1.734375 0.71875q0.78125 0 1.328125 -0.40625q0.546875 -0.40625 0.859375 -1.296875zm-4.609375 -2.28125l4.625 0q-0.09375 -1.046875 -0.53125 -1.5625q-0.671875 -0.8125 -1.734375 -0.8125q-0.96875 0 -1.640625 0.65625q-0.65625 0.640625 -0.71875 1.71875zm7.8046875 4.953125l0 -11.453125l1.4062576 0l0 11.453125l-1.4062576 0zm3.5859451 -9.84375l0 -1.609375l1.40625 0l0 1.609375l-1.40625 0zm0 9.84375l0 -8.296875l1.40625 0l0 8.296875l-1.40625 0zm3.5546875 0l0 -8.296875l1.265625 0l0 1.171875q0.90625 -1.359375 2.640625 -1.359375q0.75 0 1.375 0.265625q0.625 0.265625 0.9375 0.703125q0.3125 0.4375 0.4375 1.046875q0.078125 0.390625 0.078125 1.359375l0 5.109375l-1.40625 0l0 -5.046875q0 -0.859375 -0.171875 -1.28125q-0.15625 -0.4375 -0.578125 -0.6875q-0.40625 -0.25 -0.96875 -0.25q-0.90625 0 -1.5625 0.578125q-0.640625 0.5625 -0.640625 2.15625l0 4.53125l-1.40625 0zm14.5703125 -2.671875l1.453125 0.171875q-0.34375 1.28125 -1.28125 1.984375q-0.921875 0.703125 -2.359375 0.703125q-1.828125 0 -2.890625 -1.125q-1.0625 -1.125 -1.0625 -3.140625q0 -2.09375 1.078125 -3.25q1.078125 -1.15625 2.796875 -1.15625q1.65625 0 2.703125 1.140625q1.0625 1.125 1.0625 3.171875q0 0.125 0 0.375l-6.1875 0q0.078125 1.375 0.765625 2.109375q0.703125 0.71875 1.734375 0.71875q0.78125 0 1.328125 -0.40625q0.546875 -0.40625 0.859375 -1.296875zm-4.609375 -2.28125l4.625 0q-0.09375 -1.046875 -0.53125 -1.5625q-0.671875 -0.8125 -1.734375 -0.8125q-0.96875 0 -1.640625 0.65625q-0.65625 0.640625 -0.71875 1.71875zm6.5234375 8.140625l0 -1.015625l9.328125 0l0 1.015625l-9.328125 0zm10.5390625 -3.1875l0 -7.203125l-1.234375 0l0 -1.09375l1.234375 0l0 -0.890625q0 -0.828125 0.15625 -1.234375q0.203125 -0.546875 0.703125 -0.890625q0.515625 -0.34375 1.4375 -0.34375q0.59375 0 1.3125 0.140625l-0.203125 1.234375q-0.4375 -0.078125 -0.828125 -0.078125q-0.640625 0 -0.90625 0.28125q-0.265625 0.265625 -0.265625 1.015625l0 0.765625l1.609375 0l0 1.09375l-1.609375 0l0 7.203125l-1.40625 0zm3.5859375 -4.15625q0 -2.296875 1.28125 -3.40625q1.078125 -0.921875 2.609375 -0.921875q1.71875 0 2.796875 1.125q1.09375 1.109375 1.09375 3.09375q0 1.59375 -0.484375 2.515625q-0.484375 0.921875 -1.40625 1.4375q-0.90625 0.5 -2.0 0.5q-1.734375 0 -2.8125 -1.109375q-1.078125 -1.125 -1.078125 -3.234375zm1.453125 0q0 1.59375 0.6875 2.390625q0.703125 0.796875 1.75 0.796875q1.046875 0 1.734375 -0.796875q0.703125 -0.796875 0.703125 -2.4375q0 -1.53125 -0.703125 -2.328125q-0.6875 -0.796875 -1.734375 -0.796875q-1.046875 0 -1.75 0.796875q-0.6875 0.78125 -0.6875 2.375zm7.9609375 4.15625l0 -8.296875l1.265625 0l0 1.25q0.484375 -0.875 0.890625 -1.15625q0.40625 -0.28125 0.90625 -0.28125q0.703125 0 1.4375 0.453125l-0.484375 1.296875q-0.515625 -0.296875 -1.03125 -0.296875q-0.453125 0 -0.828125 0.28125q-0.359375 0.265625 -0.515625 0.765625q-0.234375 0.75 -0.234375 1.640625l0 4.34375l-1.40625 0zm11.015625 -2.671875l1.453125 0.171875q-0.34375 1.28125 -1.28125 1.984375q-0.921875 0.703125 -2.359375 0.703125q-1.828125 0 -2.890625 -1.125q-1.0625 -1.125 -1.0625 -3.140625q0 -2.09375 1.078125 -3.25q1.078125 -1.15625 2.796875 -1.15625q1.65625 0 2.703125 1.140625q1.0625 1.125 1.0625 3.171875q0 0.125 0 0.375l-6.1875 0q0.078125 1.375 0.765625 2.109375q0.703125 0.71875 1.734375 0.71875q0.78125 0 1.328125 -0.40625q0.546875 -0.40625 0.859375 -1.296875zm-4.609375 -2.28125l4.625 0q-0.09375 -1.046875 -0.53125 -1.5625q-0.671875 -0.8125 -1.734375 -0.8125q-0.96875 0 -1.640625 0.65625q-0.65625 0.640625 -0.71875 1.71875zm13.2421875 1.90625l1.390625 0.1875q-0.234375 1.421875 -1.171875 2.234375q-0.921875 0.8125 -2.28125 0.8125q-1.703125 0 -2.75 -1.109375q-1.03125 -1.125 -1.03125 -3.203125q0 -1.34375 0.4375 -2.34375q0.453125 -1.015625 1.359375 -1.515625q0.921875 -0.5 1.984375 -0.5q1.359375 0 2.21875 0.6875q0.859375 0.671875 1.09375 1.9375l-1.359375 0.203125q-0.203125 -0.828125 -0.703125 -1.25q-0.484375 -0.421875 -1.1875 -0.421875q-1.0625 0 -1.734375 0.765625q-0.65625 0.75 -0.65625 2.40625q0 1.671875 0.640625 2.4375q0.640625 0.75 1.671875 0.75q0.828125 0 1.375 -0.5q0.5625 -0.515625 0.703125 -1.578125zm8.0 2.015625q-0.78125 0.671875 -1.5 0.953125q-0.71875 0.265625 -1.546875 0.265625q-1.375 0 -2.109375 -0.671875q-0.734375 -0.671875 -0.734375 -1.703125q0 -0.609375 0.28125 -1.109375q0.28125 -0.515625 0.71875 -0.8125q0.453125 -0.3125 1.015625 -0.46875q0.421875 -0.109375 1.25 -0.203125q1.703125 -0.203125 2.515625 -0.484375q0 -0.296875 0 -0.375q0 -0.859375 -0.390625 -1.203125q-0.546875 -0.484375 -1.609375 -0.484375q-0.984375 0 -1.46875 0.359375q-0.46875 0.34375 -0.6875 1.21875l-1.375 -0.1875q0.1875 -0.875 0.609375 -1.421875q0.4375 -0.546875 1.25 -0.828125q0.8125 -0.296875 1.875 -0.296875q1.0625 0 1.71875 0.25q0.671875 0.25 0.984375 0.625q0.3125 0.375 0.4375 0.953125q0.078125 0.359375 0.078125 1.296875l0 1.875q0 1.96875 0.078125 2.484375q0.09375 0.515625 0.359375 1.0l-1.46875 0q-0.21875 -0.4375 -0.28125 -1.03125zm-0.109375 -3.140625q-0.765625 0.3125 -2.296875 0.53125q-0.875 0.125 -1.234375 0.28125q-0.359375 0.15625 -0.5625 0.46875q-0.1875 0.296875 -0.1875 0.65625q0 0.5625 0.421875 0.9375q0.4375 0.375 1.25 0.375q0.8125 0 1.4375 -0.34375q0.640625 -0.359375 0.9375 -0.984375q0.234375 -0.46875 0.234375 -1.40625l0 -0.515625zm3.0390625 1.6875l1.390625 -0.21875q0.109375 0.84375 0.640625 1.296875q0.546875 0.4375 1.5 0.4375q0.96875 0 1.4375 -0.390625q0.46875 -0.40625 0.46875 -0.9375q0 -0.46875 -0.40625 -0.75q-0.296875 -0.1875 -1.4375 -0.46875q-1.546875 -0.390625 -2.15625 -0.671875q-0.59375 -0.296875 -0.90625 -0.796875q-0.296875 -0.5 -0.296875 -1.109375q0 -0.5625 0.25 -1.03125q0.25 -0.46875 0.6875 -0.78125q0.328125 -0.25 0.890625 -0.40625q0.578125 -0.171875 1.21875 -0.171875q0.984375 0 1.71875 0.28125q0.734375 0.28125 1.078125 0.765625q0.359375 0.46875 0.5 1.28125l-1.375 0.1875q-0.09375 -0.640625 -0.546875 -1.0q-0.453125 -0.359375 -1.265625 -0.359375q-0.96875 0 -1.390625 0.328125q-0.40625 0.3125 -0.40625 0.734375q0 0.28125 0.171875 0.5q0.171875 0.21875 0.53125 0.375q0.21875 0.078125 1.25 0.359375q1.484375 0.390625 2.078125 0.65625q0.59375 0.25 0.921875 0.734375q0.34375 0.484375 0.34375 1.203125q0 0.703125 -0.421875 1.328125q-0.40625 0.609375 -1.1875 0.953125q-0.765625 0.34375 -1.734375 0.34375q-1.625 0 -2.46875 -0.671875q-0.84375 -0.671875 -1.078125 -2.0zm11.625 1.21875l0.203125 1.25q-0.59375 0.125 -1.0625 0.125q-0.765625 0 -1.1875 -0.234375q-0.421875 -0.25 -0.59375 -0.640625q-0.171875 -0.40625 -0.171875 -1.671875l0 -4.765625l-1.03125 0l0 -1.09375l1.03125 0l0 -2.0625l1.40625 -0.84375l0 2.90625l1.40625 0l0 1.09375l-1.40625 0l0 4.84375q0 0.609375 0.0625 0.78125q0.078125 0.171875 0.25 0.28125q0.171875 0.09375 0.484375 0.09375q0.234375 0 0.609375 -0.0625z" fill-rule="nonzero"/><path fill="#000000" fill-opacity="0.0" d="m48.87664 268.03683l40.97638 0" fill-rule="evenodd"/><path stroke="#0000ff" stroke-width="2.0" stroke-linejoin="round" stroke-linecap="butt" d="m48.87664 268.03683l28.97638 0" fill-rule="evenodd"/><path fill="#0000ff" stroke="#0000ff" stroke-width="2.0" stroke-linecap="butt" d="m77.85302 271.3403l9.076195 -3.3034668l-9.076195 -3.3034668z" fill-rule="evenodd"/><path fill="#283282" d="m19.293968 149.00525l145.82678 0l0 45.826584l-9.165543 9.165543l-136.66122 0z" fill-rule="evenodd"/><path fill="#1f2767" d="m155.9552 203.99738l1.8331146 -7.332428l7.332428 -1.8331146z" fill-rule="evenodd"/><path fill="#000000" fill-opacity="0.0" d="m155.9552 203.99738l1.8331146 -7.332428l7.332428 -1.8331146l-9.165543 9.165543l-136.66122 0l0 -54.992126l145.82678 0l0 45.826584" fill-rule="evenodd"/><path fill="#ffffff" d="m66.43189 169.87854l-1.265625 0l0 -2.46875q0 -0.78125 -0.09375 -1.015625q-0.078125 -0.234375 -0.265625 -0.359375q-0.1875 -0.125 -0.4375 -0.125q-0.328125 0 -0.5937538 0.1875q-0.265625 0.171875 -0.375 0.484375q-0.09375 0.296875 -0.09375 1.109375l0 2.1875l-1.28125 0l0 -4.84375l1.1875 0l0 0.71875q0.640625 -0.828125 1.5937538 -0.828125q0.421875 0 0.765625 0.15625q0.359375 0.15625 0.53125 0.390625q0.1875 0.234375 0.25 0.546875q0.078125 0.296875 0.078125 0.859375l0 3.0zm1.244873 0l0 -6.671875l1.28125 0l0 2.40625q0.59375 -0.6875 1.40625 -0.6875q0.890625 0 1.46875 0.640625q0.578125 0.640625 0.578125 1.84375q0 1.234375 -0.59375 1.90625q-0.59375 0.671875 -1.4375 0.671875q-0.40625 0 -0.8125 -0.203125q-0.40625 -0.21875 -0.703125 -0.609375l0 0.703125l-1.1875 0zm1.28125 -2.515625q0 0.75 0.234375 1.109375q0.328125 0.5 0.875 0.5q0.4375 0 0.734375 -0.359375q0.296875 -0.359375 0.296875 -1.140625q0 -0.828125 -0.3125 -1.1875q-0.296875 -0.375 -0.765625 -0.375q-0.453125 0 -0.765625 0.359375q-0.296875 0.359375 -0.296875 1.09375zm3.713623 4.359375l0 -0.828125l5.328125 0l0 0.828125l-5.328125 0zm8.172241 -6.6875l0 1.03125l-0.875 0l0 1.9375q0 0.59375 0.015625 0.703125q0.03125 0.09375 0.109375 0.15625q0.09375 0.0625 0.234375 0.0625q0.171875 0 0.515625 -0.125l0.109375 1.0q-0.453125 0.1875 -1.015625 0.1875q-0.34375 0 -0.625 -0.109375q-0.28125 -0.125 -0.421875 -0.296875q-0.125 -0.1875 -0.171875 -0.515625q-0.03125 -0.21875 -0.03125 -0.890625l0 -2.109375l-0.59375 0l0 -1.03125l0.59375 0l0 -0.953125l1.28125 -0.75l0 1.703125l0.875 0zm0.5907135 2.359375q0 -0.640625 0.3125 -1.234375q0.3125 -0.59375 0.890625 -0.90625q0.578125 -0.328125 1.28125 -0.328125q1.109375 0 1.796875 0.71875q0.703125 0.71875 0.703125 1.796875q0 1.109375 -0.703125 1.828125q-0.703125 0.71875 -1.78125 0.71875q-0.671875 0 -1.28125 -0.296875q-0.59375 -0.296875 -0.90625 -0.875q-0.3125 -0.59375 -0.3125 -1.421875zm1.3125 0.0625q0 0.71875 0.34375 1.109375q0.34375 0.375 0.84375 0.375q0.5 0 0.828125 -0.375q0.34375 -0.390625 0.34375 -1.109375q0 -0.71875 -0.34375 -1.09375q-0.328125 -0.390625 -0.828125 -0.390625q-0.5 0 -0.84375 0.390625q-0.34375 0.375 -0.34375 1.09375zm3.916748 4.265625l0 -0.828125l5.328125 0l0 0.828125l-5.328125 0zm5.922241 -6.6875l1.1875 0l0 0.71875q0.234375 -0.359375 0.625 -0.59375q0.390625 -0.234375 0.875 -0.234375q0.84375 0 1.4375 0.671875q0.59375 0.65625 0.59375 1.828125q0 1.21875 -0.59375 1.890625q-0.59375 0.671875 -1.4375 0.671875q-0.40625 0 -0.734375 -0.15625q-0.328125 -0.15625 -0.6875 -0.546875l0 2.4375l-1.265625 0l0 -6.6875zm1.265625 2.34375q0 0.8125 0.3125 1.203125q0.328125 0.390625 0.796875 0.390625q0.4375 0 0.734375 -0.359375q0.296875 -0.359375 0.296875 -1.171875q0 -0.765625 -0.3125 -1.125q-0.296875 -0.375 -0.75 -0.375q-0.46875 0 -0.78125 0.359375q-0.296875 0.359375 -0.296875 1.078125zm5.682373 2.5l-1.28125 0l0 -4.84375l1.1875 0l0 0.6875q0.3125 -0.484375 0.546875 -0.640625q0.25 -0.15625 0.5625 -0.15625q0.4375 0 0.84375 0.25l-0.390625 1.109375q-0.328125 -0.203125 -0.609375 -0.203125q-0.265625 0 -0.453125 0.15625q-0.1875 0.140625 -0.296875 0.53125q-0.109375 0.375 -0.109375 1.609375l0 1.5zm5.208267 -1.546875l1.28125 0.21875q-0.25 0.703125 -0.78125 1.078125q-0.53125 0.359375 -1.328125 0.359375q-1.265625 0 -1.859375 -0.828125q-0.484375 -0.65625 -0.484375 -1.65625q0 -1.203125 0.625 -1.890625q0.625 -0.6875 1.59375 -0.6875q1.078125 0 1.703125 0.71875q0.625 0.71875 0.59375 2.1875l-3.203125 0q0.015625 0.5625 0.3125 0.890625q0.296875 0.3125 0.734375 0.3125q0.296875 0 0.5 -0.15625q0.203125 -0.171875 0.3125 -0.546875zm0.078125 -1.28125q-0.015625 -0.5625 -0.296875 -0.84375q-0.265625 -0.296875 -0.65625 -0.296875q-0.421875 0 -0.6875 0.3125q-0.28125 0.296875 -0.28125 0.828125l1.921875 0zm6.750366 2.828125l-1.1875 0l0 -0.703125q-0.296875 0.40625 -0.703125 0.609375q-0.40625 0.203125 -0.8125 0.203125q-0.828125 0 -1.4375 -0.671875q-0.59375 -0.671875 -0.59375 -1.875q0 -1.234375 0.578125 -1.875q0.59375 -0.640625 1.46875 -0.640625q0.8125 0 1.40625 0.6875l0 -2.40625l1.28125 0l0 6.671875zm-3.421875 -2.515625q0 0.765625 0.21875 1.109375q0.3125 0.5 0.859375 0.5q0.453125 0 0.75 -0.375q0.3125 -0.375 0.3125 -1.125q0 -0.828125 -0.296875 -1.1875q-0.296875 -0.375 -0.765625 -0.375q-0.453125 0 -0.765625 0.359375q-0.3125 0.359375 -0.3125 1.09375zm4.682373 -2.984375l0 -1.171875l1.28125 0l0 1.171875l-1.28125 0zm0 5.5l0 -4.84375l1.28125 0l0 4.84375l-1.28125 0zm6.8104095 -3.40625l-1.265625 0.234375q-0.0625 -0.390625 -0.296875 -0.578125q-0.21875 -0.1875 -0.578125 -0.1875q-0.484375 0 -0.765625 0.328125q-0.28125 0.328125 -0.28125 1.109375q0 0.859375 0.28125 1.21875q0.296875 0.34375 0.78125 0.34375q0.375 0 0.59375 -0.203125q0.234375 -0.203125 0.328125 -0.71875l1.265625 0.21875q-0.203125 0.859375 -0.765625 1.3125q-0.546875 0.4375 -1.484375 0.4375q-1.046875 0 -1.6875 -0.671875q-0.625 -0.671875 -0.625 -1.84375q0 -1.203125 0.625 -1.875q0.640625 -0.671875 1.71875 -0.671875q0.875 0 1.390625 0.390625q0.53125 0.375 0.765625 1.15625zm3.1878662 -1.4375l0 1.03125l-0.875 0l0 1.9375q0 0.59375 0.015625 0.703125q0.03125 0.09375 0.109375 0.15625q0.09375 0.0625 0.234375 0.0625q0.171875 0 0.515625 -0.125l0.109375 1.0q-0.453125 0.1875 -1.015625 0.1875q-0.34375 0 -0.625 -0.109375q-0.28125 -0.125 -0.421875 -0.296875q-0.125 -0.1875 -0.171875 -0.515625q-0.03125 -0.21875 -0.03125 -0.890625l0 -2.109375l-0.59375 0l0 -1.03125l0.59375 0l0 -0.953125l1.28125 -0.75l0 1.703125l0.875 0z" fill-rule="nonzero"/><path fill="#ff0000" d="m72.84952 178.70667l1.3125 -0.125q0.109375 0.65625 0.46875 0.96875q0.359375 0.3125 0.984375 0.3125q0.640625 0 0.96875 -0.28125q0.34375 -0.28125 0.34375 -0.640625q0 -0.234375 -0.140625 -0.40625q-0.140625 -0.171875 -0.484375 -0.28125q-0.234375 -0.09375 -1.078125 -0.296875q-1.09375 -0.265625 -1.53125 -0.65625q-0.609375 -0.5625 -0.609375 -1.34375q0 -0.515625 0.28125 -0.953125q0.296875 -0.453125 0.84375 -0.6875q0.546875 -0.234375 1.3125 -0.234375q1.25 0 1.890625 0.5625q0.640625 0.546875 0.671875 1.46875l-1.34375 0.0625q-0.09375 -0.515625 -0.375 -0.734375q-0.28125 -0.234375 -0.859375 -0.234375q-0.59375 0 -0.921875 0.234375q-0.203125 0.15625 -0.203125 0.421875q0 0.234375 0.1875 0.40625q0.265625 0.203125 1.25 0.4375q0.984375 0.234375 1.453125 0.484375q0.46875 0.25 0.734375 0.6875q0.265625 0.421875 0.265625 1.0625q0 0.5625 -0.328125 1.0625q-0.3125 0.5 -0.890625 0.75q-0.578125 0.25 -1.453125 0.25q-1.265625 0 -1.953125 -0.578125q-0.671875 -0.59375 -0.796875 -1.71875zm10.768654 -1.234375l-1.2656174 0.234375q-0.0625 -0.390625 -0.296875 -0.578125q-0.21875 -0.1875 -0.578125 -0.1875q-0.484375 0 -0.765625 0.328125q-0.28125 0.328125 -0.28125 1.109375q0 0.859375 0.28125 1.21875q0.296875 0.34375 0.78125 0.34375q0.375 0 0.59375 -0.203125q0.234375 -0.203125 0.328125 -0.71875l1.2656174 0.21875q-0.203125 0.859375 -0.7656174 1.3125q-0.546875 0.4375 -1.484375 0.4375q-1.046875 0 -1.6875 -0.671875q-0.625 -0.671875 -0.625 -1.84375q0 -1.203125 0.625 -1.875q0.640625 -0.671875 1.71875 -0.671875q0.875 0 1.390625 0.390625q0.5312424 0.375 0.7656174 1.15625zm3.7659912 1.859375l1.28125 0.21875q-0.25 0.703125 -0.78125 1.078125q-0.53125 0.359375 -1.328125 0.359375q-1.265625 0 -1.859375 -0.828125q-0.484375 -0.65625 -0.484375 -1.65625q0 -1.203125 0.625 -1.890625q0.625 -0.6875 1.59375 -0.6875q1.078125 0 1.703125 0.71875q0.625 0.71875 0.59375 2.1875l-3.203125 0q0.015625 0.5625 0.3125 0.890625q0.296875 0.3125 0.734375 0.3125q0.296875 0 0.5 -0.15625q0.203125 -0.171875 0.3125 -0.546875zm0.078125 -1.28125q-0.015625 -0.5625 -0.296875 -0.84375q-0.265625 -0.296875 -0.65625 -0.296875q-0.421875 0 -0.6875 0.3125q-0.28125 0.296875 -0.28125 0.828125l1.921875 0zm6.703491 2.828125l-1.265625 0l0 -2.46875q0 -0.78125 -0.09375 -1.015625q-0.078125 -0.234375 -0.265625 -0.359375q-0.1875 -0.125 -0.4375 -0.125q-0.328125 0 -0.59375 0.1875q-0.265625 0.171875 -0.375 0.484375q-0.09375 0.296875 -0.09375 1.109375l0 2.1875l-1.28125 0l0 -4.84375l1.1875 0l0 0.71875q0.640625 -0.828125 1.59375 -0.828125q0.421875 0 0.765625 0.15625q0.359375 0.15625 0.53125 0.390625q0.1875 0.234375 0.25 0.546875q0.078125 0.296875 0.078125 0.859375l0 3.0zm2.260498 -3.359375l-1.15625 -0.21875q0.1875 -0.6875 0.65625 -1.03125q0.484375 -0.34375 1.4375 -0.34375q0.859375 0 1.265625 0.203125q0.421875 0.203125 0.59375 0.515625q0.171875 0.3125 0.171875 1.15625l-0.015625 1.484375q0 0.640625 0.0625 0.953125q0.0625 0.296875 0.234375 0.640625l-1.265625 0q-0.046875 -0.125 -0.125 -0.375q-0.03125 -0.109375 -0.046875 -0.15625q-0.328125 0.328125 -0.703125 0.484375q-0.375 0.15625 -0.796875 0.15625q-0.75 0 -1.1875 -0.40625q-0.421875 -0.40625 -0.421875 -1.03125q0 -0.40625 0.1875 -0.71875q0.203125 -0.328125 0.5625 -0.5q0.359375 -0.171875 1.015625 -0.296875q0.90625 -0.171875 1.25 -0.3125l0 -0.125q0 -0.375 -0.1875 -0.53125q-0.1875 -0.15625 -0.6875 -0.15625q-0.34375 0 -0.53125 0.140625q-0.1875 0.125 -0.3125 0.46875zm1.71875 1.03125q-0.25 0.09375 -0.78125 0.203125q-0.53125 0.109375 -0.703125 0.21875q-0.25 0.1875 -0.25 0.453125q0 0.265625 0.203125 0.46875q0.203125 0.1875 0.515625 0.1875q0.34375 0 0.65625 -0.21875q0.234375 -0.171875 0.296875 -0.421875q0.0625 -0.171875 0.0625 -0.625l0 -0.265625zm3.7347412 2.328125l-1.28125 0l0 -4.84375l1.1875 0l0 0.6875q0.3125 -0.484375 0.546875 -0.640625q0.25 -0.15625 0.5625 -0.15625q0.4375 0 0.84375 0.25l-0.390625 1.109375q-0.328125 -0.203125 -0.609375 -0.203125q-0.265625 0 -0.453125 0.15625q-0.1875 0.140625 -0.296875 0.53125q-0.109375 0.375 -0.109375 1.609375l0 1.5zm2.4113922 -5.5l0 -1.171875l1.28125 0l0 1.171875l-1.28125 0zm0 5.5l0 -4.84375l1.28125 0l0 4.84375l-1.28125 0zm2.2947845 -2.484375q0 -0.640625 0.3125 -1.234375q0.3125 -0.59375 0.890625 -0.90625q0.578125 -0.328125 1.28125 -0.328125q1.109375 0 1.796875 0.71875q0.703125 0.71875 0.703125 1.796875q0 1.109375 -0.703125 1.828125q-0.703125 0.71875 -1.78125 0.71875q-0.671875 0 -1.28125 -0.296875q-0.59375 -0.296875 -0.90625 -0.875q-0.3125 -0.59375 -0.3125 -1.421875zm1.3125 0.0625q0 0.71875 0.34375 1.109375q0.34375 0.375 0.84375 0.375q0.5 0 0.828125 -0.375q0.34375 -0.390625 0.34375 -1.109375q0 -0.71875 -0.34375 -1.09375q-0.328125 -0.390625 -0.828125 -0.390625q-0.5 0 -0.84375 0.390625q-0.34375 0.375 -0.34375 1.09375z" fill-rule="nonzero"/><path fill="#283282" d="m249.57744 28.270342l145.82677 0l0 45.82659l-9.165527 9.165535l-136.66124 0z" fill-rule="evenodd"/><path fill="#1f2767" d="m386.23868 83.26247l1.8330994 -7.332428l7.332428 -1.833107z" fill-rule="evenodd"/><path fill="#000000" fill-opacity="0.0" d="m386.23868 83.26247l1.8330994 -7.332428l7.332428 -1.833107l-9.165527 9.165535l-136.66124 0l0 -54.992126l145.82677 0l0 45.82659" fill-rule="evenodd"/><path fill="#ffffff" d="m309.33408 44.299885l1.171875 0l0 0.671875q0.640625 -0.78125 1.515625 -0.78125q0.453125 0 0.796875 0.203125q0.34375 0.1875 0.5625 0.578125q0.328125 -0.390625 0.6875 -0.578125q0.375 -0.203125 0.796875 -0.203125q0.53125 0 0.890625 0.21875q0.375 0.21875 0.5625 0.640625q0.125 0.3125 0.125 1.0l0 3.09375l-1.28125 0l0 -2.765625q0 -0.71875 -0.125 -0.921875q-0.1875 -0.28125 -0.546875 -0.28125q-0.265625 0 -0.515625 0.171875q-0.234375 0.15625 -0.34375 0.484375q-0.09375 0.3125 -0.09375 0.984375l0 2.328125l-1.28125 0l0 -2.65625q0 -0.703125 -0.078125 -0.90625q-0.0625 -0.203125 -0.203125 -0.296875q-0.140625 -0.109375 -0.390625 -0.109375q-0.296875 0 -0.53125 0.171875q-0.234375 0.15625 -0.34375 0.453125q-0.09375 0.296875 -0.09375 1.0l0 2.34375l-1.28125 0l0 -4.84375zm8.091095 2.359375q0 -0.640625 0.3125 -1.234375q0.3125 -0.59375 0.890625 -0.90625q0.578125 -0.328125 1.28125 -0.328125q1.109375 0 1.796875 0.71875q0.703125 0.71875 0.703125 1.796875q0 1.109375 -0.703125 1.828125q-0.703125 0.71875 -1.78125 0.71875q-0.671875 0 -1.28125 -0.296875q-0.59375 -0.296875 -0.90625 -0.875q-0.3125 -0.59375 -0.3125 -1.421875zm1.3125 0.0625q0 0.71875 0.34375 1.109375q0.34375 0.375 0.84375 0.375q0.5 0 0.828125 -0.375q0.34375 -0.390625 0.34375 -1.109375q0 -0.71875 -0.34375 -1.09375q-0.328125 -0.390625 -0.828125 -0.390625q-0.5 0 -0.84375 0.390625q-0.34375 0.375 -0.34375 1.09375zm9.119873 2.421875l-1.1875 0l0 -0.703125q-0.296875 0.40625 -0.703125 0.609375q-0.40625 0.203125 -0.8125 0.203125q-0.828125 0 -1.4375 -0.671875q-0.59375 -0.671875 -0.59375 -1.875q0 -1.234375 0.578125 -1.875q0.59375 -0.640625 1.46875 -0.640625q0.8125 0 1.40625 0.6875l0 -2.40625l1.28125 0l0 6.671875zm-3.421875 -2.515625q0 0.765625 0.21875 1.109375q0.3125 0.5 0.859375 0.5q0.453125 0 0.75 -0.375q0.3125 -0.375 0.3125 -1.125q0 -0.828125 -0.296875 -1.1875q-0.296875 -0.375 -0.765625 -0.375q-0.453125 0 -0.765625 0.359375q-0.3125 0.359375 -0.3125 1.09375zm7.479248 0.96875l1.28125 0.21875q-0.25 0.703125 -0.78125 1.078125q-0.53125 0.359375 -1.328125 0.359375q-1.265625 0 -1.859375 -0.828125q-0.484375 -0.65625 -0.484375 -1.65625q0 -1.203125 0.625 -1.890625q0.625 -0.6875 1.59375 -0.6875q1.078125 0 1.703125 0.71875q0.625 0.71875 0.59375 2.1875l-3.203125 0q0.015625 0.5625 0.3125 0.890625q0.296875 0.3125 0.734375 0.3125q0.296875 0 0.5 -0.15625q0.203125 -0.171875 0.3125 -0.546875zm0.078125 -1.28125q-0.015625 -0.5625 -0.296875 -0.84375q-0.265625 -0.296875 -0.65625 -0.296875q-0.421875 0 -0.6875 0.3125q-0.28125 0.296875 -0.28125 0.828125l1.921875 0zm2.3128662 2.828125l0 -6.671875l1.28125 0l0 6.671875l-1.28125 0z" fill-rule="nonzero"/><path fill="#ff0000" d="m303.13297 57.97176l1.3125 -0.125q0.109375 0.65625 0.46875 0.96875q0.359375 0.3125 0.984375 0.3125q0.640625 0 0.96875 -0.28125q0.34375 -0.28125 0.34375 -0.640625q0 -0.234375 -0.140625 -0.40625q-0.140625 -0.171875 -0.484375 -0.28125q-0.234375 -0.09375 -1.078125 -0.296875q-1.09375 -0.265625 -1.53125 -0.65625q-0.609375 -0.5625 -0.609375 -1.34375q0 -0.515625 0.28125 -0.953125q0.296875 -0.453125 0.84375 -0.6875q0.546875 -0.234375 1.3125 -0.234375q1.25 0 1.890625 0.5625q0.640625 0.546875 0.671875 1.46875l-1.34375 0.0625q-0.09375 -0.515625 -0.375 -0.734375q-0.28125 -0.234375 -0.859375 -0.234375q-0.59375 0 -0.921875 0.234375q-0.203125 0.15625 -0.203125 0.421875q0 0.234375 0.1875 0.40625q0.265625 0.203125 1.25 0.4375q0.984375 0.234375 1.453125 0.484375q0.46875 0.25 0.734375 0.6875q0.265625 0.421875 0.265625 1.0625q0 0.5625 -0.328125 1.0625q-0.3125 0.5 -0.890625 0.75q-0.578125 0.25 -1.453125 0.25q-1.265625 0 -1.953125 -0.578125q-0.671875 -0.59375 -0.796875 -1.71875zm10.768677 -1.234375l-1.265625 0.234375q-0.0625 -0.390625 -0.296875 -0.578125q-0.21875 -0.1875 -0.578125 -0.1875q-0.484375 0 -0.765625 0.328125q-0.28125 0.328125 -0.28125 1.109375q0 0.859375 0.28125 1.21875q0.296875 0.34375 0.78125 0.34375q0.375 0 0.59375 -0.203125q0.234375 -0.203125 0.328125 -0.71875l1.265625 0.21875q-0.203125 0.859375 -0.765625 1.3125q-0.546875 0.4375 -1.484375 0.4375q-1.046875 0 -1.6875 -0.671875q-0.625 -0.671875 -0.625 -1.84375q0 -1.203125 0.625 -1.875q0.640625 -0.671875 1.71875 -0.671875q0.875 0 1.390625 0.390625q0.53125 0.375 0.765625 1.15625zm3.7659912 1.859375l1.28125 0.21875q-0.25 0.703125 -0.78125 1.078125q-0.53125 0.359375 -1.328125 0.359375q-1.265625 0 -1.859375 -0.828125q-0.484375 -0.65625 -0.484375 -1.65625q0 -1.203125 0.625 -1.890625q0.625 -0.6875 1.59375 -0.6875q1.078125 0 1.703125 0.71875q0.625 0.71875 0.59375 2.1875l-3.203125 0q0.015625 0.5625 0.3125 0.890625q0.296875 0.3125 0.734375 0.3125q0.296875 0 0.5 -0.15625q0.203125 -0.171875 0.3125 -0.546875zm0.078125 -1.28125q-0.015625 -0.5625 -0.296875 -0.84375q-0.265625 -0.296875 -0.65625 -0.296875q-0.421875 0 -0.6875 0.3125q-0.28125 0.296875 -0.28125 0.828125l1.921875 0zm6.703491 2.828125l-1.265625 0l0 -2.46875q0 -0.78125 -0.09375 -1.015625q-0.078125 -0.234375 -0.265625 -0.359375q-0.1875 -0.125 -0.4375 -0.125q-0.328125 0 -0.59375 0.1875q-0.265625 0.171875 -0.375 0.484375q-0.09375 0.296875 -0.09375 1.109375l0 2.1875l-1.28125 0l0 -4.84375l1.1875 0l0 0.71875q0.640625 -0.828125 1.59375 -0.828125q0.421875 0 0.765625 0.15625q0.359375 0.15625 0.53125 0.390625q0.1875 0.234375 0.25 0.546875q0.078125 0.296875 0.078125 0.859375l0 3.0zm2.260498 -3.359375l-1.15625 -0.21875q0.1875 -0.6875 0.65625 -1.03125q0.484375 -0.34375 1.4375 -0.34375q0.859375 0 1.265625 0.203125q0.421875 0.203125 0.59375 0.515625q0.171875 0.3125 0.171875 1.15625l-0.015625 1.484375q0 0.640625 0.0625 0.953125q0.0625 0.296875 0.234375 0.640625l-1.265625 0q-0.046875 -0.125 -0.125 -0.375q-0.03125 -0.109375 -0.046875 -0.15625q-0.328125 0.328125 -0.703125 0.484375q-0.375 0.15625 -0.796875 0.15625q-0.75 0 -1.1875 -0.40625q-0.421875 -0.40625 -0.421875 -1.03125q0 -0.40625 0.1875 -0.71875q0.203125 -0.328125 0.5625 -0.5q0.359375 -0.171875 1.015625 -0.296875q0.90625 -0.171875 1.25 -0.3125l0 -0.125q0 -0.375 -0.1875 -0.53125q-0.1875 -0.15625 -0.6875 -0.15625q-0.34375 0 -0.53125 0.140625q-0.1875 0.125 -0.3125 0.46875zm1.71875 1.03125q-0.25 0.09375 -0.78125 0.203125q-0.53125 0.109375 -0.703125 0.21875q-0.25 0.1875 -0.25 0.453125q0 0.265625 0.203125 0.46875q0.203125 0.1875 0.515625 0.1875q0.34375 0 0.65625 -0.21875q0.234375 -0.171875 0.296875 -0.421875q0.0625 -0.171875 0.0625 -0.625l0 -0.265625zm3.7347412 2.328125l-1.28125 0l0 -4.84375l1.1875 0l0 0.6875q0.3125 -0.484375 0.546875 -0.640625q0.25 -0.15625 0.5625 -0.15625q0.4375 0 0.84375 0.25l-0.390625 1.109375q-0.328125 -0.203125 -0.609375 -0.203125q-0.265625 0 -0.453125 0.15625q-0.1875 0.140625 -0.296875 0.53125q-0.109375 0.375 -0.109375 1.609375l0 1.5zm2.411377 -5.5l0 -1.171875l1.28125 0l0 1.171875l-1.28125 0zm0 5.5l0 -4.84375l1.28125 0l0 4.84375l-1.28125 0zm2.2947998 -2.484375q0 -0.640625 0.3125 -1.234375q0.3125 -0.59375 0.890625 -0.90625q0.578125 -0.328125 1.28125 -0.328125q1.109375 0 1.796875 0.71875q0.703125 0.71875 0.703125 1.796875q0 1.109375 -0.703125 1.828125q-0.703125 0.71875 -1.78125 0.71875q-0.671875 0 -1.28125 -0.296875q-0.59375 -0.296875 -0.90625 -0.875q-0.3125 -0.59375 -0.3125 -1.421875zm1.3125 0.0625q0 0.71875 0.34375 1.109375q0.34375 0.375 0.84375 0.375q0.5 0 0.828125 -0.375q0.34375 -0.390625 0.34375 -1.109375q0 -0.71875 -0.34375 -1.09375q-0.328125 -0.390625 -0.828125 -0.390625q-0.5 0 -0.84375 0.390625q-0.34375 0.375 -0.34375 1.09375z" fill-rule="nonzero"/><path fill="#283282" d="m444.99213 150.75328l145.82678 0l0 45.826584l-9.165527 9.165543l-136.66125 0z" fill-rule="evenodd"/><path fill="#1f2767" d="m581.6534 205.7454l1.8330688 -7.332428l7.3324585 -1.8331146z" fill-rule="evenodd"/><path fill="#000000" fill-opacity="0.0" d="m581.6534 205.7454l1.8330688 -7.332428l7.3324585 -1.8331146l-9.165527 9.165543l-136.66125 0l0 -54.992126l145.82678 0l0 45.826584" fill-rule="evenodd"/><path fill="#ffffff" d="m493.40845 166.78282l1.1875 0l0 0.71875q0.234375 -0.359375 0.625 -0.59375q0.390625 -0.234375 0.875 -0.234375q0.84375 0 1.4375 0.671875q0.59375 0.65625 0.59375 1.828125q0 1.21875 -0.59375 1.890625q-0.59375 0.671875 -1.4375 0.671875q-0.40625 0 -0.734375 -0.15625q-0.328125 -0.15625 -0.6875 -0.546875l0 2.4375l-1.265625 0l0 -6.6875zm1.265625 2.34375q0 0.8125 0.3125 1.203125q0.328125 0.390625 0.796875 0.390625q0.4375 0 0.734375 -0.359375q0.296875 -0.359375 0.296875 -1.171875q0 -0.765625 -0.3125 -1.125q-0.296875 -0.375 -0.75 -0.375q-0.46875 0 -0.78125 0.359375q-0.296875 0.359375 -0.296875 1.078125zm5.682373 2.5l-1.28125 0l0 -4.84375l1.1875 0l0 0.6875q0.3125 -0.484375 0.546875 -0.640625q0.25 -0.15625 0.5625 -0.15625q0.4375 0 0.84375 0.25l-0.390625 1.109375q-0.328125 -0.203125 -0.609375 -0.203125q-0.265625 0 -0.453125 0.15625q-0.1875 0.140625 -0.296875 0.53125q-0.109375 0.375 -0.109375 1.609375l0 1.5zm5.2082825 -1.546875l1.28125 0.21875q-0.25 0.703125 -0.78125 1.078125q-0.53125 0.359375 -1.328125 0.359375q-1.265625 0 -1.859375 -0.828125q-0.484375 -0.65625 -0.484375 -1.65625q0 -1.203125 0.625 -1.890625q0.625 -0.6875 1.59375 -0.6875q1.078125 0 1.703125 0.71875q0.625 0.71875 0.59375 2.1875l-3.203125 0q0.015625 0.5625 0.3125 0.890625q0.296875 0.3125 0.734375 0.3125q0.296875 0 0.5 -0.15625q0.203125 -0.171875 0.3125 -0.546875zm0.078125 -1.28125q-0.015625 -0.5625 -0.296875 -0.84375q-0.265625 -0.296875 -0.65625 -0.296875q-0.421875 0 -0.6875 0.3125q-0.28125 0.296875 -0.28125 0.828125l1.921875 0zm6.7503357 2.828125l-1.1874695 0l0 -0.703125q-0.296875 0.40625 -0.703125 0.609375q-0.40625 0.203125 -0.8125 0.203125q-0.828125 0 -1.4375 -0.671875q-0.59375 -0.671875 -0.59375 -1.875q0 -1.234375 0.578125 -1.875q0.59375 -0.640625 1.46875 -0.640625q0.8125 0 1.40625 0.6875l0 -2.40625l1.2812195 0l0 6.671875zm-3.4218445 -2.515625q0 0.765625 0.21875 1.109375q0.3125 0.5 0.859375 0.5q0.453125 0 0.75 -0.375q0.3125 -0.375 0.3125 -1.125q0 -0.828125 -0.296875 -1.1875q-0.296875 -0.375 -0.765625 -0.375q-0.453125 0 -0.765625 0.359375q-0.3125 0.359375 -0.3125 1.09375zm4.6823425 -2.984375l0 -1.171875l1.28125 0l0 1.171875l-1.28125 0zm0 5.5l0 -4.84375l1.28125 0l0 4.84375l-1.28125 0zm6.810425 -3.40625l-1.265625 0.234375q-0.0625 -0.390625 -0.296875 -0.578125q-0.21875 -0.1875 -0.578125 -0.1875q-0.484375 0 -0.765625 0.328125q-0.28125 0.328125 -0.28125 1.109375q0 0.859375 0.28125 1.21875q0.296875 0.34375 0.78125 0.34375q0.375 0 0.59375 -0.203125q0.234375 -0.203125 0.328125 -0.71875l1.265625 0.21875q-0.203125 0.859375 -0.765625 1.3125q-0.546875 0.4375 -1.484375 0.4375q-1.046875 0 -1.6875 -0.671875q-0.625 -0.671875 -0.625 -1.84375q0 -1.203125 0.625 -1.875q0.640625 -0.671875 1.71875 -0.671875q0.875 0 1.390625 0.390625q0.53125 0.375 0.765625 1.15625zm3.1878662 -1.4375l0 1.03125l-0.875 0l0 1.9375q0 0.59375 0.015625 0.703125q0.03125 0.09375 0.109375 0.15625q0.09375 0.0625 0.234375 0.0625q0.171875 0 0.515625 -0.125l0.109375 1.0q-0.453125 0.1875 -1.015625 0.1875q-0.34375 0 -0.625 -0.109375q-0.28125 -0.125 -0.421875 -0.296875q-0.125 -0.1875 -0.171875 -0.515625q-0.03125 -0.21875 -0.03125 -0.890625l0 -2.109375l-0.59375 0l0 -1.03125l0.59375 0l0 -0.953125l1.28125 -0.75l0 1.703125l0.875 0zm0.88757324 -0.65625l0 -1.171875l1.28125 0l0 1.171875l-1.28125 0zm0 5.5l0 -4.84375l1.28125 0l0 4.84375l-1.28125 0zm2.2947998 -2.484375q0 -0.640625 0.3125 -1.234375q0.3125 -0.59375 0.890625 -0.90625q0.578125 -0.328125 1.28125 -0.328125q1.109375 0 1.796875 0.71875q0.703125 0.71875 0.703125 1.796875q0 1.109375 -0.703125 1.828125q-0.703125 0.71875 -1.78125 0.71875q-0.671875 0 -1.28125 -0.296875q-0.59375 -0.296875 -0.90625 -0.875q-0.3125 -0.59375 -0.3125 -1.421875zm1.3125 0.0625q0 0.71875 0.34375 1.109375q0.34375 0.375 0.84375 0.375q0.5 0 0.828125 -0.375q0.34375 -0.390625 0.34375 -1.109375q0 -0.71875 -0.34375 -1.09375q-0.328125 -0.390625 -0.828125 -0.390625q-0.5 0 -0.84375 0.390625q-0.34375 0.375 -0.34375 1.09375zm9.072998 2.421875l-1.265625 0l0 -2.46875q0 -0.78125 -0.09375 -1.015625q-0.078125 -0.234375 -0.265625 -0.359375q-0.1875 -0.125 -0.4375 -0.125q-0.328125 0 -0.59375 0.1875q-0.265625 0.171875 -0.375 0.484375q-0.09375 0.296875 -0.09375 1.109375l0 2.1875l-1.28125 0l0 -4.84375l1.1875 0l0 0.71875q0.640625 -0.828125 1.59375 -0.828125q0.421875 0 0.765625 0.15625q0.359375 0.15625 0.53125 0.390625q0.1875 0.234375 0.25 0.546875q0.078125 0.296875 0.078125 0.859375l0 3.0zm0.85424805 -1.375l1.28125 -0.203125q0.078125 0.375 0.328125 0.578125q0.265625 0.1875 0.703125 0.1875q0.5 0 0.75 -0.1875q0.171875 -0.125 0.171875 -0.34375q0 -0.140625 -0.09375 -0.234375q-0.09375 -0.09375 -0.421875 -0.171875q-1.546875 -0.34375 -1.96875 -0.625q-0.578125 -0.390625 -0.578125 -1.09375q0 -0.625 0.5 -1.046875q0.5 -0.4375 1.546875 -0.4375q0.984375 0 1.46875 0.328125q0.484375 0.328125 0.671875 0.953125l-1.21875 0.234375q-0.078125 -0.28125 -0.296875 -0.4375q-0.203125 -0.15625 -0.609375 -0.15625q-0.5 0 -0.71875 0.140625q-0.15625 0.109375 -0.15625 0.265625q0 0.140625 0.140625 0.234375q0.171875 0.125 1.1875 0.359375q1.03125 0.234375 1.4375 0.5625q0.390625 0.34375 0.390625 0.953125q0 0.671875 -0.5625 1.15625q-0.546875 0.46875 -1.640625 0.46875q-0.984375 0 -1.5625 -0.390625q-0.578125 -0.40625 -0.75 -1.09375z" fill-rule="nonzero"/><path fill="#ff0000" d="m498.54767 180.4547l1.3125 -0.125q0.109375 0.65625 0.46875 0.96875q0.359375 0.3125 0.984375 0.3125q0.640625 0 0.96875 -0.28125q0.34375 -0.28125 0.34375 -0.640625q0 -0.234375 -0.140625 -0.40625q-0.140625 -0.171875 -0.484375 -0.28125q-0.234375 -0.09375 -1.078125 -0.296875q-1.09375 -0.265625 -1.53125 -0.65625q-0.609375 -0.5625 -0.609375 -1.34375q0 -0.515625 0.28125 -0.953125q0.296875 -0.453125 0.84375 -0.6875q0.546875 -0.234375 1.3125 -0.234375q1.25 0 1.890625 0.5625q0.640625 0.546875 0.671875 1.46875l-1.34375 0.0625q-0.09375 -0.515625 -0.375 -0.734375q-0.28125 -0.234375 -0.859375 -0.234375q-0.59375 0 -0.921875 0.234375q-0.203125 0.15625 -0.203125 0.421875q0 0.234375 0.1875 0.40625q0.265625 0.203125 1.25 0.4375q0.984375 0.234375 1.453125 0.484375q0.46875 0.25 0.734375 0.6875q0.265625 0.421875 0.265625 1.0625q0 0.5625 -0.328125 1.0625q-0.3125 0.5 -0.890625 0.75q-0.578125 0.25 -1.453125 0.25q-1.265625 0 -1.953125 -0.578125q-0.671875 -0.59375 -0.796875 -1.71875zm10.768677 -1.234375l-1.265625 0.234375q-0.0625 -0.390625 -0.296875 -0.578125q-0.21875 -0.1875 -0.578125 -0.1875q-0.484375 0 -0.765625 0.328125q-0.28125 0.328125 -0.28125 1.109375q0 0.859375 0.28125 1.21875q0.296875 0.34375 0.78125 0.34375q0.375 0 0.59375 -0.203125q0.234375 -0.203125 0.328125 -0.71875l1.265625 0.21875q-0.203125 0.859375 -0.765625 1.3125q-0.546875 0.4375 -1.484375 0.4375q-1.046875 0 -1.6875 -0.671875q-0.625 -0.671875 -0.625 -1.84375q0 -1.203125 0.625 -1.875q0.640625 -0.671875 1.71875 -0.671875q0.875 0 1.390625 0.390625q0.53125 0.375 0.765625 1.15625zm3.7659912 1.859375l1.28125 0.21875q-0.25 0.703125 -0.78125 1.078125q-0.53125 0.359375 -1.328125 0.359375q-1.265625 0 -1.859375 -0.828125q-0.484375 -0.65625 -0.484375 -1.65625q0 -1.203125 0.625 -1.890625q0.625 -0.6875 1.59375 -0.6875q1.078125 0 1.703125 0.71875q0.625 0.71875 0.59375 2.1875l-3.203125 0q0.015625 0.5625 0.3125 0.890625q0.296875 0.3125 0.734375 0.3125q0.296875 0 0.5 -0.15625q0.203125 -0.171875 0.3125 -0.546875zm0.078125 -1.28125q-0.015625 -0.5625 -0.296875 -0.84375q-0.265625 -0.296875 -0.65625 -0.296875q-0.421875 0 -0.6875 0.3125q-0.28125 0.296875 -0.28125 0.828125l1.921875 0zm6.703491 2.828125l-1.265625 0l0 -2.46875q0 -0.78125 -0.09375 -1.015625q-0.078125 -0.234375 -0.265625 -0.359375q-0.1875 -0.125 -0.4375 -0.125q-0.328125 0 -0.59375 0.1875q-0.265625 0.171875 -0.375 0.484375q-0.09375 0.296875 -0.09375 1.109375l0 2.1875l-1.28125 0l0 -4.84375l1.1875 0l0 0.71875q0.640625 -0.828125 1.59375 -0.828125q0.421875 0 0.765625 0.15625q0.359375 0.15625 0.53125 0.390625q0.1875 0.234375 0.25 0.546875q0.078125 0.296875 0.078125 0.859375l0 3.0zm2.260498 -3.359375l-1.15625 -0.21875q0.1875 -0.6875 0.65625 -1.03125q0.484375 -0.34375 1.4375 -0.34375q0.859375 0 1.265625 0.203125q0.421875 0.203125 0.59375 0.515625q0.171875 0.3125 0.171875 1.15625l-0.015625 1.484375q0 0.640625 0.0625 0.953125q0.0625 0.296875 0.234375 0.640625l-1.265625 0q-0.046875 -0.125 -0.125 -0.375q-0.03125 -0.109375 -0.046875 -0.15625q-0.328125 0.328125 -0.703125 0.484375q-0.375 0.15625 -0.796875 0.15625q-0.75 0 -1.1875 -0.40625q-0.421875 -0.40625 -0.421875 -1.03125q0 -0.40625 0.1875 -0.71875q0.203125 -0.328125 0.5625 -0.5q0.359375 -0.171875 1.015625 -0.296875q0.90625 -0.171875 1.25 -0.3125l0 -0.125q0 -0.375 -0.1875 -0.53125q-0.1875 -0.15625 -0.6875 -0.15625q-0.34375 0 -0.53125 0.140625q-0.1875 0.125 -0.3125 0.46875zm1.71875 1.03125q-0.25 0.09375 -0.78125 0.203125q-0.53125 0.109375 -0.703125 0.21875q-0.25 0.1875 -0.25 0.453125q0 0.265625 0.203125 0.46875q0.203125 0.1875 0.515625 0.1875q0.34375 0 0.65625 -0.21875q0.234375 -0.171875 0.296875 -0.421875q0.0625 -0.171875 0.0625 -0.625l0 -0.265625zm3.7347412 2.328125l-1.28125 0l0 -4.84375l1.1875 0l0 0.6875q0.3125 -0.484375 0.546875 -0.640625q0.25 -0.15625 0.5625 -0.15625q0.4375 0 0.84375 0.25l-0.390625 1.109375q-0.328125 -0.203125 -0.609375 -0.203125q-0.265625 0 -0.453125 0.15625q-0.1875 0.140625 -0.296875 0.53125q-0.109375 0.375 -0.109375 1.609375l0 1.5zm2.411377 -5.5l0 -1.171875l1.28125 0l0 1.171875l-1.28125 0zm0 5.5l0 -4.84375l1.28125 0l0 4.84375l-1.28125 0zm2.2947998 -2.484375q0 -0.640625 0.3125 -1.234375q0.3125 -0.59375 0.890625 -0.90625q0.578125 -0.328125 1.28125 -0.328125q1.109375 0 1.796875 0.71875q0.703125 0.71875 0.703125 1.796875q0 1.109375 -0.703125 1.828125q-0.703125 0.71875 -1.78125 0.71875q-0.671875 0 -1.28125 -0.296875q-0.59375 -0.296875 -0.90625 -0.875q-0.3125 -0.59375 -0.3125 -1.421875zm1.3125 0.0625q0 0.71875 0.34375 1.109375q0.34375 0.375 0.84375 0.375q0.5 0 0.828125 -0.375q0.34375 -0.390625 0.34375 -1.109375q0 -0.71875 -0.34375 -1.09375q-0.328125 -0.390625 -0.828125 -0.390625q-0.5 0 -0.84375 0.390625q-0.34375 0.375 -0.34375 1.09375z" fill-rule="nonzero"/><path fill="#000000" fill-opacity="0.0" d="m165.12074 176.50131l80.18898 1.0078735" fill-rule="evenodd"/><path stroke="#0000ff" stroke-width="2.0" stroke-linejoin="round" stroke-linecap="butt" d="m165.12073 176.50131l68.189926 0.85705566" fill-rule="evenodd"/><path fill="#0000ff" stroke="#0000ff" stroke-width="2.0" stroke-linecap="butt" d="m233.26915 180.66158l9.116989 -3.1891327l-9.033966 -3.4172668z" fill-rule="evenodd"/><path fill="#ff462b" d="m245.2979 177.50165l76.3622 -32.314957l76.36221 32.314957l-76.36221 32.314957z" fill-rule="evenodd"/><path fill="#000000" d="m298.45697 175.8029l0.921875 0l0 -0.46875q0 -0.796875 0.15625 -1.171875q0.171875 -0.390625 0.609375 -0.625q0.453125 -0.25 1.140625 -0.25q0.703125 0 1.375 0.203125l-0.21875 1.15625q-0.390625 -0.09375 -0.75 -0.09375q-0.359375 0 -0.515625 0.171875q-0.15625 0.15625 -0.15625 0.640625l0 0.4375l1.234375 0l0 1.296875l-1.234375 0l0 4.921875l-1.640625 0l0 -4.921875l-0.921875 0l0 -1.296875zm4.3398438 3.015625q0 -0.8125 0.40625 -1.578125q0.40625 -0.78125 1.140625 -1.171875q0.734375 -0.40625 1.65625 -0.40625q1.40625 0 2.3125 0.921875q0.90625 0.90625 0.90625 2.3125q0 1.40625 -0.921875 2.34375q-0.90625 0.921875 -2.28125 0.921875q-0.859375 0 -1.640625 -0.390625q-0.765625 -0.390625 -1.171875 -1.125q-0.40625 -0.75 -0.40625 -1.828125zm1.6875 0.09375q0 0.921875 0.4375 1.421875q0.4375 0.484375 1.078125 0.484375q0.65625 0 1.078125 -0.484375q0.4375 -0.5 0.4375 -1.4375q0 -0.90625 -0.4375 -1.390625q-0.421875 -0.5 -1.078125 -0.5q-0.640625 0 -1.078125 0.5q-0.4375 0.484375 -0.4375 1.40625zm7.595703 3.109375l-1.640625 0l0 -6.21875l1.53125 0l0 0.875q0.390625 -0.625 0.703125 -0.8125q0.3125 -0.203125 0.703125 -0.203125q0.5625 0 1.09375 0.3125l-0.515625 1.421875q-0.421875 -0.265625 -0.765625 -0.265625q-0.359375 0 -0.59375 0.203125q-0.234375 0.1875 -0.375 0.6875q-0.140625 0.484375 -0.140625 2.078125l0 1.921875zm6.701172 -1.984375l1.640625 0.28125q-0.3125 0.90625 -1.0 1.375q-0.6875 0.46875 -1.703125 0.46875q-1.625 0 -2.40625 -1.0625q-0.625 -0.84375 -0.625 -2.140625q0 -1.546875 0.8125 -2.421875q0.8125 -0.875 2.046875 -0.875q1.390625 0 2.1875 0.921875q0.8125 0.90625 0.765625 2.796875l-4.125 0q0.03125 0.734375 0.40625 1.140625q0.375 0.40625 0.953125 0.40625q0.375 0 0.640625 -0.203125q0.265625 -0.21875 0.40625 -0.6875zm0.09375 -1.65625q-0.015625 -0.71875 -0.375 -1.09375q-0.34375 -0.375 -0.859375 -0.375q-0.53125 0 -0.890625 0.390625q-0.34375 0.40625 -0.34375 1.078125l2.46875 0zm8.392578 -0.75l-1.609375 0.296875q-0.09375 -0.484375 -0.390625 -0.71875q-0.28125 -0.25 -0.734375 -0.25q-0.625 0 -1.0 0.421875q-0.359375 0.421875 -0.359375 1.421875q0 1.109375 0.375 1.5625q0.375 0.453125 1.0 0.453125q0.46875 0 0.765625 -0.265625q0.296875 -0.265625 0.421875 -0.921875l1.625 0.28125q-0.25 1.109375 -0.96875 1.6875q-0.71875 0.5625 -1.921875 0.5625q-1.359375 0 -2.171875 -0.859375q-0.8125 -0.859375 -0.8125 -2.390625q0 -1.53125 0.8125 -2.390625q0.8125 -0.859375 2.203125 -0.859375q1.140625 0 1.8125 0.484375q0.671875 0.484375 0.953125 1.484375zm2.4863281 0.0625l-1.5 -0.265625q0.25 -0.90625 0.859375 -1.328125q0.625 -0.4375 1.84375 -0.4375q1.09375 0 1.625 0.265625q0.546875 0.25 0.765625 0.65625q0.21875 0.390625 0.21875 1.46875l-0.015625 1.921875q0 0.828125 0.078125 1.21875q0.078125 0.375 0.296875 0.828125l-1.625 0q-0.0625 -0.171875 -0.15625 -0.484375q-0.046875 -0.15625 -0.0625 -0.203125q-0.421875 0.421875 -0.90625 0.625q-0.46875 0.203125 -1.015625 0.203125q-0.96875 0 -1.53125 -0.515625q-0.546875 -0.53125 -0.546875 -1.328125q0 -0.53125 0.25 -0.9375q0.265625 -0.40625 0.71875 -0.625q0.453125 -0.234375 1.3125 -0.390625q1.140625 -0.21875 1.59375 -0.40625l0 -0.15625q0 -0.484375 -0.234375 -0.6875q-0.234375 -0.203125 -0.890625 -0.203125q-0.4375 0 -0.6875 0.171875q-0.234375 0.171875 -0.390625 0.609375zm2.203125 1.34375q-0.3125 0.09375 -1.0 0.25q-0.6875 0.140625 -0.90625 0.28125q-0.3125 0.234375 -0.3125 0.578125q0 0.34375 0.25 0.609375q0.265625 0.25 0.65625 0.25q0.453125 0 0.859375 -0.296875q0.296875 -0.21875 0.390625 -0.546875q0.0625 -0.203125 0.0625 -0.796875l0 -0.328125zm2.6582031 1.203125l1.65625 -0.25q0.109375 0.484375 0.421875 0.734375q0.328125 0.25 0.90625 0.25q0.640625 0 0.953125 -0.234375q0.21875 -0.171875 0.21875 -0.4375q0 -0.1875 -0.109375 -0.3125q-0.125 -0.125 -0.546875 -0.21875q-2.0 -0.4375 -2.53125 -0.796875q-0.734375 -0.515625 -0.734375 -1.40625q0 -0.8125 0.625 -1.359375q0.640625 -0.546875 1.984375 -0.546875q1.28125 0 1.90625 0.421875q0.625 0.40625 0.859375 1.21875l-1.5625 0.28125q-0.09375 -0.359375 -0.375 -0.546875q-0.28125 -0.203125 -0.796875 -0.203125q-0.640625 0 -0.921875 0.1875q-0.1875 0.125 -0.1875 0.328125q0 0.1875 0.15625 0.3125q0.21875 0.15625 1.53125 0.453125q1.328125 0.296875 1.84375 0.734375q0.515625 0.4375 0.515625 1.21875q0 0.859375 -0.71875 1.484375q-0.703125 0.609375 -2.109375 0.609375q-1.265625 0 -2.015625 -0.515625q-0.734375 -0.515625 -0.96875 -1.40625zm10.111328 -4.4375l0 1.3125l-1.125 0l0 2.5q0 0.765625 0.03125 0.890625q0.03125 0.125 0.140625 0.21875q0.125 0.078125 0.28125 0.078125q0.234375 0 0.65625 -0.171875l0.140625 1.28125q-0.5625 0.25 -1.296875 0.25q-0.4375 0 -0.796875 -0.140625q-0.359375 -0.15625 -0.53125 -0.390625q-0.15625 -0.25 -0.234375 -0.640625q-0.046875 -0.296875 -0.046875 -1.171875l0 -2.703125l-0.75 0l0 -1.3125l0.75 0l0 -1.234375l1.65625 -0.96875l0 2.203125l1.125 0z" fill-rule="nonzero"/><path fill="#000000" fill-opacity="0.0" d="m322.4908 83.26247l-0.8188782 61.921265" fill-rule="evenodd"/><path stroke="#0000ff" stroke-width="2.0" stroke-linejoin="round" stroke-linecap="butt" d="m322.4908 83.26247l-0.6602173 49.922302" fill-rule="evenodd"/><path fill="#0000ff" stroke="#0000ff" stroke-width="2.0" stroke-linecap="butt" d="m318.52744 133.1411l3.183136 9.11908l3.4232178 -9.031723z" fill-rule="evenodd"/><path fill="#000000" fill-opacity="0.0" d="m398.0223 177.50165l46.960632 0.75590515" fill-rule="evenodd"/><path stroke="#0000ff" stroke-width="2.0" stroke-linejoin="round" stroke-linecap="butt" d="m398.0223 177.50165l34.96219 0.5627594" fill-rule="evenodd"/><path fill="#0000ff" stroke="#0000ff" stroke-width="2.0" stroke-linecap="butt" d="m432.93134 181.36745l9.128174 -3.156952l-9.021851 -3.4491272z" fill-rule="evenodd"/></g></svg>