<svg version="1.1" viewBox="0.0 0.0 612.3254593175853 178.5958005249344" fill="none" stroke="none" stroke-linecap="square" stroke-miterlimit="10" xmlns:xlink="http://www.w3.org/1999/xlink" xmlns="http://www.w3.org/2000/svg"><clipPath id="p.0"><path d="m0 0l612.32544 0l0 178.5958l-612.32544 0l0 -178.5958z" clip-rule="nonzero"/></clipPath><g clip-path="url(#p.0)"><path fill="#000000" fill-opacity="0.0" d="m0 0l612.32544 0l0 178.5958l-612.32544 0z" fill-rule="evenodd"/><path fill="#000000" fill-opacity="0.0" d="m85.37533 129.28871l240.50394 0l0 58.173233l-240.50394 0z" fill-rule="evenodd"/><path fill="#000000" d="m95.6097 153.64871l0 -11.453125l4.328125 0q1.140625 0 1.734375 0.109375q0.84375 0.140625 1.40625 0.53125q0.578125 0.390625 0.921875 1.109375q0.359375 0.703125 0.359375 1.5625q0 1.453125 -0.9375 2.46875q-0.921875 1.015625 -3.359375 1.015625l-2.9375 0l0 4.65625l-1.515625 0zm1.515625 -6.015625l2.96875 0q1.46875 0 2.078125 -0.546875q0.625 -0.546875 0.625 -1.53125q0 -0.71875 -0.375 -1.234375q-0.359375 -0.515625 -0.953125 -0.671875q-0.375 -0.109375 -1.40625 -0.109375l-2.9375 0l0 4.09375zm8.984375 -3.828125l0 -1.609375l1.40625 0l0 1.609375l-1.40625 0zm0 9.84375l0 -8.296875l1.40625 0l0 8.296875l-1.40625 0zm3.5546875 3.1875l0 -11.484375l1.28125 0l0 1.078125q0.453125 -0.640625 1.015625 -0.953125q0.578125 -0.3125 1.390625 -0.3125q1.0625 0 1.875 0.546875q0.8125 0.546875 1.21875 1.546875q0.421875 0.984375 0.421875 2.171875q0 1.28125 -0.46875 2.296875q-0.453125 1.015625 -1.328125 1.5625q-0.859375 0.546875 -1.828125 0.546875q-0.703125 0 -1.265625 -0.296875q-0.546875 -0.296875 -0.90625 -0.75l0 4.046875l-1.40625 0zm1.265625 -7.296875q0 1.609375 0.640625 2.375q0.65625 0.765625 1.578125 0.765625q0.9375 0 1.609375 -0.796875q0.671875 -0.796875 0.671875 -2.453125q0 -1.59375 -0.65625 -2.375q-0.65625 -0.796875 -1.5625 -0.796875q-0.890625 0 -1.59375 0.84375q-0.6875 0.84375 -0.6875 2.4375zm13.3046875 1.4375l1.453125 0.171875q-0.34375 1.28125 -1.28125 1.984375q-0.921875 0.703125 -2.359375 0.703125q-1.828125 0 -2.890625 -1.125q-1.0625 -1.125 -1.0625 -3.140625q0 -2.09375 1.078125 -3.25q1.078125 -1.15625 2.796875 -1.15625q1.65625 0 2.703125 1.140625q1.0625 1.125 1.0625 3.171875q0 0.125 0 0.375l-6.1875 0q0.078125 1.375 0.765625 2.109375q0.703125 0.71875 1.734375 0.71875q0.78125 0 1.328125 -0.40625q0.546875 -0.40625 0.859375 -1.296875zm-4.609375 -2.28125l4.625 0q-0.09375 -1.046875 -0.53125 -1.5625q-0.671875 -0.8125 -1.734375 -0.8125q-0.96875 0 -1.640625 0.65625q-0.65625 0.640625 -0.71875 1.71875zm7.8046875 4.953125l0 -11.453125l1.4062576 0l0 11.453125l-1.4062576 0zm3.5859451 -9.84375l0 -1.609375l1.40625 0l0 1.609375l-1.40625 0zm0 9.84375l0 -8.296875l1.40625 0l0 8.296875l-1.40625 0zm3.5546875 0l0 -8.296875l1.265625 0l0 1.171875q0.90625 -1.359375 2.640625 -1.359375q0.75 0 1.375 0.265625q0.625 0.265625 0.9375 0.703125q0.3125 0.4375 0.4375 1.046875q0.078125 0.390625 0.078125 1.359375l0 5.109375l-1.40625 0l0 -5.046875q0 -0.859375 -0.171875 -1.28125q-0.15625 -0.4375 -0.578125 -0.6875q-0.40625 -0.25 -0.96875 -0.25q-0.90625 0 -1.5625 0.578125q-0.640625 0.5625 -0.640625 2.15625l0 4.53125l-1.40625 0zm14.5703125 -2.671875l1.453125 0.171875q-0.34375 1.28125 -1.28125 1.984375q-0.921875 0.703125 -2.359375 0.703125q-1.828125 0 -2.890625 -1.125q-1.0625 -1.125 -1.0625 -3.140625q0 -2.09375 1.078125 -3.25q1.078125 -1.15625 2.796875 -1.15625q1.65625 0 2.703125 1.140625q1.0625 1.125 1.0625 3.171875q0 0.125 0 0.375l-6.1875 0q0.078125 1.375 0.765625 2.109375q0.703125 0.71875 1.734375 0.71875q0.78125 0 1.328125 -0.40625q0.546875 -0.40625 0.859375 -1.296875zm-4.609375 -2.28125l4.625 0q-0.09375 -1.046875 -0.53125 -1.5625q-0.671875 -0.8125 -1.734375 -0.8125q-0.96875 0 -1.640625 0.65625q-0.65625 0.640625 -0.71875 1.71875zm6.5234375 8.140625l0 -1.015625l9.328125 0l0 1.015625l-9.328125 0zm13.2734375 -4.453125l0.203125 1.25q-0.59375 0.125 -1.0625 0.125q-0.765625 0 -1.1875 -0.234375q-0.421875 -0.25 -0.59375 -0.640625q-0.171875 -0.40625 -0.171875 -1.671875l0 -4.765625l-1.03125 0l0 -1.09375l1.03125 0l0 -2.0625l1.40625 -0.84375l0 2.90625l1.40625 0l0 1.09375l-1.40625 0l0 4.84375q0 0.609375 0.0625 0.78125q0.078125 0.171875 0.25 0.28125q0.171875 0.09375 0.484375 0.09375q0.234375 0 0.609375 -0.0625zm1.3671875 1.265625l0 -8.296875l1.265625 0l0 1.25q0.484375 -0.875 0.890625 -1.15625q0.40625 -0.28125 0.90625 -0.28125q0.703125 0 1.4375 0.453125l-0.484375 1.296875q-0.515625 -0.296875 -1.03125 -0.296875q-0.453125 0 -0.828125 0.28125q-0.359375 0.265625 -0.515625 0.765625q-0.234375 0.75 -0.234375 1.640625l0 4.34375l-1.40625 0zm10.75 -1.03125q-0.78125 0.671875 -1.5 0.953125q-0.71875 0.265625 -1.546875 0.265625q-1.375 0 -2.109375 -0.671875q-0.734375 -0.671875 -0.734375 -1.703125q0 -0.609375 0.28125 -1.109375q0.28125 -0.515625 0.71875 -0.8125q0.453125 -0.3125 1.015625 -0.46875q0.421875 -0.109375 1.25 -0.203125q1.703125 -0.203125 2.515625 -0.484375q0 -0.296875 0 -0.375q0 -0.859375 -0.390625 -1.203125q-0.546875 -0.484375 -1.609375 -0.484375q-0.984375 0 -1.46875 0.359375q-0.46875 0.34375 -0.6875 1.21875l-1.375 -0.1875q0.1875 -0.875 0.609375 -1.421875q0.4375 -0.546875 1.25 -0.828125q0.8125 -0.296875 1.875 -0.296875q1.0625 0 1.71875 0.25q0.671875 0.25 0.984375 0.625q0.3125 0.375 0.4375 0.953125q0.078125 0.359375 0.078125 1.296875l0 1.875q0 1.96875 0.078125 2.484375q0.09375 0.515625 0.359375 1.0l-1.46875 0q-0.21875 -0.4375 -0.28125 -1.03125zm-0.109375 -3.140625q-0.765625 0.3125 -2.296875 0.53125q-0.875 0.125 -1.234375 0.28125q-0.359375 0.15625 -0.5625 0.46875q-0.1875 0.296875 -0.1875 0.65625q0 0.5625 0.421875 0.9375q0.4375 0.375 1.25 0.375q0.8125 0 1.4375 -0.34375q0.640625 -0.359375 0.9375 -0.984375q0.234375 -0.46875 0.234375 -1.40625l0 -0.515625zm3.6015625 -5.671875l0 -1.609375l1.40625 0l0 1.609375l-1.40625 0zm0 9.84375l0 -8.296875l1.40625 0l0 8.296875l-1.40625 0zm3.5546875 0l0 -8.296875l1.265625 0l0 1.171875q0.90625 -1.359375 2.640625 -1.359375q0.75 0 1.375 0.265625q0.625 0.265625 0.9375 0.703125q0.3125 0.4375 0.4375 1.046875q0.078125 0.390625 0.078125 1.359375l0 5.109375l-1.40625 0l0 -5.046875q0 -0.859375 -0.171875 -1.28125q-0.15625 -0.4375 -0.578125 -0.6875q-0.40625 -0.25 -0.96875 -0.25q-0.90625 0 -1.5625 0.578125q-0.640625 0.5625 -0.640625 2.15625l0 4.53125l-1.40625 0z" fill-rule="nonzero"/><path fill="#000000" fill-opacity="0.0" d="m47.60096 148.31252l40.97638 0" fill-rule="evenodd"/><path stroke="#ff0000" stroke-width="2.0" stroke-linejoin="round" stroke-linecap="butt" d="m47.600964 148.31252l28.976376 0" fill-rule="evenodd"/><path fill="#ff0000" stroke="#ff0000" stroke-width="2.0" stroke-linecap="butt" d="m76.57734 151.61598l9.076195 -3.3034668l-9.076195 -3.3034668z" fill-rule="evenodd"/><path fill="#283282" d="m393.57742 36.27034l145.82675 0l0 45.82659l-9.165527 9.165535l-136.66122 0z" fill-rule="evenodd"/><path fill="#1f2767" d="m530.23865 91.26247l1.8331299 -7.332428l7.3323975 -1.833107z" fill-rule="evenodd"/><path fill="#000000" fill-opacity="0.0" d="m530.23865 91.26247l1.8331299 -7.332428l7.3323975 -1.833107l-9.165527 9.165535l-136.66122 0l0 -54.992126l145.82675 0l0 45.82659" fill-rule="evenodd"/><path fill="#ffffff" d="m453.33408 52.299885l1.171875 0l0 0.671875q0.640625 -0.78125 1.515625 -0.78125q0.453125 0 0.796875 0.203125q0.34375 0.1875 0.5625 0.578125q0.328125 -0.390625 0.6875 -0.578125q0.375 -0.203125 0.796875 -0.203125q0.53125 0 0.890625 0.21875q0.375 0.21875 0.5625 0.640625q0.125 0.3125 0.125 1.0l0 3.09375l-1.28125 0l0 -2.765625q0 -0.71875 -0.125 -0.921875q-0.1875 -0.28125 -0.546875 -0.28125q-0.265625 0 -0.515625 0.171875q-0.234375 0.15625 -0.34375 0.484375q-0.09375 0.3125 -0.09375 0.984375l0 2.328125l-1.28125 0l0 -2.65625q0 -0.703125 -0.078125 -0.90625q-0.0625 -0.203125 -0.203125 -0.296875q-0.140625 -0.109375 -0.390625 -0.109375q-0.296875 0 -0.53125 0.171875q-0.234375 0.15625 -0.34375 0.453125q-0.09375 0.296875 -0.09375 1.0l0 2.34375l-1.28125 0l0 -4.84375zm8.091095 2.359375q0 -0.640625 0.3125 -1.234375q0.3125 -0.59375 0.890625 -0.90625q0.578125 -0.328125 1.28125 -0.328125q1.109375 0 1.796875 0.71875q0.703125 0.71875 0.703125 1.796875q0 1.109375 -0.703125 1.828125q-0.703125 0.71875 -1.78125 0.71875q-0.671875 0 -1.28125 -0.296875q-0.59375 -0.296875 -0.90625 -0.875q-0.3125 -0.59375 -0.3125 -1.421875zm1.3125 0.0625q0 0.71875 0.34375 1.109375q0.34375 0.375 0.84375 0.375q0.5 0 0.828125 -0.375q0.34375 -0.390625 0.34375 -1.109375q0 -0.71875 -0.34375 -1.09375q-0.328125 -0.390625 -0.828125 -0.390625q-0.5 0 -0.84375 0.390625q-0.34375 0.375 -0.34375 1.09375zm9.119873 2.421875l-1.1875 0l0 -0.703125q-0.296875 0.40625 -0.703125 0.609375q-0.40625 0.203125 -0.8125 0.203125q-0.828125 0 -1.4375 -0.671875q-0.59375 -0.671875 -0.59375 -1.875q0 -1.234375 0.578125 -1.875q0.59375 -0.640625 1.46875 -0.640625q0.8125 0 1.40625 0.6875l0 -2.40625l1.28125 0l0 6.671875zm-3.421875 -2.515625q0 0.765625 0.21875 1.109375q0.3125 0.5 0.859375 0.5q0.453125 0 0.75 -0.375q0.3125 -0.375 0.3125 -1.125q0 -0.828125 -0.296875 -1.1875q-0.296875 -0.375 -0.765625 -0.375q-0.453125 0 -0.765625 0.359375q-0.3125 0.359375 -0.3125 1.09375zm7.479248 0.96875l1.28125 0.21875q-0.25 0.703125 -0.78125 1.078125q-0.53125 0.359375 -1.328125 0.359375q-1.265625 0 -1.859375 -0.828125q-0.484375 -0.65625 -0.484375 -1.65625q0 -1.203125 0.625 -1.890625q0.625 -0.6875 1.59375 -0.6875q1.078125 0 1.703125 0.71875q0.625 0.71875 0.59375 2.1875l-3.203125 0q0.015625 0.5625 0.3125 0.890625q0.296875 0.3125 0.734375 0.3125q0.296875 0 0.5 -0.15625q0.203125 -0.171875 0.3125 -0.546875zm0.078125 -1.28125q-0.015625 -0.5625 -0.296875 -0.84375q-0.265625 -0.296875 -0.65625 -0.296875q-0.421875 0 -0.6875 0.3125q-0.28125 0.296875 -0.28125 0.828125l1.921875 0zm2.3128662 2.828125l0 -6.671875l1.28125 0l0 6.671875l-1.28125 0z" fill-rule="nonzero"/><path fill="#ff0000" d="m447.13297 65.971756l1.3125 -0.125q0.109375 0.65625 0.46875 0.96875q0.359375 0.3125 0.984375 0.3125q0.640625 0 0.96875 -0.28125q0.34375 -0.28125 0.34375 -0.640625q0 -0.234375 -0.140625 -0.40625q-0.140625 -0.171875 -0.484375 -0.28125q-0.234375 -0.09375 -1.078125 -0.296875q-1.09375 -0.265625 -1.53125 -0.65625q-0.609375 -0.5625 -0.609375 -1.3437462q0 -0.515625 0.28125 -0.953125q0.296875 -0.453125 0.84375 -0.6875q0.546875 -0.234375 1.3125 -0.234375q1.25 0 1.890625 0.5625q0.640625 0.546875 0.671875 1.46875l-1.34375 0.0625q-0.09375 -0.515625 -0.375 -0.734375q-0.28125 -0.234375 -0.859375 -0.234375q-0.59375 0 -0.921875 0.234375q-0.203125 0.15625 -0.203125 0.421875q0 0.234375 0.1875 0.40625q0.265625 0.203125 1.25 0.4375q0.984375 0.23437119 1.453125 0.4843712q0.46875 0.25 0.734375 0.6875q0.265625 0.421875 0.265625 1.0625q0 0.5625 -0.328125 1.0625q-0.3125 0.5 -0.890625 0.75q-0.578125 0.25 -1.453125 0.25q-1.265625 0 -1.953125 -0.578125q-0.671875 -0.59375 -0.796875 -1.71875zm10.768677 -1.234375l-1.265625 0.234375q-0.0625 -0.390625 -0.296875 -0.578125q-0.21875 -0.1875 -0.578125 -0.1875q-0.484375 0 -0.765625 0.328125q-0.28125 0.328125 -0.28125 1.109375q0 0.859375 0.28125 1.21875q0.296875 0.34375 0.78125 0.34375q0.375 0 0.59375 -0.203125q0.234375 -0.203125 0.328125 -0.71875l1.265625 0.21875q-0.203125 0.859375 -0.765625 1.3125q-0.546875 0.4375 -1.484375 0.4375q-1.046875 0 -1.6875 -0.671875q-0.625 -0.671875 -0.625 -1.84375q0 -1.203125 0.625 -1.8749962q0.640625 -0.671875 1.71875 -0.671875q0.875 0 1.390625 0.390625q0.53125 0.375 0.765625 1.1562462zm3.7659912 1.859375l1.28125 0.21875q-0.25 0.703125 -0.78125 1.078125q-0.53125 0.359375 -1.328125 0.359375q-1.265625 0 -1.859375 -0.828125q-0.484375 -0.65625 -0.484375 -1.65625q0 -1.203125 0.625 -1.8906212q0.625 -0.6875 1.59375 -0.6875q1.078125 0 1.703125 0.71875q0.625 0.7187462 0.59375 2.1874962l-3.203125 0q0.015625 0.5625 0.3125 0.890625q0.296875 0.3125 0.734375 0.3125q0.296875 0 0.5 -0.15625q0.203125 -0.171875 0.3125 -0.546875zm0.078125 -1.28125q-0.015625 -0.5625 -0.296875 -0.84375q-0.265625 -0.296875 -0.65625 -0.296875q-0.421875 0 -0.6875 0.3125q-0.28125 0.296875 -0.28125 0.828125l1.921875 0zm6.703491 2.828125l-1.265625 0l0 -2.46875q0 -0.78125 -0.09375 -1.015625q-0.078125 -0.234375 -0.265625 -0.359375q-0.1875 -0.125 -0.4375 -0.125q-0.328125 0 -0.59375 0.1875q-0.265625 0.171875 -0.375 0.484375q-0.09375 0.296875 -0.09375 1.109375l0 2.1875l-1.28125 0l0 -4.843746l1.1875 0l0 0.7187462q0.640625 -0.8281212 1.59375 -0.8281212q0.421875 0 0.765625 0.15625q0.359375 0.15625 0.53125 0.390625q0.1875 0.234375 0.25 0.5468712q0.078125 0.296875 0.078125 0.859375l0 3.0zm2.260498 -3.359375l-1.15625 -0.21875q0.1875 -0.6874962 0.65625 -1.0312462q0.484375 -0.34375 1.4375 -0.34375q0.859375 0 1.265625 0.203125q0.421875 0.203125 0.59375 0.515625q0.171875 0.3124962 0.171875 1.1562462l-0.015625 1.484375q0 0.640625 0.0625 0.953125q0.0625 0.296875 0.234375 0.640625l-1.265625 0q-0.046875 -0.125 -0.125 -0.375q-0.03125 -0.109375 -0.046875 -0.15625q-0.328125 0.328125 -0.703125 0.484375q-0.375 0.15625 -0.796875 0.15625q-0.75 0 -1.1875 -0.40625q-0.421875 -0.40625 -0.421875 -1.03125q0 -0.40625 0.1875 -0.71875q0.203125 -0.328125 0.5625 -0.5q0.359375 -0.171875 1.015625 -0.296875q0.90625 -0.171875 1.25 -0.3125l0 -0.125q0 -0.375 -0.1875 -0.53125q-0.1875 -0.15625 -0.6875 -0.15625q-0.34375 0 -0.53125 0.140625q-0.1875 0.125 -0.3125 0.46875zm1.71875 1.03125q-0.25 0.09375 -0.78125 0.203125q-0.53125 0.109375 -0.703125 0.21875q-0.25 0.1875 -0.25 0.453125q0 0.265625 0.203125 0.46875q0.203125 0.1875 0.515625 0.1875q0.34375 0 0.65625 -0.21875q0.234375 -0.171875 0.296875 -0.421875q0.0625 -0.171875 0.0625 -0.625l0 -0.265625zm3.7347412 2.328125l-1.28125 0l0 -4.843746l1.1875 0l0 0.6875q0.3125 -0.484375 0.546875 -0.640625q0.25 -0.15625 0.5625 -0.15625q0.4375 0 0.84375 0.25l-0.390625 1.1093712q-0.328125 -0.203125 -0.609375 -0.203125q-0.265625 0 -0.453125 0.15625q-0.1875 0.140625 -0.296875 0.53125q-0.109375 0.375 -0.109375 1.609375l0 1.5zm2.411377 -5.499996l0 -1.171875l1.28125 0l0 1.171875l-1.28125 0zm0 5.499996l0 -4.843746l1.28125 0l0 4.843746l-1.28125 0zm2.2947998 -2.484375q0 -0.640625 0.3125 -1.234375q0.3125 -0.5937462 0.890625 -0.9062462q0.578125 -0.328125 1.28125 -0.328125q1.109375 0 1.796875 0.71875q0.703125 0.7187462 0.703125 1.7968712q0 1.109375 -0.703125 1.828125q-0.703125 0.71875 -1.78125 0.71875q-0.671875 0 -1.28125 -0.296875q-0.59375 -0.296875 -0.90625 -0.875q-0.3125 -0.59375 -0.3125 -1.421875zm1.3125 0.0625q0 0.71875 0.34375 1.109375q0.34375 0.375 0.84375 0.375q0.5 0 0.828125 -0.375q0.34375 -0.390625 0.34375 -1.109375q0 -0.71875 -0.34375 -1.09375q-0.328125 -0.390625 -0.828125 -0.390625q-0.5 0 -0.84375 0.390625q-0.34375 0.375 -0.34375 1.09375z" fill-rule="nonzero"/><path fill="#283282" d="m35.29397 37.269028l145.82678 0l0 45.82659l-9.165543 9.165535l-136.66122 0z" fill-rule="evenodd"/><path fill="#1f2767" d="m171.9552 92.261154l1.8331146 -7.332428l7.332428 -1.833107z" fill-rule="evenodd"/><path fill="#000000" fill-opacity="0.0" d="m171.9552 92.261154l1.8331146 -7.332428l7.332428 -1.833107l-9.165543 9.165535l-136.66122 0l0 -54.992126l145.82678 0l0 45.82659" fill-rule="evenodd"/><path fill="#ffffff" d="m88.807014 53.298573l0 1.03125l-0.875 0l0 1.9375q0 0.59375 0.015625 0.703125q0.03125 0.09375 0.109375 0.15625q0.09375 0.0625 0.234375 0.0625q0.171875 0 0.515625 -0.125l0.109375 1.0q-0.453125 0.1875 -1.015625 0.1875q-0.34375 0 -0.625 -0.109375q-0.28125 -0.125 -0.421875 -0.296875q-0.125 -0.1875 -0.171875 -0.515625q-0.03125 -0.21875 -0.03125 -0.890625l0 -2.109375l-0.59375 0l0 -1.03125l0.59375 0l0 -0.953125l1.28125 -0.75l0 1.703125l0.875 0zm2.1063385 4.84375l-1.28125 0l0 -4.84375l1.1875 0l0 0.6875q0.3125 -0.484375 0.546875 -0.640625q0.25 -0.15625 0.5625 -0.15625q0.4375 0 0.84375 0.25l-0.390625 1.109375q-0.328125 -0.203125 -0.609375 -0.203125q-0.265625 0 -0.453125 0.15625q-0.1875 0.140625 -0.296875 0.53125q-0.109375 0.375 -0.109375 1.609375l0 1.5zm3.3645172 -3.359375l-1.15625 -0.21875q0.1875 -0.6875 0.65625 -1.03125q0.484375 -0.34375 1.4375 -0.34375q0.859375 0 1.265625 0.203125q0.421875 0.203125 0.59375 0.515625q0.171875 0.3125 0.171875 1.15625l-0.015625 1.484375q0 0.640625 0.0625 0.953125q0.0625 0.296875 0.234375 0.640625l-1.265625 0q-0.046875 -0.125 -0.125 -0.375q-0.03125 -0.109375 -0.046875 -0.15625q-0.328125 0.328125 -0.703125 0.484375q-0.375 0.15625 -0.796875 0.15625q-0.75 0 -1.1875 -0.40625q-0.421875 -0.40625 -0.421875 -1.03125q0 -0.40625 0.1875 -0.71875q0.203125 -0.328125 0.5625 -0.5q0.359375 -0.171875 1.015625 -0.296875q0.90625 -0.171875 1.25 -0.3125l0 -0.125q0 -0.375 -0.1875 -0.53125q-0.1875 -0.15625 -0.6875 -0.15625q-0.34375 0 -0.53125 0.140625q-0.1875 0.125 -0.3125 0.46875zm1.71875 1.03125q-0.25 0.09375 -0.78125 0.203125q-0.53125 0.109375 -0.703125 0.21875q-0.25 0.1875 -0.25 0.453125q0 0.265625 0.203125 0.46875q0.203125 0.1875 0.515625 0.1875q0.34375 0 0.65625 -0.21875q0.234375 -0.171875 0.296875 -0.421875q0.0625 -0.171875 0.0625 -0.625l0 -0.265625zm2.5159912 -3.171875l0 -1.171875l1.28125 0l0 1.171875l-1.28125 0zm0 5.5l0 -4.84375l1.28125 0l0 4.84375l-1.28125 0zm6.9822845 0l-1.265625 0l0 -2.46875q0 -0.78125 -0.09375 -1.015625q-0.078125 -0.234375 -0.265625 -0.359375q-0.1875 -0.125 -0.4375 -0.125q-0.328125 0 -0.59375 0.1875q-0.265625 0.171875 -0.375 0.484375q-0.09375 0.296875 -0.09375 1.109375l0 2.1875l-1.28125 0l0 -4.84375l1.1875 0l0 0.71875q0.640625 -0.828125 1.59375 -0.828125q0.421875 0 0.765625 0.15625q0.359375 0.15625 0.53125 0.390625q0.1875 0.234375 0.25 0.546875q0.078125 0.296875 0.078125 0.859375l0 3.0zm0.54174805 1.84375l0 -0.828125l5.328125 0l0 0.828125l-5.328125 0zm10.390991 -1.84375l-1.1875 0l0 -0.703125q-0.296875 0.40625 -0.703125 0.609375q-0.40625 0.203125 -0.8125 0.203125q-0.828125 0 -1.4375 -0.671875q-0.59375 -0.671875 -0.59375 -1.875q0 -1.234375 0.578125 -1.875q0.59375 -0.640625 1.46875 -0.640625q0.8125 0 1.40625 0.6875l0 -2.40625l1.28125 0l0 6.671875zm-3.421875 -2.515625q0 0.765625 0.21875 1.109375q0.3125 0.5 0.859375 0.5q0.453125 0 0.75 -0.375q0.3125 -0.375 0.3125 -1.125q0 -0.828125 -0.296875 -1.1875q-0.296875 -0.375 -0.765625 -0.375q-0.453125 0 -0.765625 0.359375q-0.3125 0.359375 -0.3125 1.09375zm5.635498 -0.84375l-1.15625 -0.21875q0.1875 -0.6875 0.65625 -1.03125q0.484375 -0.34375 1.4375 -0.34375q0.859375 0 1.265625 0.203125q0.421875 0.203125 0.59375 0.515625q0.171875 0.3125 0.171875 1.15625l-0.015625 1.484375q0 0.640625 0.0625 0.953125q0.0625 0.296875 0.234375 0.640625l-1.265625 0q-0.046875 -0.125 -0.125 -0.375q-0.03125 -0.109375 -0.046875 -0.15625q-0.328125 0.328125 -0.703125 0.484375q-0.375 0.15625 -0.796875 0.15625q-0.75 0 -1.1875 -0.40625q-0.421875 -0.40625 -0.421875 -1.03125q0 -0.40625 0.1875 -0.71875q0.203125 -0.328125 0.5625 -0.5q0.359375 -0.171875 1.015625 -0.296875q0.90625 -0.171875 1.25 -0.3125l0 -0.125q0 -0.375 -0.1875 -0.53125q-0.1875 -0.15625 -0.6875 -0.15625q-0.34375 0 -0.53125 0.140625q-0.1875 0.125 -0.3125 0.46875zm1.71875 1.03125q-0.25 0.09375 -0.78125 0.203125q-0.53125 0.109375 -0.703125 0.21875q-0.25 0.1875 -0.25 0.453125q0 0.265625 0.203125 0.46875q0.203125 0.1875 0.515625 0.1875q0.34375 0 0.65625 -0.21875q0.234375 -0.171875 0.296875 -0.421875q0.0625 -0.171875 0.0625 -0.625l0 -0.265625zm4.734741 -2.515625l0 1.03125l-0.875 0l0 1.9375q0 0.59375 0.015625 0.703125q0.03125 0.09375 0.109375 0.15625q0.09375 0.0625 0.234375 0.0625q0.171875 0 0.515625 -0.125l0.109375 1.0q-0.453125 0.1875 -1.015625 0.1875q-0.34375 0 -0.625 -0.109375q-0.28125 -0.125 -0.421875 -0.296875q-0.125 -0.1875 -0.171875 -0.515625q-0.03125 -0.21875 -0.03125 -0.890625l0 -2.109375l-0.59375 0l0 -1.03125l0.59375 0l0 -0.953125l1.28125 -0.75l0 1.703125l0.875 0zm1.8407135 1.484375l-1.15625 -0.21875q0.1875 -0.6875 0.65625 -1.03125q0.484375 -0.34375 1.4375 -0.34375q0.8593826 0 1.2656326 0.203125q0.421875 0.203125 0.59375 0.515625q0.171875 0.3125 0.171875 1.15625l-0.015625 1.484375q0 0.640625 0.0625 0.953125q0.0625 0.296875 0.234375 0.640625l-1.265625 0q-0.046875 -0.125 -0.125 -0.375q-0.03125 -0.109375 -0.046875 -0.15625q-0.328125 0.328125 -0.703125 0.484375q-0.37500763 0.15625 -0.7968826 0.15625q-0.75 0 -1.1875 -0.40625q-0.421875 -0.40625 -0.421875 -1.03125q0 -0.40625 0.1875 -0.71875q0.203125 -0.328125 0.5625 -0.5q0.359375 -0.171875 1.015625 -0.296875q0.9062576 -0.171875 1.2500076 -0.3125l0 -0.125q0 -0.375 -0.1875 -0.53125q-0.1875 -0.15625 -0.6875076 -0.15625q-0.34375 0 -0.53125 0.140625q-0.1875 0.125 -0.3125 0.46875zm1.7187576 1.03125q-0.25 0.09375 -0.7812576 0.203125q-0.53125 0.109375 -0.703125 0.21875q-0.25 0.1875 -0.25 0.453125q0 0.265625 0.203125 0.46875q0.203125 0.1875 0.515625 0.1875q0.34375 0 0.6562576 -0.21875q0.234375 -0.171875 0.296875 -0.421875q0.0625 -0.171875 0.0625 -0.625l0 -0.265625z" fill-rule="nonzero"/><path fill="#ff0000" d="m88.84952 66.97044l1.3125 -0.125q0.109375 0.65625 0.46875 0.96875q0.359375 0.3125 0.984375 0.3125q0.640625 0 0.96875 -0.28125q0.34375 -0.28125 0.34375 -0.640625q0 -0.234375 -0.140625 -0.40625q-0.140625 -0.171875 -0.484375 -0.28125q-0.234375 -0.09375 -1.078125 -0.296875q-1.09375 -0.265625 -1.53125 -0.65625q-0.609375 -0.5625 -0.609375 -1.34375q0 -0.5156212 0.28125 -0.9531212q0.296875 -0.453125 0.84375 -0.6875q0.546875 -0.234375 1.3125 -0.234375q1.25 0 1.890625 0.5625q0.640625 0.546875 0.671875 1.4687462l-1.34375 0.0625q-0.09375 -0.5156212 -0.375 -0.7343712q-0.28125 -0.234375 -0.859375 -0.234375q-0.59375 0 -0.921875 0.234375q-0.203125 0.15625 -0.203125 0.4218712q0 0.234375 0.1875 0.40625q0.265625 0.203125 1.25 0.4375q0.984375 0.234375 1.453125 0.484375q0.46875 0.25 0.734375 0.6875q0.265625 0.421875 0.265625 1.0625q0 0.5625 -0.328125 1.0625q-0.3125 0.5 -0.890625 0.75q-0.578125 0.25 -1.453125 0.25q-1.265625 0 -1.953125 -0.578125q-0.671875 -0.59375 -0.796875 -1.71875zm10.768654 -1.234375l-1.2656174 0.234375q-0.0625 -0.390625 -0.296875 -0.578125q-0.21875 -0.1875 -0.578125 -0.1875q-0.484375 0 -0.765625 0.328125q-0.28125 0.328125 -0.28125 1.109375q0 0.859375 0.28125 1.21875q0.296875 0.34375 0.78125 0.34375q0.375 0 0.59375 -0.203125q0.234375 -0.203125 0.328125 -0.71875l1.2656174 0.21875q-0.203125 0.859375 -0.7656174 1.3125q-0.546875 0.4375 -1.484375 0.4375q-1.046875 0 -1.6875 -0.671875q-0.625 -0.671875 -0.625 -1.84375q0 -1.203125 0.625 -1.875q0.640625 -0.671875 1.71875 -0.671875q0.875 0 1.390625 0.390625q0.5312424 0.375 0.7656174 1.15625zm3.7659912 1.859375l1.28125 0.21875q-0.25 0.703125 -0.78125 1.078125q-0.53125 0.359375 -1.328125 0.359375q-1.265625 0 -1.859375 -0.828125q-0.484375 -0.65625 -0.484375 -1.65625q0 -1.203125 0.625 -1.890625q0.625 -0.6875 1.59375 -0.6875q1.078125 0 1.703125 0.71875q0.625 0.71875 0.59375 2.1875l-3.203125 0q0.015625 0.5625 0.3125 0.890625q0.296875 0.3125 0.734375 0.3125q0.296875 0 0.5 -0.15625q0.203125 -0.171875 0.3125 -0.546875zm0.078125 -1.28125q-0.015625 -0.5625 -0.296875 -0.84375q-0.265625 -0.296875 -0.65625 -0.296875q-0.421875 0 -0.6875 0.3125q-0.28125 0.296875 -0.28125 0.828125l1.921875 0zm6.703491 2.828125l-1.265625 0l0 -2.46875q0 -0.78125 -0.09375 -1.015625q-0.078125 -0.234375 -0.265625 -0.359375q-0.1875 -0.125 -0.4375 -0.125q-0.328125 0 -0.59375 0.1875q-0.265625 0.171875 -0.375 0.484375q-0.09375 0.296875 -0.09375 1.109375l0 2.1875l-1.28125 0l0 -4.84375l1.1875 0l0 0.71875q0.640625 -0.828125 1.59375 -0.828125q0.421875 0 0.765625 0.15625q0.359375 0.15625 0.53125 0.390625q0.1875 0.234375 0.25 0.546875q0.078125 0.296875 0.078125 0.859375l0 3.0zm2.260498 -3.359375l-1.15625 -0.21875q0.1875 -0.6875 0.65625 -1.03125q0.484375 -0.34375 1.4375 -0.34375q0.859375 0 1.265625 0.203125q0.421875 0.203125 0.59375 0.515625q0.171875 0.3125 0.171875 1.15625l-0.015625 1.484375q0 0.640625 0.0625 0.953125q0.0625 0.296875 0.234375 0.640625l-1.265625 0q-0.046875 -0.125 -0.125 -0.375q-0.03125 -0.109375 -0.046875 -0.15625q-0.328125 0.328125 -0.703125 0.484375q-0.375 0.15625 -0.796875 0.15625q-0.75 0 -1.1875 -0.40625q-0.421875 -0.40625 -0.421875 -1.03125q0 -0.40625 0.1875 -0.71875q0.203125 -0.328125 0.5625 -0.5q0.359375 -0.171875 1.015625 -0.296875q0.90625 -0.171875 1.25 -0.3125l0 -0.125q0 -0.375 -0.1875 -0.53125q-0.1875 -0.15625 -0.6875 -0.15625q-0.34375 0 -0.53125 0.140625q-0.1875 0.125 -0.3125 0.46875zm1.71875 1.03125q-0.25 0.09375 -0.78125 0.203125q-0.53125 0.109375 -0.703125 0.21875q-0.25 0.1875 -0.25 0.453125q0 0.265625 0.203125 0.46875q0.203125 0.1875 0.515625 0.1875q0.34375 0 0.65625 -0.21875q0.234375 -0.171875 0.296875 -0.421875q0.0625 -0.171875 0.0625 -0.625l0 -0.265625zm3.7347412 2.328125l-1.28125 0l0 -4.84375l1.1875 0l0 0.6875q0.3125 -0.484375 0.546875 -0.640625q0.25 -0.15625 0.5625 -0.15625q0.4375 0 0.84375 0.25l-0.390625 1.109375q-0.328125 -0.203125 -0.609375 -0.203125q-0.265625 0 -0.453125 0.15625q-0.1875 0.140625 -0.296875 0.53125q-0.109375 0.375 -0.109375 1.609375l0 1.5zm2.4113922 -5.499996l0 -1.171875l1.28125 0l0 1.171875l-1.28125 0zm0 5.499996l0 -4.84375l1.28125 0l0 4.84375l-1.28125 0zm2.2947845 -2.484375q0 -0.640625 0.3125 -1.234375q0.3125 -0.59375 0.890625 -0.90625q0.578125 -0.328125 1.28125 -0.328125q1.109375 0 1.796875 0.71875q0.703125 0.71875 0.703125 1.796875q0 1.109375 -0.703125 1.828125q-0.703125 0.71875 -1.78125 0.71875q-0.671875 0 -1.28125 -0.296875q-0.59375 -0.296875 -0.90625 -0.875q-0.3125 -0.59375 -0.3125 -1.421875zm1.3125 0.0625q0 0.71875 0.34375 1.109375q0.34375 0.375 0.84375 0.375q0.5 0 0.828125 -0.375q0.34375 -0.390625 0.34375 -1.109375q0 -0.71875 -0.34375 -1.09375q-0.328125 -0.390625 -0.828125 -0.390625q-0.5 0 -0.84375 0.390625q-0.34375 0.375 -0.34375 1.09375z" fill-rule="nonzero"/><path fill="#000000" fill-opacity="0.0" d="m363.70996 64.191605l29.858276 -0.40945053" fill-rule="evenodd"/><path stroke="#ff0000" stroke-width="2.0" stroke-linejoin="round" stroke-linecap="butt" d="m363.70996 64.191605l17.859436 -0.24491501" fill-rule="evenodd"/><path fill="#ff0000" stroke="#ff0000" stroke-width="2.0" stroke-linecap="butt" d="m381.61465 67.24985l9.03006 -3.4276047l-9.120636 -3.1787033z" fill-rule="evenodd"/><path fill="#ff462b" d="m210.98557 64.191605l76.36221 -32.314964l76.36218 32.314964l-76.36218 32.314957z" fill-rule="evenodd"/><path fill="#000000" d="m257.05872 62.49285l0 1.3125l-1.1250153 0l0 2.5q0 0.765625 0.03125 0.890625q0.03125 0.125 0.14064026 0.21875q0.125 0.078125 0.28125 0.078125q0.234375 0 0.65625 -0.171875l0.140625 1.28125q-0.5625 0.25 -1.2968903 0.25q-0.4375 0 -0.796875 -0.140625q-0.359375 -0.15625 -0.53125 -0.390625q-0.15625 -0.25 -0.234375 -0.640625q-0.046875 -0.296875 -0.046875 -1.171875l0 -2.703125l-0.75 0l0 -1.3125l0.75 0l0 -1.234375l1.65625 -0.96875l0 2.203125l1.1250153 0zm2.7148438 6.21875l-1.640625 0l0 -6.21875l1.53125 0l0 0.875q0.390625 -0.625 0.703125 -0.8125q0.3125 -0.203125 0.703125 -0.203125q0.5625 0 1.09375 0.3125l-0.515625 1.421875q-0.421875 -0.265625 -0.765625 -0.265625q-0.359375 0 -0.59375 0.203125q-0.234375 0.1875 -0.375 0.6875q-0.140625 0.484375 -0.140625 2.078125l0 1.921875zm4.326172 -4.328125l-1.5 -0.265625q0.25 -0.90625 0.859375 -1.328125q0.625 -0.4375 1.84375 -0.4375q1.09375 0 1.625 0.265625q0.546875 0.25 0.765625 0.65625q0.21875 0.390625 0.21875 1.46875l-0.015625 1.921875q0 0.828125 0.078125 1.21875q0.078125 0.375 0.296875 0.828125l-1.625 0q-0.0625 -0.171875 -0.15625 -0.484375q-0.046875 -0.15625 -0.0625 -0.203125q-0.421875 0.421875 -0.90625 0.625q-0.46875 0.203125 -1.015625 0.203125q-0.96875 0 -1.53125 -0.515625q-0.546875 -0.53125 -0.546875 -1.328125q0 -0.53125 0.25 -0.9375q0.265625 -0.40625 0.71875 -0.625q0.453125 -0.234375 1.3125 -0.390625q1.140625 -0.21875 1.59375 -0.40625l0 -0.15625q0 -0.484375 -0.234375 -0.6875q-0.234375 -0.203125 -0.890625 -0.203125q-0.4375 0 -0.6875 0.171875q-0.234375 0.171875 -0.390625 0.609375zm2.203125 1.34375q-0.3125 0.09375 -1.0 0.25q-0.6875 0.140625 -0.90625 0.28125q-0.3125 0.234375 -0.3125 0.578125q0 0.34375 0.25 0.609375q0.265625 0.25 0.65625 0.25q0.453125 0 0.859375 -0.296875q0.296875 -0.21875 0.390625 -0.546875q0.0625 -0.203125 0.0625 -0.796875l0 -0.328125zm3.2363281 -4.078125l0 -1.53125l1.65625 0l0 1.53125l-1.65625 0zm0 7.0625l0 -6.21875l1.65625 0l0 6.21875l-1.65625 0zm8.990234 0l-1.640625 0l0 -3.171875q0 -1.015625 -0.109375 -1.3125q-0.09375 -0.296875 -0.34375 -0.453125q-0.234375 -0.171875 -0.5625 -0.171875q-0.4375 0 -0.78125 0.234375q-0.328125 0.234375 -0.453125 0.625q-0.125 0.390625 -0.125 1.4375l0 2.8125l-1.65625 0l0 -6.21875l1.53125 0l0 0.90625q0.8125 -1.046875 2.0625 -1.046875q0.53125 0 0.984375 0.203125q0.453125 0.1875 0.6875 0.5q0.234375 0.296875 0.3125 0.6875q0.09375 0.375 0.09375 1.09375l0 3.875zm0.7050781 2.375l0 -1.0625l6.84375 0l0 1.0625l-6.84375 0zm7.517578 -8.59375l1.515625 0l0 0.84375q0.828125 -0.984375 1.953125 -0.984375q0.59375 0 1.03125 0.25q0.4375 0.234375 0.71875 0.734375q0.40625 -0.5 0.875 -0.734375q0.484375 -0.25 1.03125 -0.25q0.671875 0 1.140625 0.28125q0.484375 0.265625 0.71875 0.8125q0.171875 0.390625 0.171875 1.28125l0 3.984375l-1.640625 0l0 -3.5625q0 -0.921875 -0.171875 -1.1875q-0.234375 -0.359375 -0.703125 -0.359375q-0.34375 0 -0.65625 0.21875q-0.296875 0.203125 -0.4375 0.609375q-0.140625 0.40625 -0.140625 1.296875l0 2.984375l-1.640625 0l0 -3.40625q0 -0.90625 -0.09375 -1.171875q-0.078125 -0.265625 -0.265625 -0.390625q-0.1875 -0.140625 -0.5 -0.140625q-0.375 0 -0.6875 0.21875q-0.296875 0.203125 -0.4375 0.59375q-0.125 0.375 -0.125 1.265625l0 3.03125l-1.65625 0l0 -6.21875zm10.419922 3.015625q0 -0.8125 0.40625 -1.578125q0.40625 -0.78125 1.140625 -1.171875q0.734375 -0.40625 1.65625 -0.40625q1.40625 0 2.3125 0.921875q0.90625 0.90625 0.90625 2.3125q0 1.40625 -0.921875 2.34375q-0.90625 0.921875 -2.28125 0.921875q-0.859375 0 -1.640625 -0.390625q-0.765625 -0.390625 -1.171875 -1.125q-0.40625 -0.75 -0.40625 -1.828125zm1.6875 0.09375q0 0.921875 0.4375 1.421875q0.4375 0.484375 1.078125 0.484375q0.65625 0 1.078125 -0.484375q0.4375 -0.5 0.4375 -1.4375q0 -0.90625 -0.4375 -1.390625q-0.421875 -0.5 -1.078125 -0.5q-0.640625 0 -1.078125 0.5q-0.4375 0.484375 -0.4375 1.40625zm11.720703 3.109375l-1.515625 0l0 -0.921875q-0.390625 0.546875 -0.90625 0.8125q-0.515625 0.25 -1.046875 0.25q-1.078125 0 -1.84375 -0.859375q-0.75 -0.875 -0.75 -2.421875q0 -1.578125 0.734375 -2.390625q0.75 -0.828125 1.890625 -0.828125q1.03125 0 1.796875 0.859375l0 -3.09375l1.640625 0l0 8.59375zm-4.390625 -3.25q0 1.0 0.28125 1.4375q0.390625 0.65625 1.109375 0.65625q0.5625 0 0.953125 -0.484375q0.40625 -0.484375 0.40625 -1.453125q0 -1.0625 -0.390625 -1.53125q-0.375 -0.484375 -0.984375 -0.484375q-0.578125 0 -0.984375 0.46875q-0.390625 0.46875 -0.390625 1.390625zm9.626953 1.265625l1.640625 0.28125q-0.3125 0.90625 -1.0 1.375q-0.6875 0.46875 -1.703125 0.46875q-1.625 0 -2.40625 -1.0625q-0.625 -0.84375 -0.625 -2.140625q0 -1.546875 0.8125 -2.421875q0.8125 -0.875 2.046875 -0.875q1.390625 0 2.1875 0.921875q0.8125 0.90625 0.765625 2.796875l-4.125 0q0.03125 0.734375 0.40625 1.140625q0.375 0.40625 0.953125 0.40625q0.375 0 0.640625 -0.203125q0.265625 -0.21875 0.40625 -0.6875zm0.09375 -1.65625q-0.015625 -0.71875 -0.375 -1.09375q-0.34375 -0.375 -0.859375 -0.375q-0.53125 0 -0.890625 0.390625q-0.34375 0.40625 -0.34375 1.078125l2.46875 0zm2.9707031 3.640625l0 -8.59375l1.65625 0l0 8.59375l-1.65625 0z" fill-rule="nonzero"/><path fill="#000000" fill-opacity="0.0" d="m181.12074 64.76509l34.078735 -0.15747833" fill-rule="evenodd"/><path stroke="#ff0000" stroke-width="2.0" stroke-linejoin="round" stroke-linecap="butt" d="m181.12073 64.76509l22.078873 -0.10202789" fill-rule="evenodd"/><path fill="#ff0000" stroke="#ff0000" stroke-width="2.0" stroke-linecap="butt" d="m203.21487 67.96649l9.060822 -3.3453674l-9.091354 -3.2614899z" fill-rule="evenodd"/></g></svg>